<?xml version="1.0" encoding="UTF-8"?>
<svg version="1.1" xmlns="http://www.w3.org/2000/svg" width="512" height="512">
<path d="M0 0 C12.93109584 12.15359324 19.57006023 26.48411406 24.8125 43.1875 C25.02183167 43.84746979 25.23116333 44.50743958 25.44683838 45.18740845 C35.05660305 75.58994242 41.86412074 107.53819545 42.015625 139.53125 C42.02268463 140.53028351 42.02974426 141.52931702 42.03701782 142.55862427 C42.2654628 184.40057417 42.2654628 184.40057417 38.8125 204.6875 C38.60850586 205.90953125 38.40451172 207.1315625 38.19433594 208.390625 C24.40548479 288.99619445 24.40548479 288.99619445 -4.21484375 310.6484375 C-38.98323043 334.49744913 -92.13793108 342.70063794 -133.25 342.890625 C-134.27150146 342.89763931 -135.29300293 342.90465363 -136.34545898 342.91188049 C-139.62618468 342.92929309 -142.90672978 342.93573338 -146.1875 342.9375 C-147.30898437 342.93817474 -148.43046875 342.93884949 -149.5859375 342.93954468 C-166.3158068 342.92354339 -182.65571411 342.4814127 -199.1875 339.6875 C-200.2408252 339.51589355 -201.29415039 339.34428711 -202.37939453 339.16748047 C-282.47196347 325.82865257 -282.47196347 325.82865257 -304.30078125 296.47265625 C-321.19967878 271.52666465 -327.41465013 238.52708335 -332.4375 209.3125 C-332.58880371 208.43537354 -332.74010742 207.55824707 -332.89599609 206.65454102 C-335.71251377 189.20008767 -336.56392635 171.84623423 -336.5 154.1875 C-336.49817719 153.13745789 -336.49635437 152.08741577 -336.49447632 151.0055542 C-336.44608024 134.39797503 -335.84638339 118.11291427 -333.1875 101.6875 C-333.01589355 100.61564453 -332.84428711 99.54378906 -332.66748047 98.43945312 C-326.62644972 61.96652756 -318.96779933 18.95102786 -287.73046875 -4.5859375 C-262.04262593 -22.02683846 -225.24340862 -27.53851899 -195.1875 -32.3125 C-194.1960498 -32.47766113 -193.20459961 -32.64282227 -192.18310547 -32.81298828 C-135.13525025 -41.98427274 -46.01617515 -39.5018371 0 0 Z " fill="#FEFEFE" transform="translate(403.1875,102.3125)"/>
<path d="M0 0 C12.93109584 12.15359324 19.57006023 26.48411406 24.8125 43.1875 C25.02183167 43.84746979 25.23116333 44.50743958 25.44683838 45.18740845 C35.05660305 75.58994242 41.86412074 107.53819545 42.015625 139.53125 C42.02268463 140.53028351 42.02974426 141.52931702 42.03701782 142.55862427 C42.2654628 184.40057417 42.2654628 184.40057417 38.8125 204.6875 C38.60850586 205.90953125 38.40451172 207.1315625 38.19433594 208.390625 C24.40548479 288.99619445 24.40548479 288.99619445 -4.21484375 310.6484375 C-38.98323043 334.49744913 -92.13793108 342.70063794 -133.25 342.890625 C-134.27150146 342.89763931 -135.29300293 342.90465363 -136.34545898 342.91188049 C-139.62618468 342.92929309 -142.90672978 342.93573338 -146.1875 342.9375 C-147.30898437 342.93817474 -148.43046875 342.93884949 -149.5859375 342.93954468 C-166.3158068 342.92354339 -182.65571411 342.4814127 -199.1875 339.6875 C-200.2408252 339.51589355 -201.29415039 339.34428711 -202.37939453 339.16748047 C-282.47196347 325.82865257 -282.47196347 325.82865257 -304.30078125 296.47265625 C-321.19967878 271.52666465 -327.41465013 238.52708335 -332.4375 209.3125 C-332.58880371 208.43537354 -332.74010742 207.55824707 -332.89599609 206.65454102 C-335.71251377 189.20008767 -336.56392635 171.84623423 -336.5 154.1875 C-336.49817719 153.13745789 -336.49635437 152.08741577 -336.49447632 151.0055542 C-336.44608024 134.39797503 -335.84638339 118.11291427 -333.1875 101.6875 C-333.01589355 100.61564453 -332.84428711 99.54378906 -332.66748047 98.43945312 C-326.62644972 61.96652756 -318.96779933 18.95102786 -287.73046875 -4.5859375 C-262.04262593 -22.02683846 -225.24340862 -27.53851899 -195.1875 -32.3125 C-194.1960498 -32.47766113 -193.20459961 -32.64282227 -192.18310547 -32.81298828 C-135.13525025 -41.98427274 -46.01617515 -39.5018371 0 0 Z M-264.25 39.1875 C-270.28937811 46.43238998 -272.54000536 55.80295316 -275.1875 64.6875 C-275.45836426 65.58791016 -275.72922852 66.48832031 -276.00830078 67.41601562 C-279.94121555 80.67623583 -283.01490918 94.02948477 -285.1875 107.6875 C-285.33848145 108.60257324 -285.48946289 109.51764648 -285.64501953 110.46044922 C-290.02557533 138.02439958 -290.7361728 168.50009094 -285.67919922 196.00292969 C-285.14196268 198.93612384 -284.66739519 201.87658841 -284.19140625 204.8203125 C-278.71779515 241.48884334 -278.71779515 241.48884334 -260.59301758 271.94970703 C-254.78285835 275.71942608 -248.72329693 277.74734589 -242.125 279.75 C-241.00955811 280.09579102 -239.89411621 280.44158203 -238.74487305 280.79785156 C-235.56348536 281.77645575 -232.37712129 282.73612575 -229.1875 283.6875 C-228.43952148 283.91356934 -227.69154297 284.13963867 -226.92089844 284.37255859 C-170.15080035 301.34609931 -109.11693989 297.176491 -53.1875 279.6875 C-52.27033203 279.40197266 -51.35316406 279.11644531 -50.40820312 278.82226562 C-48.03456873 278.07106945 -45.6717326 277.29513701 -43.3125 276.5 C-42.65942871 276.28674072 -42.00635742 276.07348145 -41.33349609 275.85375977 C-33.88118322 273.21385915 -29.87572867 269.09029182 -26.33984375 262.25292969 C-24.23288127 257.56225983 -22.69424915 252.72318938 -21.1875 247.8125 C-20.84501221 246.71695801 -20.50252441 245.62141602 -20.1496582 244.49267578 C-17.20283901 234.96150323 -14.51533123 225.38795492 -12.1875 215.6875 C-11.90261719 214.53765625 -11.61773437 213.3878125 -11.32421875 212.203125 C-4.3578559 181.19387907 -3.44453856 146.13108838 -8.1875 114.6875 C-8.30577148 113.84316406 -8.42404297 112.99882812 -8.54589844 112.12890625 C-14.0617725 69.69033865 -14.0617725 69.69033865 -34.89453125 34.328125 C-40.84738515 30.19093434 -48.09109614 28.3539022 -54.9375 26.1875 C-55.68549866 25.94693878 -56.43349731 25.70637756 -57.2041626 25.45852661 C-70.39092906 21.23819257 -83.54102077 18.23244138 -97.24194336 16.14160156 C-100.33339854 15.66500756 -103.41367045 15.1371275 -106.49609375 14.60546875 C-114.05168392 13.34722618 -121.54320618 12.90845575 -129.1875 12.6875 C-130.32380859 12.65350098 -131.46011719 12.61950195 -132.63085938 12.58447266 C-168.44898174 11.67564085 -237.91086811 11.86426867 -264.25 39.1875 Z " fill="#C0E1F5" transform="translate(403.1875,102.3125)"/>
<path d="M0 0 C1.28390625 -0.01417969 2.5678125 -0.02835938 3.890625 -0.04296875 C13.24655002 0.51573527 13.24655002 0.51573527 16.71704102 4.37475586 C18.85301106 7.33002317 20.71379059 10.3377908 22.54296875 13.4921875 C22.89075882 14.08900833 23.23854889 14.68582916 23.59687805 15.30073547 C24.71401994 17.21925547 25.82573851 19.14085814 26.9375 21.0625 C28.08341375 23.03310684 29.2307799 25.00286255 30.37832642 26.97251892 C31.13052743 28.26365994 31.88230144 29.55504982 32.63363647 30.84669495 C36.1241955 36.84369085 39.68792091 42.79456551 43.28125 48.73046875 C45.80911539 52.95926483 46.45760299 56.28482212 45.75 61.1875 C41.7443558 72.75481946 29.98859093 79.97353645 20.75 87.1875 C22.56745171 96.39867569 30.61489118 103.56613466 36.75 110.1875 C37.38035156 110.909375 38.01070313 111.63125 38.66015625 112.375 C43.96666216 118.451635 49.61843104 124.16290146 55.3125 129.875 C56.517854 131.08724243 56.517854 131.08724243 57.74755859 132.32397461 C64.46045329 139.01966382 71.40018664 145.30745757 78.9375 151.0625 C79.92105469 151.82304687 80.90460938 152.58359375 81.91796875 153.3671875 C84.66943669 155.13571724 86.53429277 155.82301399 89.75 156.1875 C91.83494093 153.79306157 93.91765854 151.39669922 96 149 C96.58652344 148.32646484 97.17304688 147.65292969 97.77734375 146.95898438 C100.22502263 144.14002836 102.63388492 141.33895446 104.90625 138.375 C106.80375791 136.12371943 108.4487761 134.82038764 111 133.375 C111.70640625 132.95605469 112.4128125 132.53710938 113.140625 132.10546875 C118.17507549 130.33436715 122.22493574 130.55326119 127.046875 132.55859375 C128.20880174 133.22887092 129.35927367 133.91924602 130.5 134.625 C131.14904297 135.00825439 131.79808594 135.39150879 132.46679688 135.78637695 C133.98884457 136.69081927 135.50534564 137.60463116 137.01757812 138.52539062 C139.63290127 140.11626982 142.25876848 141.68865287 144.88775635 143.25682068 C148.01267982 145.12260811 151.13158217 146.99836586 154.25 148.875 C154.85791382 149.24003632 155.46582764 149.60507263 156.09216309 149.98117065 C175.13032739 161.43958676 175.13032739 161.43958676 176.4362793 165.12329102 C178.38058001 177.91633578 176.95079882 188.68880036 169.3125 199.25 C158.62837348 211.80335676 140.98476046 220.64437973 124.59472656 222.42114258 C87.80461599 224.78238656 52.61838733 203.53148467 25.75 180.1875 C23.16259196 177.88634256 20.58980072 175.57219999 18.0390625 173.23046875 C16.45705295 171.81853873 14.82619476 170.46016013 13.16015625 169.1484375 C11.0240725 167.4104893 9.3267462 165.72486116 7.5625 163.625 C4.79240045 160.3702826 1.92553278 157.24062287 -1 154.125 C-11.21099103 142.89290986 -19.54607204 130.23194751 -27.25 117.1875 C-27.61222656 116.57970703 -27.97445312 115.97191406 -28.34765625 115.34570312 C-34.53180482 104.8372145 -38.63866677 93.80974745 -42.25 82.1875 C-42.61351562 81.03378906 -42.97703125 79.88007813 -43.3515625 78.69140625 C-48.29501527 60.5577127 -45.35647359 42.69095426 -36.875 26.1875 C-28.6720685 11.99625134 -17.33583698 0.08633385 0 0 Z " fill="#3191CE" transform="translate(190.25,144.8125)"/>
<path d="M0 0 C12.93109584 12.15359324 19.57006023 26.48411406 24.8125 43.1875 C25.02183167 43.84746979 25.23116333 44.50743958 25.44683838 45.18740845 C35.05660305 75.58994242 41.86412074 107.53819545 42.015625 139.53125 C42.02268463 140.53028351 42.02974426 141.52931702 42.03701782 142.55862427 C42.2654628 184.40057417 42.2654628 184.40057417 38.8125 204.6875 C38.60850586 205.90953125 38.40451172 207.1315625 38.19433594 208.390625 C24.40548479 288.99619445 24.40548479 288.99619445 -4.21484375 310.6484375 C-38.98323043 334.49744913 -92.13793108 342.70063794 -133.25 342.890625 C-134.27150146 342.89763931 -135.29300293 342.90465363 -136.34545898 342.91188049 C-139.62618468 342.92929309 -142.90672978 342.93573338 -146.1875 342.9375 C-147.30898437 342.93817474 -148.43046875 342.93884949 -149.5859375 342.93954468 C-166.3158068 342.92354339 -182.65571411 342.4814127 -199.1875 339.6875 C-200.2408252 339.51589355 -201.29415039 339.34428711 -202.37939453 339.16748047 C-282.47196347 325.82865257 -282.47196347 325.82865257 -304.30078125 296.47265625 C-321.19967878 271.52666465 -327.41465013 238.52708335 -332.4375 209.3125 C-332.58880371 208.43537354 -332.74010742 207.55824707 -332.89599609 206.65454102 C-335.71251377 189.20008767 -336.56392635 171.84623423 -336.5 154.1875 C-336.49817719 153.13745789 -336.49635437 152.08741577 -336.49447632 151.0055542 C-336.44608024 134.39797503 -335.84638339 118.11291427 -333.1875 101.6875 C-333.01589355 100.61564453 -332.84428711 99.54378906 -332.66748047 98.43945312 C-326.62644972 61.96652756 -318.96779933 18.95102786 -287.73046875 -4.5859375 C-262.04262593 -22.02683846 -225.24340862 -27.53851899 -195.1875 -32.3125 C-194.1960498 -32.47766113 -193.20459961 -32.64282227 -192.18310547 -32.81298828 C-135.13525025 -41.98427274 -46.01617515 -39.5018371 0 0 Z M-217.1875 -11.3125 C-218.21681641 -11.08691406 -219.24613281 -10.86132812 -220.30664062 -10.62890625 C-261.5800955 -2.16178123 -261.5800955 -2.16178123 -292.9375 23.875 C-304.27087645 43.09131042 -308.8140212 65.32920189 -313.56274414 86.87353516 C-313.94711368 88.60477523 -314.34020995 90.33413847 -314.74780273 92.06005859 C-316.13374893 97.97650157 -316.98768071 103.91154749 -317.75 109.9375 C-317.87568359 110.88496094 -318.00136719 111.83242187 -318.13085938 112.80859375 C-319.85401415 126.17883132 -320.45967943 139.47075926 -320.5 152.9375 C-320.50261841 153.78221863 -320.50523682 154.62693726 -320.50793457 155.49725342 C-320.51361784 172.80239924 -318.87008044 189.60760612 -316.1875 206.6875 C-315.96320313 208.1732251 -315.96320313 208.1732251 -315.734375 209.68896484 C-311.46178173 237.32730256 -304.20307969 278.24042635 -281.1875 296.6875 C-237.85101727 327.55812881 -167.0631548 329.8036533 -116.1875 325.6875 C-115.12644043 325.60677246 -115.12644043 325.60677246 -114.04394531 325.52441406 C-101.52258051 324.5229312 -89.37026084 322.0792567 -77.12451172 319.33886719 C-74.41139445 318.73715506 -71.69373819 318.16591187 -68.97265625 317.6015625 C-58.6051506 315.37866501 -48.63141102 312.31764121 -38.625 308.8125 C-37.47161133 308.41393799 -36.31822266 308.01537598 -35.12988281 307.60473633 C-16.70780969 300.95232104 -4.75186373 291.37909514 3.8125 273.6875 C5.89606453 268.74792789 7.45134112 263.62700248 9 258.5 C9.42793792 257.11884476 9.85657692 255.73790656 10.28588867 254.35717773 C11.48579622 250.47439732 12.65019762 246.58169152 13.8125 242.6875 C14.09254883 241.77806641 14.37259766 240.86863281 14.66113281 239.93164062 C33.72568175 177.75902503 28.83548058 108.30902546 8.6875 47.1875 C8.09461182 45.38200684 8.09461182 45.38200684 7.48974609 43.54003906 C3.30688347 31.37578507 -2.09536498 21.81181957 -11.1875 12.6875 C-11.74050781 12.11128906 -12.29351562 11.53507812 -12.86328125 10.94140625 C-26.94198679 -2.50847374 -52.7017742 -7.1920748 -71.1875 -11.3125 C-72.54575142 -11.63988531 -73.90381853 -11.96803603 -75.26171875 -12.296875 C-121.84532161 -23.23051232 -170.70747431 -21.85313363 -217.1875 -11.3125 Z " fill="#3090CE" transform="translate(403.1875,102.3125)"/>
<path d="M0 0 C0.73605469 0.14131348 1.47210938 0.28262695 2.23046875 0.42822266 C11.99660727 2.35122184 21.41756796 5.29308459 30.875 8.375 C32.00454102 8.73811279 33.13408203 9.10122559 34.29785156 9.4753418 C48.30502969 14.1619153 61.00249041 20.45239193 68 34 C89.29767872 81.91035337 96.25710315 142.37219493 87.48730469 194.12304688 C86.97013771 197.17630124 86.50580947 200.23553658 86.0390625 203.296875 C83.94321885 216.30210087 80.81987752 228.84938398 77 241.4375 C76.68613846 242.47606644 76.68613846 242.47606644 76.36593628 243.53561401 C66.21265757 276.86162731 66.21265757 276.86162731 50.70214844 285.24145508 C42.97029088 288.76495597 35.04099018 291.48354017 26.9375 294 C26.24490082 294.21688477 25.55230164 294.43376953 24.8387146 294.65722656 C7.17872005 300.15246997 -10.73911811 303.23690985 -29 306 C-30.07229858 306.17063965 -30.07229858 306.17063965 -31.16625977 306.34472656 C-61.84886283 311.13444367 -95.66890079 308.82173403 -126 303 C-126.71462402 302.86368164 -127.42924805 302.72736328 -128.16552734 302.58691406 C-185.73025888 291.31094539 -185.73025888 291.31094539 -200 271 C-204.49926511 263.24231973 -206.86371486 254.64585614 -209.5 246.125 C-209.74533478 245.33666779 -209.99066956 244.54833557 -210.24343872 243.7361145 C-213.70280868 232.59344349 -217.06939904 221.52474597 -219 210 C-219.17080078 208.9805127 -219.34160156 207.96102539 -219.51757812 206.91064453 C-221.86569164 192.63992326 -224.11053712 178.50138535 -224.23828125 164.015625 C-224.2480751 163.08996735 -224.25786896 162.16430969 -224.26795959 161.21060181 C-224.44787071 139.77151058 -223.95776263 119.12929676 -220 98 C-219.79101074 96.84516113 -219.58202148 95.69032227 -219.36669922 94.50048828 C-216.86710306 80.97271132 -213.5392833 67.72506879 -209.5625 54.5625 C-209.21550049 53.3964624 -208.86850098 52.2304248 -208.51098633 51.02905273 C-203.62875895 35.50867366 -197.41528233 24.18875136 -182.97070312 16.46948242 C-178.55373295 14.28459226 -174.05729784 12.64401315 -169.375 11.125 C-167.86437988 10.62963745 -167.86437988 10.62963745 -166.32324219 10.12426758 C-146.55203537 3.83707129 -125.88956545 -1.39393405 -105.25878906 -3.73974609 C-102.98809889 -4.00137123 -100.7258993 -4.30635621 -98.4609375 -4.61328125 C-65.73505935 -8.69560925 -32.23601937 -6.3130885 0 0 Z M-184.0625 36.5 C-190.10187811 43.74488998 -192.35250536 53.11545316 -195 62 C-195.27086426 62.90041016 -195.54172852 63.80082031 -195.82080078 64.72851562 C-199.75371555 77.98873583 -202.82740918 91.34198477 -205 105 C-205.15098145 105.91507324 -205.30196289 106.83014648 -205.45751953 107.77294922 C-209.83807533 135.33689958 -210.5486728 165.81259094 -205.49169922 193.31542969 C-204.95446268 196.24862384 -204.47989519 199.18908841 -204.00390625 202.1328125 C-198.53029515 238.80134334 -198.53029515 238.80134334 -180.40551758 269.26220703 C-174.59535835 273.03192608 -168.53579693 275.05984589 -161.9375 277.0625 C-160.82205811 277.40829102 -159.70661621 277.75408203 -158.55737305 278.11035156 C-155.37598536 279.08895575 -152.18962129 280.04862575 -149 281 C-148.25202148 281.22606934 -147.50404297 281.45213867 -146.73339844 281.68505859 C-89.96330035 298.65859931 -28.92943989 294.488991 27 277 C27.91716797 276.71447266 28.83433594 276.42894531 29.77929688 276.13476562 C32.15293127 275.38356945 34.5157674 274.60763701 36.875 273.8125 C37.52807129 273.59924072 38.18114258 273.38598145 38.85400391 273.16625977 C46.30631678 270.52635915 50.31177133 266.40279182 53.84765625 259.56542969 C55.95461873 254.87475983 57.49325085 250.03568938 59 245.125 C59.34248779 244.02945801 59.68497559 242.93391602 60.0378418 241.80517578 C62.98466099 232.27400323 65.67216877 222.70045492 68 213 C68.28488281 211.85015625 68.56976563 210.7003125 68.86328125 209.515625 C75.8296441 178.50637907 76.74296144 143.44358838 72 112 C71.88172852 111.15566406 71.76345703 110.31132812 71.64160156 109.44140625 C66.1257275 67.00283865 66.1257275 67.00283865 45.29296875 31.640625 C39.34011485 27.50343434 32.09640386 25.6664022 25.25 23.5 C24.50200134 23.25943878 23.75400269 23.01887756 22.9833374 22.77102661 C9.79657094 18.55069257 -3.35352077 15.54494138 -17.05444336 13.45410156 C-20.14589854 12.97750756 -23.22617045 12.4496275 -26.30859375 11.91796875 C-33.86418392 10.65972618 -41.35570618 10.22095575 -49 10 C-50.13630859 9.96600098 -51.27261719 9.93200195 -52.44335938 9.89697266 C-88.26148174 8.98814085 -157.72336811 9.17676867 -184.0625 36.5 Z " fill="#3191CE" transform="translate(323,105)"/>
<path d="M0 0 C1.52294922 1.5480957 1.52294922 1.5480957 2.8046875 3.67578125 C3.30693848 4.49232178 3.80918945 5.3088623 4.32666016 6.15014648 C4.8788623 7.09059814 5.43106445 8.0310498 6 9 C6.64114746 10.06355713 7.28229492 11.12711426 7.94287109 12.22290039 C10.06932639 15.75954295 12.16111143 19.31608228 14.25 22.875 C15.32959856 24.71002812 16.40993401 26.54461699 17.4911499 28.37869263 C18.46200418 30.02619503 19.43077047 31.67492734 20.39941406 33.32373047 C21.54947874 35.24670317 22.75711591 37.13567387 24 39 C23.9134148 42.52113149 23.17135109 43.81268826 20.77734375 46.4296875 C19.84019531 47.23664063 18.90304688 48.04359375 17.9375 48.875 C16.44863281 50.17824219 16.44863281 50.17824219 14.9296875 51.5078125 C13.16759457 53.00676622 11.40281478 54.50258162 9.6328125 55.9921875 C2.30830881 62.16085741 2.30830881 62.16085741 -0.6875 71 C0.22291682 87.01262522 15.31952713 100.71713186 26.11010742 111.10839844 C27.92468829 112.92462019 29.58313667 114.80362115 31.2421875 116.76171875 C34.84429931 120.90696074 38.71287815 124.65795687 42.75 128.375 C43.44955811 129.02275391 44.14911621 129.67050781 44.86987305 130.33789062 C46.26835185 131.63151162 47.66829609 132.9235505 49.06982422 134.21386719 C50.75948408 135.77743303 52.43237237 137.35589955 54.09765625 138.9453125 C59.97943946 144.48011282 66.02045388 148.94081324 73 153 C73.99 153.639375 74.98 154.27875 76 154.9375 C80.55974277 156.5524089 85.22168033 156.73623657 90 156 C92.18416391 154.54204576 92.18416391 154.54204576 94 153 C94.66 153 95.32 153 96 153 C96.23074219 152.45085937 96.46148437 151.90171875 96.69921875 151.3359375 C98.97083735 147.25657437 102.36310688 144.10598603 105.53515625 140.7109375 C107.44380084 138.61173093 109.10516887 136.54737069 110.75 134.25 C111.4925 133.5075 112.235 132.765 113 132 C117.92783153 132.24097083 121.24837615 134.04827777 125.39453125 136.60546875 C126.28201302 137.14800041 126.28201302 137.14800041 127.18742371 137.70149231 C129.06814435 138.85452268 130.94017777 140.02089365 132.8125 141.1875 C134.05742109 141.95202191 135.30285998 142.71570133 136.54882812 143.47851562 C138.95245057 144.95370466 141.34651804 146.44261673 143.73242188 147.94628906 C145.76337682 149.22276792 147.80469548 150.48309193 149.86132812 151.71777344 C150.67666016 152.22211914 151.49199219 152.72646484 152.33203125 153.24609375 C153.02917236 153.66689209 153.72631348 154.08769043 154.44458008 154.52124023 C156.54287497 156.51611893 156.65037656 158.03623927 156.875 160.875 C156.08377453 168.87117252 151.4620006 174.3507429 145.4296875 179.3359375 C131.09380734 189.15440205 116.25819521 191.60001206 99.375 189 C54.39324555 180.43412789 13.95517332 141.13203359 -11 105 C-24.70337243 83.9955165 -38.22696911 58.27861364 -33.3359375 32.5 C-29.79888263 19.70508848 -23.74351696 7.7725011 -12.03515625 0.8359375 C-7.98042733 -0.82953657 -4.25570508 -0.96369258 0 0 Z " fill="#C1E2F5" transform="translate(195,161)"/>
</svg>
