<?xml version="1.0" encoding="UTF-8"?>
<svg version="1.1" xmlns="http://www.w3.org/2000/svg" width="512" height="512">
<path d="M0 0 C5.01729737 4.4565406 8.56683187 9.12054082 9.17883682 16.01452255 C9.24536907 18.38754717 9.24740322 20.75258411 9.22705078 23.12646484 C9.22734283 24.02466949 9.22763489 24.92287415 9.22793579 25.84829712 C9.22654793 28.80261053 9.21101232 31.75666841 9.1953125 34.7109375 C9.19158044 36.76502342 9.18873438 38.81911112 9.18673706 40.87319946 C9.17911583 46.26874746 9.15948027 51.66418708 9.1373291 57.05969238 C9.11683816 62.56972793 9.1077284 68.07978105 9.09765625 73.58984375 C9.07623298 84.39327667 9.04211524 95.19662931 9 106 C9.57039001 105.99848112 10.14078003 105.99696224 10.72845459 105.99539733 C44.53990535 105.90587076 78.35132914 105.83724658 112.16287261 105.79573868 C116.22332803 105.7907359 120.28378322 105.78555861 124.34423828 105.78027344 C125.1525964 105.7792242 125.96095452 105.77817495 126.79380834 105.77709392 C139.87992398 105.75969216 152.96596928 105.72815574 166.0520432 105.69138882 C179.48114481 105.653973 192.9102096 105.63176279 206.33936119 105.62364602 C214.62483839 105.61815957 222.91011675 105.60083572 231.19553274 105.56833413 C236.87837802 105.54717832 242.56112061 105.54080236 248.2440024 105.54599449 C251.52203006 105.54855466 254.79963761 105.54245876 258.07761955 105.5231781 C261.63527535 105.50327781 265.19208038 105.50806204 268.74975586 105.51898193 C269.78090012 105.50733057 270.81204437 105.4956792 271.87443542 105.48367476 C279.11620994 105.54375725 284.55637437 106.9615068 290.05859375 111.81640625 C290.51363281 112.39261719 290.96867187 112.96882813 291.4375 113.5625 C291.91058594 114.14128906 292.38367188 114.72007812 292.87109375 115.31640625 C294.79239394 118.18173629 295.13107911 120.73388504 295.17700195 124.08496094 C295.18983719 124.90301208 295.20267242 125.72106323 295.21589661 126.56390381 C295.22697701 127.88578705 295.22697701 127.88578705 295.23828125 129.234375 C295.246353 130.14576233 295.25442474 131.05714966 295.26274109 131.99615479 C295.2765714 133.92612817 295.28729827 135.85612591 295.29516602 137.78613281 C295.31235429 140.72508644 295.35624668 143.66290772 295.40039062 146.6015625 C295.41052024 148.47915842 295.4190355 150.35676388 295.42578125 152.234375 C295.44328934 153.10753357 295.46079742 153.98069214 295.47883606 154.88031006 C295.45557656 161.48440733 293.96227668 165.68922018 289.47265625 170.70703125 C284.86166931 174.32173847 281.03839534 176.25153804 275.15245342 176.24609566 C274.19849798 176.25007775 273.24454254 176.25405985 272.26167935 176.25816262 C271.22179657 176.25233693 270.18191379 176.24651125 269.11051941 176.24050903 C267.9996046 176.24221788 266.88868978 176.24392673 265.74411088 176.24568737 C262.01448201 176.24898665 258.28503228 176.23797115 254.55541992 176.22705078 C251.8847615 176.22648676 249.21411411 176.22671494 246.54345703 176.22793579 C240.7900373 176.22898426 235.03666294 176.22271159 229.28325462 176.21146011 C220.96480867 176.19520299 212.64638465 176.18999689 204.32792453 176.18748413 C190.83164102 176.18310736 177.3353817 176.16979875 163.83911133 176.15087891 C150.72908652 176.13251964 137.61906827 176.11836336 124.5090332 176.10986328 C123.70087102 176.10933783 122.89270883 176.10881239 122.06005689 176.10827102 C118.00572679 176.10566093 113.95139665 176.10313352 109.89706647 176.10064721 C76.26469345 176.07991528 42.63234969 176.04469024 9 176 C9.00999275 177.70222717 9.00999275 177.70222717 9.02018738 179.43884277 C9.08108456 190.1496736 9.12601399 200.86046915 9.15543652 211.57143402 C9.17107159 217.07764418 9.19227058 222.58371422 9.22631836 228.08984375 C9.25898857 233.4066556 9.27686925 238.72333292 9.28463173 244.04023743 C9.29016147 246.06555803 9.30095969 248.09087153 9.31719017 250.11613464 C9.33906616 252.95974459 9.34196266 255.8028034 9.34057617 258.64648438 C9.351362 259.47799011 9.36214783 260.30949585 9.3732605 261.16619873 C9.33988885 267.5192805 8.30858964 273.17456194 4.16796875 278.2421875 C-1.9866559 283.31641453 -6.80003261 285.71929538 -15 285 C-20.57272401 282.96070607 -25.03363962 280.1045337 -29.8125 276.625 C-30.91392334 275.83488525 -30.91392334 275.83488525 -32.03759766 275.02880859 C-33.58567022 273.91675732 -35.13153751 272.80163032 -36.67529297 271.68359375 C-38.92613624 270.05349343 -41.18281796 268.43184633 -43.44140625 266.8125 C-51.97349462 260.68491782 -60.44273558 254.47447409 -68.8918457 248.2331543 C-77.21476786 242.09083604 -85.60423085 236.04215888 -94 230 C-104.00550398 222.79936792 -113.97688478 215.55749214 -123.89208984 208.23291016 C-132.21502749 202.09080366 -140.60432215 196.04209317 -149 190 C-158.38298426 183.24737488 -167.74944048 176.47388943 -177.0625 169.625 C-177.82361084 169.06627197 -178.58472168 168.50754395 -179.36889648 167.93188477 C-183.22986482 165.08595904 -187.06553436 162.20873253 -190.87109375 159.2890625 C-191.59095459 158.73686035 -192.31081543 158.1846582 -193.05249023 157.61572266 C-196.68416614 154.60275648 -199.48647141 151.54058577 -201 147 C-201.14510887 145.06614527 -201.22073101 143.1265704 -201.25 141.1875 C-201.28867188 139.66189453 -201.28867188 139.66189453 -201.328125 138.10546875 C-200.50010479 130.26884895 -195.44274369 126.01858658 -189.65478516 121.29345703 C-185.11931655 117.74832385 -180.35430421 114.51277697 -175.625 111.234375 C-170.87129363 107.9318426 -166.21211801 104.50944986 -161.5625 101.0625 C-151.69171957 93.75623622 -141.73809424 86.56885188 -131.77050781 79.39550781 C-123.31406964 73.3076125 -114.88111091 67.19131259 -106.5 61 C-96.64592179 53.72057378 -86.71425666 46.55169676 -76.77050781 39.39550781 C-68.31406641 33.30761017 -59.88127498 27.19109408 -51.5 21 C-45.06018942 16.24514347 -38.60650954 11.51040004 -32.125 6.8125 C-31.38185547 6.27173828 -30.63871094 5.73097656 -29.87304688 5.17382812 C-20.4299115 -1.65348028 -11.24912967 -6.63919222 0 0 Z " fill="#FDFDFD" transform="translate(209,115)"/>
<path d="M0 0 C5.01729737 4.4565406 8.56683187 9.12054082 9.17883682 16.01452255 C9.24536907 18.38754717 9.24740322 20.75258411 9.22705078 23.12646484 C9.22734283 24.02466949 9.22763489 24.92287415 9.22793579 25.84829712 C9.22654793 28.80261053 9.21101232 31.75666841 9.1953125 34.7109375 C9.19158044 36.76502342 9.18873438 38.81911112 9.18673706 40.87319946 C9.17911583 46.26874746 9.15948027 51.66418708 9.1373291 57.05969238 C9.11683816 62.56972793 9.1077284 68.07978105 9.09765625 73.58984375 C9.07623298 84.39327667 9.04211524 95.19662931 9 106 C9.57039001 105.99848112 10.14078003 105.99696224 10.72845459 105.99539733 C44.53990535 105.90587076 78.35132914 105.83724658 112.16287261 105.79573868 C116.22332803 105.7907359 120.28378322 105.78555861 124.34423828 105.78027344 C125.1525964 105.7792242 125.96095452 105.77817495 126.79380834 105.77709392 C139.87992398 105.75969216 152.96596928 105.72815574 166.0520432 105.69138882 C179.48114481 105.653973 192.9102096 105.63176279 206.33936119 105.62364602 C214.62483839 105.61815957 222.91011675 105.60083572 231.19553274 105.56833413 C236.87837802 105.54717832 242.56112061 105.54080236 248.2440024 105.54599449 C251.52203006 105.54855466 254.79963761 105.54245876 258.07761955 105.5231781 C261.63527535 105.50327781 265.19208038 105.50806204 268.74975586 105.51898193 C269.78090012 105.50733057 270.81204437 105.4956792 271.87443542 105.48367476 C279.11620994 105.54375725 284.55637437 106.9615068 290.05859375 111.81640625 C290.51363281 112.39261719 290.96867187 112.96882813 291.4375 113.5625 C291.91058594 114.14128906 292.38367188 114.72007812 292.87109375 115.31640625 C294.79239394 118.18173629 295.13107911 120.73388504 295.17700195 124.08496094 C295.18983719 124.90301208 295.20267242 125.72106323 295.21589661 126.56390381 C295.22697701 127.88578705 295.22697701 127.88578705 295.23828125 129.234375 C295.246353 130.14576233 295.25442474 131.05714966 295.26274109 131.99615479 C295.2765714 133.92612817 295.28729827 135.85612591 295.29516602 137.78613281 C295.31235429 140.72508644 295.35624668 143.66290772 295.40039062 146.6015625 C295.41052024 148.47915842 295.4190355 150.35676388 295.42578125 152.234375 C295.44328934 153.10753357 295.46079742 153.98069214 295.47883606 154.88031006 C295.45557656 161.48440733 293.96227668 165.68922018 289.47265625 170.70703125 C284.86166931 174.32173847 281.03839534 176.25153804 275.15245342 176.24609566 C274.19849798 176.25007775 273.24454254 176.25405985 272.26167935 176.25816262 C271.22179657 176.25233693 270.18191379 176.24651125 269.11051941 176.24050903 C267.9996046 176.24221788 266.88868978 176.24392673 265.74411088 176.24568737 C262.01448201 176.24898665 258.28503228 176.23797115 254.55541992 176.22705078 C251.8847615 176.22648676 249.21411411 176.22671494 246.54345703 176.22793579 C240.7900373 176.22898426 235.03666294 176.22271159 229.28325462 176.21146011 C220.96480867 176.19520299 212.64638465 176.18999689 204.32792453 176.18748413 C190.83164102 176.18310736 177.3353817 176.16979875 163.83911133 176.15087891 C150.72908652 176.13251964 137.61906827 176.11836336 124.5090332 176.10986328 C123.70087102 176.10933783 122.89270883 176.10881239 122.06005689 176.10827102 C118.00572679 176.10566093 113.95139665 176.10313352 109.89706647 176.10064721 C76.26469345 176.07991528 42.63234969 176.04469024 9 176 C9.00999275 177.70222717 9.00999275 177.70222717 9.02018738 179.43884277 C9.08108456 190.1496736 9.12601399 200.86046915 9.15543652 211.57143402 C9.17107159 217.07764418 9.19227058 222.58371422 9.22631836 228.08984375 C9.25898857 233.4066556 9.27686925 238.72333292 9.28463173 244.04023743 C9.29016147 246.06555803 9.30095969 248.09087153 9.31719017 250.11613464 C9.33906616 252.95974459 9.34196266 255.8028034 9.34057617 258.64648438 C9.351362 259.47799011 9.36214783 260.30949585 9.3732605 261.16619873 C9.33988885 267.5192805 8.30858964 273.17456194 4.16796875 278.2421875 C-1.9866559 283.31641453 -6.80003261 285.71929538 -15 285 C-20.57272401 282.96070607 -25.03363962 280.1045337 -29.8125 276.625 C-30.91392334 275.83488525 -30.91392334 275.83488525 -32.03759766 275.02880859 C-33.58567022 273.91675732 -35.13153751 272.80163032 -36.67529297 271.68359375 C-38.92613624 270.05349343 -41.18281796 268.43184633 -43.44140625 266.8125 C-51.97349462 260.68491782 -60.44273558 254.47447409 -68.8918457 248.2331543 C-77.21476786 242.09083604 -85.60423085 236.04215888 -94 230 C-104.00550398 222.79936792 -113.97688478 215.55749214 -123.89208984 208.23291016 C-132.21502749 202.09080366 -140.60432215 196.04209317 -149 190 C-158.38298426 183.24737488 -167.74944048 176.47388943 -177.0625 169.625 C-177.82361084 169.06627197 -178.58472168 168.50754395 -179.36889648 167.93188477 C-183.22986482 165.08595904 -187.06553436 162.20873253 -190.87109375 159.2890625 C-191.59095459 158.73686035 -192.31081543 158.1846582 -193.05249023 157.61572266 C-196.68416614 154.60275648 -199.48647141 151.54058577 -201 147 C-201.14510887 145.06614527 -201.22073101 143.1265704 -201.25 141.1875 C-201.28867188 139.66189453 -201.28867188 139.66189453 -201.328125 138.10546875 C-200.50010479 130.26884895 -195.44274369 126.01858658 -189.65478516 121.29345703 C-185.11931655 117.74832385 -180.35430421 114.51277697 -175.625 111.234375 C-170.87129363 107.9318426 -166.21211801 104.50944986 -161.5625 101.0625 C-151.69171957 93.75623622 -141.73809424 86.56885188 -131.77050781 79.39550781 C-123.31406964 73.3076125 -114.88111091 67.19131259 -106.5 61 C-96.64592179 53.72057378 -86.71425666 46.55169676 -76.77050781 39.39550781 C-68.31406641 33.30761017 -59.88127498 27.19109408 -51.5 21 C-45.06018942 16.24514347 -38.60650954 11.51040004 -32.125 6.8125 C-31.38185547 6.27173828 -30.63871094 5.73097656 -29.87304688 5.17382812 C-20.4299115 -1.65348028 -11.24912967 -6.63919222 0 0 Z M-21.3125 12.1875 C-22.54390361 13.11376965 -23.7756936 14.03952579 -25.0078125 14.96484375 C-25.97895996 15.70710205 -25.97895996 15.70710205 -26.96972656 16.46435547 C-29.75842592 18.57365308 -32.59948402 20.60615039 -35.44213867 22.6418457 C-43.3115297 28.27799648 -51.10568382 34.01512379 -58.89111328 39.76635742 C-67.95106021 46.45240175 -77.09036112 53.02736019 -86.22949219 59.60449219 C-94.68593036 65.6923875 -103.11888909 71.80868741 -111.5 78 C-121.35407821 85.27942622 -131.28574334 92.44830324 -141.22949219 99.60449219 C-152.16207713 107.47499645 -163.04563445 115.40810112 -173.87011719 123.42675781 C-175.82745978 124.87255282 -177.79125354 126.30896868 -179.7578125 127.7421875 C-180.83866237 128.53629407 -181.91940129 129.33055169 -183 130.125 C-183.9075 130.78757812 -184.815 131.45015625 -185.75 132.1328125 C-188.94591462 134.78497776 -190.78157294 136.74404442 -191.5 140.875 C-190.61338096 146.41636902 -186.57349378 149.71752988 -182.2421875 152.9375 C-180.79187003 153.96600733 -179.33581626 154.98645969 -177.875 156 C-176.26230555 157.1409167 -174.65035081 158.28287955 -173.0390625 159.42578125 C-172.20922852 160.01182129 -171.37939453 160.59786133 -170.52441406 161.20166016 C-166.39391834 164.14413902 -162.32392218 167.16744162 -158.25 170.1875 C-151.73214676 175.0050437 -145.17549745 179.76024339 -138.5703125 184.45703125 C-127.33484157 192.44845775 -116.19855572 200.57422395 -105.10888672 208.76635742 C-96.7856412 214.90873208 -88.39600805 220.95766919 -80 227 C-70.79940446 233.62136595 -61.61764176 240.26467975 -52.5 247 C-44.69666369 252.76384619 -36.86488344 258.48570223 -28.9765625 264.1328125 C-26.58661248 265.84506591 -24.23644075 267.58276688 -21.8984375 269.3671875 C-18.18477204 272.16085124 -15.81080943 273.85378846 -11.1875 274.6875 C-7.46799153 273.88525307 -5.67431669 272.67431669 -3 270 C-1.26888107 266.53776214 -1.82797474 262.52934576 -1.81054688 258.71679688 C-1.80225357 257.75411392 -1.79396027 256.79143097 -1.78541565 255.79957581 C-1.76799142 253.70482545 -1.75283114 251.61005534 -1.73963928 249.51527405 C-1.71865923 246.20442542 -1.69163311 242.89367613 -1.66296387 239.58288574 C-1.60319828 232.55529504 -1.55106632 225.5276586 -1.5 218.5 C-1.44084544 210.35925247 -1.3786134 202.21855405 -1.30812073 194.07789612 C-1.28147143 190.80841638 -1.26070208 187.5389319 -1.2401123 184.26940918 C-1.22351444 182.27400474 -1.20664306 180.27860255 -1.18945312 178.28320312 C-1.1831765 176.91011742 -1.1831765 176.91011742 -1.17677307 175.5092926 C-1.11384346 169.22768692 -1.11384346 169.22768692 0 167 C0.58384527 166.99940291 1.16769055 166.99880582 1.7692281 166.99819064 C36.36557763 166.96230389 70.96182944 166.90567604 105.55809689 166.82207905 C109.71125695 166.81206148 113.8644174 166.80221737 118.01757812 166.79248047 C118.84440455 166.7905391 119.67123098 166.78859772 120.52311276 166.78659752 C133.91446491 166.75556861 147.30579991 166.73859439 160.69718124 166.72680578 C174.43594993 166.71439883 188.17462859 166.68690776 201.91334045 166.64538693 C210.39224356 166.62023843 218.87099738 166.6068837 227.34993832 166.60857043 C233.162704 166.60860016 238.97531751 166.59399031 244.7880239 166.56783572 C248.14277852 166.55317417 251.49695819 166.54716788 254.85177803 166.55419731 C258.48901494 166.56080466 262.12533694 166.54299306 265.76248169 166.51898193 C266.82279732 166.52674235 267.88311295 166.53450277 268.97555935 166.54249835 C274.96244564 166.47233851 278.43243843 165.98309335 283 162 C285.69398256 158.50209729 285.32299135 154.37082106 285.3359375 150.12890625 C285.3425943 149.36956284 285.3492511 148.61021942 285.35610962 147.8278656 C285.36621487 146.22503067 285.3709273 144.62215386 285.37060547 143.01928711 C285.37497943 140.57399899 285.41131988 138.13051596 285.44921875 135.68554688 C285.45508736 134.12500615 285.45905646 132.56445688 285.4609375 131.00390625 C285.48249405 129.9130648 285.48249405 129.9130648 285.50448608 128.80018616 C285.47271352 125.25057697 285.10318861 123.16679279 283.22119141 120.12475586 C279.70531914 116.76152918 277.02339607 115.7514197 272.18179703 115.73828697 C271.20893226 115.73082148 270.23606749 115.72335599 269.23372197 115.71566427 C267.63451 115.71856637 267.63451 115.71856637 266.00299072 115.7215271 C264.86842902 115.7157347 263.73386732 115.7099423 262.56492496 115.70397437 C258.7493095 115.68691961 254.9338146 115.68409312 251.11816406 115.68115234 C248.38853653 115.67296258 245.65892321 115.66177754 242.92930603 115.65071106 C237.04547895 115.62842826 231.1616693 115.61342112 225.27780914 115.60334396 C216.77072315 115.58876356 208.26369784 115.56322855 199.75664744 115.53501268 C185.95480576 115.48953306 172.15295535 115.45292309 158.35107422 115.421875 C144.94318101 115.39169425 131.53530918 115.35734616 118.12744141 115.31738281 C117.30109453 115.31492126 116.47474764 115.31245972 115.62335995 115.30992357 C111.47785454 115.29754907 107.33234939 115.28509251 103.18684435 115.27259517 C68.79125873 115.16900985 34.39564881 115.07981238 0 115 C-1.13421942 112.73156117 -1.12247101 111.51383944 -1.11784363 108.99674988 C-1.11952042 107.74134148 -1.11952042 107.74134148 -1.12123108 106.46057129 C-1.11572487 105.08052917 -1.11572487 105.08052917 -1.11010742 103.67260742 C-1.11065021 101.66676329 -1.11123722 99.66091918 -1.11186218 97.65507507 C-1.11043402 96.58808569 -1.10900585 95.52109631 -1.10753441 94.42177391 C-1.10402543 88.78829503 -1.12980273 83.15491737 -1.15039062 77.52148438 C-1.17474433 70.34488582 -1.19041818 63.16857747 -1.17504883 55.99194336 C-1.16340363 50.19925387 -1.1807416 44.40728652 -1.21749306 38.61470985 C-1.22612277 36.40552638 -1.22400648 34.19627403 -1.210989 31.98711205 C-1.19413585 28.89579413 -1.21424911 25.80675992 -1.24291992 22.71557617 C-1.22912796 21.80162079 -1.215336 20.88766541 -1.2011261 19.9460144 C-1.23893736 15.32569154 -1.23893736 15.32569154 -3.26380348 11.31086159 C-5.95640284 8.93427314 -7.93229174 8.01117072 -11.48046875 7.42578125 C-15.61044492 8.09959534 -18.11149253 9.65573764 -21.3125 12.1875 Z " fill="#020202" transform="translate(209,115)"/>
</svg>
