<?xml version="1.0" encoding="UTF-8"?>
<svg version="1.1" xmlns="http://www.w3.org/2000/svg" width="606" height="489">
<path d="M0 0 C199.98 0 399.96 0 606 0 C606 161.37 606 322.74 606 489 C406.02 489 206.04 489 0 489 C0 327.63 0 166.26 0 0 Z " fill="#331249" transform="translate(0,0)"/>
<path d="M0 0 C28.71 0 57.42 0 87 0 C87 44.22 87 88.44 87 134 C80.07 134 73.14 134 66 134 C66 136.64 66 139.28 66 142 C65.67 142 65.34 142 65 142 C64.91363281 141.17757812 64.82726562 140.35515625 64.73828125 139.5078125 C63.03532766 125.97792438 58.39696251 117.88696493 48 109 C45.38925989 107.12917979 42.81334427 105.56296904 40 104 C40.66 103.67 41.32 103.34 42 103 C42 69.34 42 35.68 42 1 C28.14 1 14.28 1 0 1 C0 0.67 0 0.34 0 0 Z " fill="#331249" transform="translate(222,0)"/>
<path d="M0 0 C-0.3609375 0.93199219 -0.721875 1.86398438 -1.09375 2.82421875 C-8.11698328 21.72446433 -3.27426159 37.89012724 2.1875 56.625 C4.97360521 66.30304967 6.19644446 75.11387912 6.3125 85.1875 C6.33022461 86.12658203 6.34794922 87.06566406 6.36621094 88.03320312 C6.35037673 102.94903076 -2.66640576 115.61715762 -12.79296875 126.00390625 C-18.6329837 131.66066104 -25.34391749 136.36031367 -32 141 C-32.57540527 141.40605469 -33.15081055 141.81210938 -33.74365234 142.23046875 C-37.75339912 145 -37.75339912 145 -40 145 C-40 145.66 -40 146.32 -40 147 C-42.31 147.99 -44.62 148.98 -47 150 C-48 149 -48 149 -48.3125 145.9375 C-47.44618732 135.02196025 -38.89191845 127.71149061 -31.375 120.5 C-22.39831786 111.6274557 -15.93137289 100.50655967 -15.75 87.75 C-15.77548338 82.09906015 -16.60511334 78.08913415 -19 73 C-19.27972656 73.73863281 -19.55945313 74.47726563 -19.84765625 75.23828125 C-23.57103791 84.66047214 -28.03805857 94.40296281 -36 101 C-36.66 101 -37.32 101 -38 101 C-38 101.66 -38 102.32 -38 103 C-41.85756507 105.15305957 -44.55129785 106.39253254 -49 106 C-48.37141103 103.04793558 -47.41898723 100.67339296 -45.96875 98.03125 C-45.57042969 97.29519531 -45.17210937 96.55914062 -44.76171875 95.80078125 C-43.92057292 94.26692708 -43.07942708 92.73307292 -42.23828125 91.19921875 C-41.83996094 90.46316406 -41.44164062 89.72710937 -41.03125 88.96875 C-40.66580078 88.30294922 -40.30035156 87.63714844 -39.92382812 86.95117188 C-34.9777058 76.50471056 -38.14065678 63.72556031 -41.22119141 53.23046875 C-43.96342995 43.59842916 -43.87063211 34.33122085 -40 25 C-34.01844869 14.50001066 -25.16916492 6.61335073 -14 2 C-13.01 1.5875 -12.02 1.175 -11 0.75 C-7.19872699 -0.20031825 -3.91222214 -0.13490421 0 0 Z " fill="#D3B1E9" transform="translate(364,99)"/>
<path d="M0 0 C8.90534687 -1.03550545 17.80796429 3.0196446 24.8125 8.3125 C26.22866334 9.51818768 27.62497198 10.74760256 29 12 C30.06541016 12.928125 30.06541016 12.928125 31.15234375 13.875 C37.77674555 19.99362811 42.4259805 27.56345344 43.23828125 36.671875 C43.48097051 46.73709289 41.18883918 55.53301066 38.3828125 65.10546875 C37.86405411 67.67279343 37.8294555 70.13207051 37.8125 72.75 C37.79832031 73.73484375 37.78414063 74.7196875 37.76953125 75.734375 C38.28196239 82.99526369 40.50857164 88.53221478 44.0625 94.75 C48.11705384 101.9405539 48.11705384 101.9405539 49 106 C41.75171553 105.54698222 36.84078518 103.12967859 31.92578125 97.71484375 C26.69441577 90.94894439 20 80.84304317 20 72 C19.34 72 18.68 72 18 72 C15.28021477 82.97627609 14.34590947 94.41305924 19 105 C23.77949633 112.81164992 29.95545426 119.12772031 36.4765625 125.45703125 C40.82306323 129.83717363 46.60625161 135.6845176 47.1953125 142.140625 C47.13020833 144.09375 47.06510417 146.046875 47 148 C28.84070046 145.24859098 12.30277985 126.87893427 1.4765625 113.0546875 C-7.6566361 99.82538771 -7.77503803 82.80676905 -5.01586914 67.50146484 C-4.26788912 63.79099805 -3.4841346 60.19326122 -2.05859375 56.6796875 C-0.49996919 52.73423935 0.49826479 48.66470042 1.5625 44.5625 C1.78357422 43.72912109 2.00464844 42.89574219 2.23242188 42.03710938 C5.76674661 28.5297958 6.82588268 16.00879827 1 3 C0.67 2.01 0.34 1.02 0 0 Z " fill="#D3B2E9" transform="translate(244,99)"/>
<path d="M0 0 C1.875 1.0625 1.875 1.0625 3 3 C3.1875 6.6875 3.1875 6.6875 3 10 C1.02 10.99 1.02 10.99 -1 12 C-0.67 9.03 -0.34 6.06 0 3 C-6.31365992 3.87419907 -10.32668252 5.07972478 -14.69140625 9.84765625 C-17.00151369 13.6472658 -17.06140258 17.64041671 -17 22 C-11.28762819 22.35229317 -11.28762819 22.35229317 -6 20.5 C-2.04400697 18.52200348 0.61926334 18.77341017 5 19 C5 19.99 5 20.98 5 22 C5.66 22 6.32 22 7 22 C7.33 23.98 7.66 25.96 8 28 C11.04386724 28.08226668 13.07175348 27.97608217 16 27 C17.09166275 25.06669397 17.09166275 25.06669397 18 23 C18.66 22.34 19.32 21.68 20 21 C22.5625 21.25 22.5625 21.25 25 22 C25.495 22.99 25.495 22.99 26 24 C28.31 23.67 30.62 23.34 33 23 C33.495 24.98 33.495 24.98 34 27 C34.99 26.34 35.98 25.68 37 25 C37 25.99 37 26.98 37 28 C37.66 28 38.32 28 39 28 C39.33 26.02 39.66 24.04 40 22 C40.99 22 41.98 22 43 22 C43.495 24.475 43.495 24.475 44 27 C47.93075644 26.42547254 47.93075644 26.42547254 51 24 C54.125 24.375 54.125 24.375 57 25 C57 24.34 57 23.68 57 23 C57.66 23 58.32 23 59 23 C59.495 24.98 59.495 24.98 60 27 C60.99 25.515 60.99 25.515 62 24 C62.66 24 63.32 24 64 24 C64.495 24.99 64.495 24.99 65 26 C65.33 24.68 65.66 23.36 66 22 C66.99 22 67.98 22 69 22 C69.495 24.475 69.495 24.475 70 27 C73.93075644 26.42547254 73.93075644 26.42547254 77 24 C77.64767793 21.42938689 77.64767793 21.42938689 78 19 C78.99 19 79.98 19 81 19 C80.67 22.3 80.34 25.6 80 29 C84.92448733 27.8412971 88.37007256 26.73669001 92 23 C92.87943404 20.36539052 92.87943404 20.36539052 93 18 C91.02 18 89.04 18 87 18 C87 17.67 87 17.34 87 17 C87.928125 16.979375 88.85625 16.95875 89.8125 16.9375 C90.864375 16.628125 91.91625 16.31875 93 16 C94.06902939 13.69747517 95.07175817 11.3627974 96 9 C98.1875 8.0625 98.1875 8.0625 100 8 C99.67 10.64 99.34 13.28 99 16 C101.31 16 103.62 16 106 16 C106 16.33 106 16.66 106 17 C103.94921875 17.22786458 101.8984375 17.45572917 99.84765625 17.68359375 C97.98859771 17.81886614 97.98859771 17.81886614 97 19 C96.92820036 20.51928038 96.91607993 22.04167482 96.9375 23.5625 C96.94652344 24.38878906 96.95554687 25.21507812 96.96484375 26.06640625 C96.97644531 26.70449219 96.98804688 27.34257812 97 28 C100.56871549 28.4078532 101.73691726 28.1957825 104.6875 26 C105.8321875 25.01 105.8321875 25.01 107 24 C107.66 24 108.32 24 109 24 C109.1546875 22.5459375 109.1546875 22.5459375 109.3125 21.0625 C109.94629879 16.51406161 111.44755827 12.30582896 113 8 C114.32 8 115.64 8 117 8 C117.31563182 13.26053037 116.66590937 16.44573816 114 21 C115.32 21.33 116.64 21.66 118 22 C118 24.31 118 26.62 118 29 C118.928125 28.175 119.85625 27.35 120.8125 26.5 C123.625 24 123.625 24 127 24 C127 31.26 127 38.52 127 46 C112.81 46 98.62 46 84 46 C84 41.71 84 37.42 84 33 C83.34 32.67 82.68 32.34 82 32 C82 36.62 82 41.24 82 46 C67.81 46 53.62 46 39 46 C39 41.05 39 36.1 39 31 C36.36 31 33.72 31 31 31 C30.505 29.515 30.505 29.515 30 28 C27.12549017 27.74951364 27.12549017 27.74951364 24 28 C22.37485532 29.45833358 22.37485532 29.45833358 21 31 C19.68 31 18.36 31 17 31 C17 30.34 17 29.68 17 29 C16.46375 29.33 15.9275 29.66 15.375 30 C12.4070908 31.24964598 10.19200721 31.27756584 7 31 C6.34 30.34 5.68 29.68 5 29 C5 27.68 5 26.36 5 25 C2.69 25.33 0.38 25.66 -2 26 C-2.66 28.64 -3.32 31.28 -4 34 C-5.9914056 34.38133299 -7.99279077 34.71325582 -10 35 C-11 34 -11 34 -11.3125 31.625 C-11 29 -11 29 -9.1875 27.25 C-7 26 -7 26 -4 25 C-3.67 24.34 -3.34 23.68 -3 23 C-3.61875 23.33 -4.2375 23.66 -4.875 24 C-9.21091785 25.38749371 -13.47949664 25.52100717 -18 25 C-18.99 24.34 -19.98 23.68 -21 23 C-21.82442683 17.11123691 -20.32030238 12.77232967 -17 8 C-12.11557512 2.86625413 -7.34889938 -0.78179781 0 0 Z " fill="#35134B" transform="translate(227,357)"/>
<path d="M0 0 C6.11090483 -0.09945415 11.97403427 -0.0712828 18 1 C18 1.66 18 2.32 18 3 C19.48693359 2.9071875 19.48693359 2.9071875 21.00390625 2.8125 C25.43294512 2.8125 28.92491043 4.25162927 32.9375 6 C33.62134766 6.28617188 34.30519531 6.57234375 35.00976562 6.8671875 C36.67785269 7.56708417 38.33962483 8.28199993 40 9 C40 9.66 40 10.32 40 11 C40.72574219 11.2475 41.45148438 11.495 42.19921875 11.75 C52.27963348 16.24892987 60.79129852 27.50646458 66 37 C66 37.66 66 38.32 66 39 C42.56287425 39.45508982 42.56287425 39.45508982 32 33 C30.9275 32.608125 29.855 32.21625 28.75 31.8125 C18.69360567 27.59602973 11.3847788 18.4703879 5 10 C4.44957031 9.29101562 3.89914063 8.58203125 3.33203125 7.8515625 C0 3.42752101 0 3.42752101 0 0 Z " fill="#C18FDF" transform="translate(230,242)"/>
<path d="M0 0 C-1.7005403 10.13238596 -12.70710155 20.04626863 -20.59375 25.9375 C-34.47597951 35.19231968 -48.41495068 38.59825829 -65 38 C-59.81042214 24.31189326 -47.34912079 11.0692496 -34 5 C-22.74902979 0.86002123 -11.9462054 -0.80355642 0 0 Z " fill="#C290E0" transform="translate(377,243)"/>
<path d="M0 0 C4.95 0 9.9 0 15 0 C15 0.66 15 1.32 15 2 C14.01 2.495 14.01 2.495 13 3 C12.67 12.24 12.34 21.48 12 31 C21.45741203 29.85637379 21.45741203 29.85637379 26 26 C26.99 26 27.98 26 29 26 C29 27.65 29 29.3 29 31 C31.92898544 30.61652189 31.92898544 30.61652189 35 29 C36.72719418 26.40996231 37.71001239 23.60971871 38.75 20.6875 C39.04003906 19.92759766 39.33007812 19.16769531 39.62890625 18.38476562 C40.18704449 16.91805989 40.73631096 15.44793828 41.27539062 13.97412109 C42.13591855 11.62970438 43.0582386 9.3128552 44 7 C44.66 7 45.32 7 46 7 C46.33 4.69 46.66 2.38 47 0 C48.76171875 0.046875 48.76171875 0.046875 51 1 C52.45748969 3.41612724 53.64922795 5.69741033 54.8125 8.25 C55.50751275 9.70519321 56.20415506 11.15960915 56.90234375 12.61328125 C57.25022949 13.34627441 57.59811523 14.07926758 57.95654297 14.83447266 C59.51981886 18.07880049 61.18437198 21.25742516 62.875 24.4375 C63.70644531 26.01337891 63.70644531 26.01337891 64.5546875 27.62109375 C65.77856086 30.11102928 65.77856086 30.11102928 68 31 C68 31.66 68 32.32 68 33 C63.05 33 58.1 33 53 33 C53.66 32.67 54.32 32.34 55 32 C53.78955868 27.39257135 53.78955868 27.39257135 52 23 C48.37 23 44.74 23 41 23 C40.34 25.64 39.68 28.28 39 31 C39.99 31 40.98 31 42 31 C42 31.99 42 32.98 42 34 C28.14 34 14.28 34 0 34 C0 33.01 0 32.02 0 31 C0.99 30.67 1.98 30.34 3 30 C3.0867562 25.70845978 3.1403089 21.41714332 3.1875 17.125 C3.21263672 15.90167969 3.23777344 14.67835938 3.26367188 13.41796875 C3.27817383 11.66806641 3.27817383 11.66806641 3.29296875 9.8828125 C3.31653442 8.26463623 3.31653442 8.26463623 3.34057617 6.61376953 C3.22818604 5.75122559 3.1157959 4.88868164 3 4 C2.01 3.34 1.02 2.68 0 2 C0 1.34 0 0.68 0 0 Z " fill="#EAE7ED" transform="translate(368,313)"/>
<path d="M0 0 C0 0.66 0 1.32 0 2 C0.5775 2.20625 1.155 2.4125 1.75 2.625 C4.96709455 4.59100222 6.75773674 6.47602871 8 10 C8.73743854 16.22398125 9.06736902 21.90206778 6.1875 27.5625 C5.1046875 28.7690625 5.1046875 28.7690625 4 30 C3.608125 30.94875 3.21625 31.8975 2.8125 32.875 C1 35 1 35 -1.046875 35.37890625 C-5.25865181 35.48213607 -8.33717936 35.20698495 -12 33 C-17.26177301 27.42871093 -18.42925933 21.9226073 -18.25 14.4609375 C-17.74746932 9.51415115 -15.74663432 6.06338827 -12.9375 2.0625 C-8.71416212 -0.90282234 -5.00450169 -0.43728656 0 0 Z " fill="#D2AFE8" transform="translate(309,161)"/>
<path d="M0 0 C4.95 0 9.9 0 15 0 C14.67 0.99 14.34 1.98 14 3 C13.34 3 12.68 3 12 3 C12 7.29 12 11.58 12 16 C15.96 16 19.92 16 24 16 C23.85890014 13.89551062 23.71195825 11.7914123 23.5625 9.6875 C23.48128906 8.51574219 23.40007812 7.34398437 23.31640625 6.13671875 C23.1132629 2.97409042 23.1132629 2.97409042 22 0 C26.62 0 31.24 0 36 0 C36 0.66 36 1.32 36 2 C35.34 2.33 34.68 2.66 34 3 C33.95060338 6.95096978 33.91428245 10.9018203 33.89013672 14.85302734 C33.87511893 16.8591136 33.84971019 18.86511324 33.82421875 20.87109375 C33.81777344 22.12792969 33.81132812 23.38476562 33.8046875 24.6796875 C33.79421387 25.84226074 33.78374023 27.00483398 33.77294922 28.20263672 C33.70738003 31.13910279 33.70738003 31.13910279 36 33 C31.38 33 26.76 33 22 33 C22.33 32.34 22.66 31.68 23 31 C23.22858114 28.9625237 23.41024278 26.91959697 23.5625 24.875 C23.706875 22.93625 23.85125 20.9975 24 19 C20.04 19 16.08 19 12 19 C12.66 23.62 13.32 28.24 14 33 C9.38 33 4.76 33 0 33 C0 32.34 0 31.68 0 31 C0.66 30.67 1.32 30.34 2 30 C2 21.09 2 12.18 2 3 C1.34 2.67 0.68 2.34 0 2 C0 1.34 0 0.68 0 0 Z " fill="#E8E4EA" transform="translate(213,313)"/>
<path d="M0 0 C4.62 0 9.24 0 14 0 C14 0.66 14 1.32 14 2 C13.01 2.495 13.01 2.495 12 3 C11.53045739 6.04581269 11.53045739 6.04581269 11.375 9.5625 C11.25125 11.686875 11.1275 13.81125 11 16 C15.29 16 19.58 16 24 16 C23.87625 13.875625 23.7525 11.75125 23.625 9.5625 C23.55539062 8.36753906 23.48578125 7.17257812 23.4140625 5.94140625 C23.27742188 4.97074219 23.14078125 4.00007813 23 3 C22.34 2.67 21.68 2.34 21 2 C21 1.34 21 0.68 21 0 C25.95 0 30.9 0 36 0 C35.67 0.99 35.34 1.98 35 3 C34.01 3 33.02 3 32 3 C32.10964677 7.43801996 32.24033154 11.87517436 32.375 16.3125 C32.4059375 17.57513672 32.436875 18.83777344 32.46875 20.13867188 C32.52675781 21.95141602 32.52675781 21.95141602 32.5859375 23.80078125 C32.6173584 24.91622314 32.6487793 26.03166504 32.68115234 27.1809082 C32.805249 30.20368786 32.805249 30.20368786 35 33 C30.38 33 25.76 33 21 33 C21 32.34 21 31.68 21 31 C21.66 30.67 22.32 30.34 23 30 C23.46898963 27.1840151 23.46898963 27.1840151 23.625 23.9375 C23.74875 21.978125 23.8725 20.01875 24 18 C19.71 18 15.42 18 11 18 C11.12375 19.918125 11.2475 21.83625 11.375 23.8125 C11.44460938 24.89144531 11.51421875 25.97039062 11.5859375 27.08203125 C11.81195733 30.18626186 11.81195733 30.18626186 14 33 C9.38 33 4.76 33 0 33 C0.66 32.01 1.32 31.02 2 30 C2.27670494 27.09069658 2.27670494 27.09069658 2.1953125 23.80078125 C2.18886719 22.59228516 2.18242187 21.38378906 2.17578125 20.13867188 C2.15902344 18.87603516 2.14226562 17.61339844 2.125 16.3125 C2.11597656 15.03826172 2.10695313 13.76402344 2.09765625 12.45117188 C2.07405641 9.30059373 2.04113194 6.15039017 2 3 C1.34 2.67 0.68 2.34 0 2 C0 1.34 0 0.68 0 0 Z " fill="#E5E1E8" transform="translate(288,313)"/>
<path d="M0 0 C1.875 1.0625 1.875 1.0625 3 3 C3.1875 6.6875 3.1875 6.6875 3 10 C1.02 10.99 1.02 10.99 -1 12 C-0.67 9.03 -0.34 6.06 0 3 C-6.31365992 3.87419907 -10.32668252 5.07972478 -14.69140625 9.84765625 C-17.00151369 13.6472658 -17.06140258 17.64041671 -17 22 C-11.28762819 22.35229317 -11.28762819 22.35229317 -6 20.5 C-2.04400697 18.52200348 0.61926334 18.77341017 5 19 C5 19.99 5 20.98 5 22 C5.66 22 6.32 22 7 22 C7.33 23.98 7.66 25.96 8 28 C11.04386724 28.08226668 13.07175348 27.97608217 16 27 C17.09166275 25.06669397 17.09166275 25.06669397 18 23 C18.66 22.34 19.32 21.68 20 21 C22.5625 21.25 22.5625 21.25 25 22 C25.495 22.99 25.495 22.99 26 24 C28.31 23.67 30.62 23.34 33 23 C33.495 24.98 33.495 24.98 34 27 C34.99 26.34 35.98 25.68 37 25 C37 25.99 37 26.98 37 28 C37.66 28 38.32 28 39 28 C39.33 26.02 39.66 24.04 40 22 C40.99 22 41.98 22 43 22 C43.495 24.475 43.495 24.475 44 27 C47.34373475 26.44271087 50.03312999 25.64826111 53 24 C51.84826645 26.46800047 50.95216435 28.04783565 49 30 C47.15234375 30.16015625 47.15234375 30.16015625 44.9375 30.0625 C40.19834761 29.94709856 35.70088043 30.4030628 31 31 C30.505 29.515 30.505 29.515 30 28 C27.12549017 27.74951364 27.12549017 27.74951364 24 28 C22.37485532 29.45833358 22.37485532 29.45833358 21 31 C19.68 31 18.36 31 17 31 C17 30.34 17 29.68 17 29 C16.46375 29.33 15.9275 29.66 15.375 30 C12.4070908 31.24964598 10.19200721 31.27756584 7 31 C6.34 30.34 5.68 29.68 5 29 C5 27.68 5 26.36 5 25 C2.69 25.33 0.38 25.66 -2 26 C-2.66 28.64 -3.32 31.28 -4 34 C-5.9914056 34.38133299 -7.99279077 34.71325582 -10 35 C-11 34 -11 34 -11.3125 31.625 C-11 29 -11 29 -9.1875 27.25 C-7 26 -7 26 -4 25 C-3.67 24.34 -3.34 23.68 -3 23 C-3.61875 23.33 -4.2375 23.66 -4.875 24 C-9.21091785 25.38749371 -13.47949664 25.52100717 -18 25 C-18.99 24.34 -19.98 23.68 -21 23 C-21.82442683 17.11123691 -20.32030238 12.77232967 -17 8 C-12.11557512 2.86625413 -7.34889938 -0.78179781 0 0 Z " fill="#9A77AF" transform="translate(227,357)"/>
<path d="M0 0 C0.99 0 1.98 0 3 0 C3.41362793 0.84296631 3.82725586 1.68593262 4.25341797 2.55444336 C5.78800925 5.67469277 7.32793291 8.79218713 8.87158203 11.90795898 C9.53911356 13.25812677 10.20448906 14.60936272 10.86767578 15.96166992 C11.82021987 17.90306584 12.78040165 19.8405131 13.7421875 21.77734375 C14.3182373 22.94515381 14.89428711 24.11296387 15.48779297 25.31616211 C16.72372321 28.09507496 16.72372321 28.09507496 19 29 C19 29.66 19 30.32 19 31 C19.66 31 20.32 31 21 31 C21 31.66 21 32.32 21 33 C15.72 33 10.44 33 5 33 C6.485 32.505 6.485 32.505 8 32 C7.34 29.03 6.68 26.06 6 23 C1.71 22.67 -2.58 22.34 -7 22 C-7.33 23.65 -7.66 25.3 -8 27 C-8.32483418 28.33542939 -8.6550855 29.66961551 -9 31 C-8.01 31 -7.02 31 -6 31 C-6 31.99 -6 32.98 -6 34 C-9.96 34 -13.92 34 -18 34 C-17 31 -17 31 -14.61621094 29.69775391 C-11.22617802 27.49783893 -10.5856338 25.57784704 -9.140625 21.8359375 C-8.66496094 20.63195312 -8.18929688 19.42796875 -7.69921875 18.1875 C-7.21553845 16.91689771 -6.73247263 15.64606135 -6.25 14.375 C-5.28078931 11.88093991 -4.30387875 9.38995118 -3.328125 6.8984375 C-2.69245605 5.23820557 -2.69245605 5.23820557 -2.04394531 3.54443359 C-1 1 -1 1 0 0 Z " fill="#EDEBEF" transform="translate(344,313)"/>
<path d="M0 0 C1.8125 0.0625 1.8125 0.0625 4 1 C4.74860797 2.64441414 5.48733447 4.29439865 6.16333008 5.9699707 C7.5838465 9.41659867 9.27233313 12.72899452 10.9375 16.0625 C11.27201172 16.74376953 11.60652344 17.42503906 11.95117188 18.12695312 C15.30637296 25.62705811 15.30637296 25.62705811 21 31 C21 31.66 21 32.32 21 33 C16.05 33 11.1 33 6 33 C6 32.34 6 31.68 6 31 C6.66 31 7.32 31 8 31 C7.34 28.03 6.68 25.06 6 22 C2.04 22.33 -1.92 22.66 -6 23 C-6.66 25.64 -7.32 28.28 -8 31 C-7.01 31 -6.02 31 -5 31 C-5 31.99 -5 32.98 -5 34 C-8.96 34 -12.92 34 -17 34 C-17 33.01 -17 32.02 -17 31 C-15.84177734 30.65775391 -15.84177734 30.65775391 -14.66015625 30.30859375 C-11.33522174 28.67297986 -10.83036695 27.44517687 -9.4375 24.0625 C-9.02628906 23.07894531 -8.61507812 22.09539062 -8.19140625 21.08203125 C-6.70977366 17.24921775 -5.28169105 13.4022913 -3.9140625 9.52734375 C-2.74156271 6.28543193 -1.39978951 3.14952641 0 0 Z " fill="#EEEBF0" transform="translate(188,313)"/>
<path d="M0 0 C0.99 0 1.98 0 3 0 C2.67 2.64 2.34 5.28 2 8 C4.31 8 6.62 8 9 8 C9 8.33 9 8.66 9 9 C6.94921875 9.22786458 4.8984375 9.45572917 2.84765625 9.68359375 C0.98859771 9.81886614 0.98859771 9.81886614 0 11 C-0.07179964 12.51928038 -0.08392007 14.04167482 -0.0625 15.5625 C-0.05347656 16.38878906 -0.04445313 17.21507812 -0.03515625 18.06640625 C-0.02355469 18.70449219 -0.01195312 19.34257812 0 20 C3.56871549 20.4078532 4.73691726 20.1957825 7.6875 18 C8.450625 17.34 9.21375 16.68 10 16 C10.66 16 11.32 16 12 16 C12.103125 15.030625 12.20625 14.06125 12.3125 13.0625 C12.94629879 8.51406161 14.44755827 4.30582896 16 0 C17.32 0 18.64 0 20 0 C20.31563182 5.26053037 19.66590937 8.44573816 17 13 C18.32 13.33 19.64 13.66 21 14 C21 16.31 21 18.62 21 21 C21.94875 20.175 22.8975 19.35 23.875 18.5 C26.75 16 26.75 16 29 16 C27.61725283 19.34163899 26.20955991 21.25766748 23 23 C20.25 22.6875 20.25 22.6875 18 22 C18 20.35 18 18.7 18 17 C15.12579877 19.71604715 15.12579877 19.71604715 13 23 C12.01 23 11.02 23 10 23 C10 22.34 10 21.68 10 21 C9.29875 21.33 8.5975 21.66 7.875 22 C4.65839846 23.11881793 2.38169345 23.36757538 -1 23 C-2.875 21.5 -2.875 21.5 -4 20 C-7.54518884 21.39759905 -7.54518884 21.39759905 -11 23 C-16.36228571 23.34971429 -16.36228571 23.34971429 -18.9375 21.9375 C-22.03339943 20.53027299 -24.69788163 21.51969187 -28 22 C-28.99 21.34 -29.98 20.68 -31 20 C-31 20.66 -31 21.32 -31 22 C-32.47831221 22.19412181 -33.95769316 22.38012131 -35.4375 22.5625 C-36.26121094 22.66691406 -37.08492188 22.77132813 -37.93359375 22.87890625 C-38.61550781 22.91886719 -39.29742187 22.95882813 -40 23 C-40.33 22.67 -40.66 22.34 -41 22 C-40.71269945 19.66055264 -40.38063221 17.3260857 -40 15 C-39.34 15 -38.68 15 -38 15 C-37.67 16.32 -37.34 17.64 -37 19 C-36.34 18.01 -35.68 17.02 -35 16 C-34.34 16 -33.68 16 -33 16 C-32.67 16.66 -32.34 17.32 -32 18 C-31.67 16.68 -31.34 15.36 -31 14 C-30.01 14 -29.02 14 -28 14 C-27.67 15.65 -27.34 17.3 -27 19 C-23.06924356 18.42547254 -23.06924356 18.42547254 -20 16 C-19.35232207 13.42938689 -19.35232207 13.42938689 -19 11 C-18.01 11 -17.02 11 -16 11 C-16.33 14.3 -16.66 17.6 -17 21 C-12.07551267 19.8412971 -8.62992744 18.73669001 -5 15 C-4.12056596 12.36539052 -4.12056596 12.36539052 -4 10 C-5.98 10 -7.96 10 -10 10 C-10 9.67 -10 9.34 -10 9 C-8.6078125 8.9690625 -8.6078125 8.9690625 -7.1875 8.9375 C-6.135625 8.628125 -5.08375 8.31875 -4 8 C-2.11529559 4.57508141 -2.11529559 4.57508141 -1 1 C-0.67 0.67 -0.34 0.34 0 0 Z " fill="#9673AB" transform="translate(324,365)"/>
<path d="M0 0 C2.70744644 1.0616528 4.60815686 2.29913377 7 4 C6.67 5.32 6.34 6.64 6 8 C5.566875 7.525625 5.13375 7.05125 4.6875 6.5625 C1.56658081 3.67276001 -1.94441153 3.66185364 -6.0625 3.71484375 C-8.2296398 3.88246426 -8.2296398 3.88246426 -10.4375 5.75 C-13.9468032 10.8033966 -13.56331134 17.07298499 -13 23 C-12.20995939 26.17022663 -11.27023265 28.61593953 -9 31 C-6.26001487 32.19552587 -3.952932 32.37132678 -1 32 C1.78508316 30.86250805 1.78508316 30.86250805 4 29 C4.763125 28.443125 5.52625 27.88625 6.3125 27.3125 C6.869375 26.879375 7.42625 26.44625 8 26 C8.375 28.25 8.375 28.25 8 31 C4.22048993 34.99548208 0.92724368 35.32012564 -4.5 35.5 C-9.82352211 35.31851629 -13.02193811 34.77915879 -17 31 C-21.86319228 25.77706473 -23.31884706 22.60614129 -23.20703125 15.53125 C-22.76513774 10.12847651 -20.36140317 7.14543966 -16.4375 3.6875 C-11.21773826 -0.58933704 -6.65681364 -0.70408606 0 0 Z " fill="#EDEAEF" transform="translate(275,312)"/>
<path d="M0 0 C4.95 0 9.9 0 15 0 C15 0.66 15 1.32 15 2 C14.01 2.495 14.01 2.495 13 3 C12.67 12.9 12.34 22.8 12 33 C8.7 33 5.4 33 2 33 C2.33 32.01 2.66 31.02 3 30 C3.26003291 25.64996464 3.2313705 21.29447393 3.25 16.9375 C3.270625 15.72771484 3.29125 14.51792969 3.3125 13.27148438 C3.32023437 11.54188477 3.32023437 11.54188477 3.328125 9.77734375 C3.3374707 8.71765381 3.34681641 7.65796387 3.35644531 6.56616211 C3.23881836 5.71932861 3.12119141 4.87249512 3 4 C2.01 3.34 1.02 2.68 0 2 C0 1.34 0 0.68 0 0 Z " fill="#EBE7ED" transform="translate(368,313)"/>
<path d="M0 0 C0.495 1.485 0.495 1.485 1 3 C1.66 3 2.32 3 3 3 C3.83559799 4.81145706 4.66842049 6.62419467 5.5 8.4375 C5.9640625 9.44683594 6.428125 10.45617187 6.90625 11.49609375 C8 14 8 14 8 15 C4.37 15.33 0.74 15.66 -3 16 C-3.66 18.64 -4.32 21.28 -5 24 C-4.01 24 -3.02 24 -2 24 C-2 24.99 -2 25.98 -2 27 C-15.86 27 -29.72 27 -44 27 C-44 26.01 -44 25.02 -44 24 C-43.34 24 -42.68 24 -42 24 C-42 24.66 -42 25.32 -42 26 C-38.7 26 -35.4 26 -32 26 C-32 25.34 -32 24.68 -32 24 C-31.32453125 23.89042969 -30.6490625 23.78085937 -29.953125 23.66796875 C-29.06109375 23.50941406 -28.1690625 23.35085938 -27.25 23.1875 C-26.36828125 23.03667969 -25.4865625 22.88585937 -24.578125 22.73046875 C-21.79551659 21.94206303 -20.26925654 20.74008117 -18 19 C-17.01 19 -16.02 19 -15 19 C-15 20.65 -15 22.3 -15 24 C-12.07101456 23.61652189 -12.07101456 23.61652189 -9 22 C-7.27280582 19.40996231 -6.28998761 16.60971871 -5.25 13.6875 C-4.81494141 12.54764648 -4.81494141 12.54764648 -4.37109375 11.38476562 C-3.81295551 9.91805989 -3.26368904 8.44793828 -2.72460938 6.97412109 C-1.86408145 4.62970438 -0.9417614 2.3128552 0 0 Z " fill="#BCB1C3" transform="translate(412,320)"/>
<path d="M0 0 C4.62 0 9.24 0 14 0 C14 0.66 14 1.32 14 2 C13.01 2.66 12.02 3.32 11 4 C10.53353441 6.54824826 10.53353441 6.54824826 10.6015625 9.5234375 C10.59769531 10.626875 10.59382813 11.7303125 10.58984375 12.8671875 C10.60144531 14.02476562 10.61304688 15.18234375 10.625 16.375 C10.61339844 17.52484375 10.60179687 18.6746875 10.58984375 19.859375 C10.59371094 20.96539062 10.59757812 22.07140625 10.6015625 23.2109375 C10.60494629 24.22462402 10.60833008 25.23831055 10.61181641 26.28271484 C10.84336388 29.45897491 10.84336388 29.45897491 14 33 C9.38 33 4.76 33 0 33 C0.66 32.01 1.32 31.02 2 30 C2.27670494 27.09069658 2.27670494 27.09069658 2.1953125 23.80078125 C2.18886719 22.59228516 2.18242187 21.38378906 2.17578125 20.13867188 C2.15902344 18.87603516 2.14226562 17.61339844 2.125 16.3125 C2.11597656 15.03826172 2.10695313 13.76402344 2.09765625 12.45117188 C2.07405641 9.30059373 2.04113194 6.15039017 2 3 C1.34 2.67 0.68 2.34 0 2 C0 1.34 0 0.68 0 0 Z " fill="#F3F1F4" transform="translate(288,313)"/>
<path d="M0 0 C2.31 0 4.62 0 7 0 C7.01458252 0.79696289 7.02916504 1.59392578 7.04418945 2.41503906 C7.11867475 6.02718124 7.21533512 9.63839974 7.3125 13.25 C7.33505859 14.50425781 7.35761719 15.75851562 7.38085938 17.05078125 C7.41630859 18.25605469 7.45175781 19.46132813 7.48828125 20.703125 C7.51446533 21.81333008 7.54064941 22.92353516 7.56762695 24.06738281 C7.82511732 27.42917854 7.82511732 27.42917854 11 31 C6.38 31 1.76 31 -3 31 C-2.01 29.515 -2.01 29.515 -1 28 C-0.63072954 24.9957293 -0.63072954 24.9957293 -0.5859375 21.58203125 C-0.54726562 20.32841797 -0.50859375 19.07480469 -0.46875 17.78320312 C-0.4378125 16.47287109 -0.406875 15.16253906 -0.375 13.8125 C-0.33680662 12.4771884 -0.29775409 11.14190108 -0.2578125 9.80664062 C-0.16340847 6.53790112 -0.07782983 3.26916936 0 0 Z " fill="#F8F7F9" transform="translate(238,315)"/>
<path d="M0 0 C2 2 2 2 2.08203125 4.06640625 C1.5163375 9.30522226 0.50408378 13.93484104 -1.30078125 18.8828125 C-2.29959393 21.90715034 -2.66370506 24.83882759 -3 28 C2.46614508 28.5439589 2.46614508 28.5439589 7.25 26.4375 C11.33644212 20.74566991 13.80729142 15.23979711 15.75 8.5625 C15.97042969 7.83095703 16.19085938 7.09941406 16.41796875 6.34570312 C16.95301308 4.56609915 17.4776223 2.7833632 18 1 C18.66 1 19.32 1 20 1 C19.00491207 11.74694966 16.37318997 20.79920708 9 29 C4.85639599 31.91347157 2.09826066 32.66088564 -3 32 C-4.9375 30.5 -4.9375 30.5 -6 28 C-6.4499318 21.63173451 -5.27551241 16.91428226 -3 11 C-2.71382813 10.22527344 -2.42765625 9.45054687 -2.1328125 8.65234375 C-1.43339693 6.76392172 -0.71831936 4.88131262 0 3 C-4.455 3.495 -4.455 3.495 -9 4 C-8.67 3.01 -8.34 2.02 -8 1 C-5.23749964 -0.38125018 -3.05268901 -0.19079306 0 0 Z " fill="#8D6AA2" transform="translate(370,359)"/>
<path d="M0 0 C1.96524451 2.94786676 3.57472183 5.90972937 5.1875 9.0625 C6.01314453 10.65771484 6.01314453 10.65771484 6.85546875 12.28515625 C7.23316406 13.18105469 7.61085938 14.07695312 8 15 C7.67 15.66 7.34 16.32 7 17 C3.37 16.67 -0.26 16.34 -4 16 C-4.33 17.65 -4.66 19.3 -5 21 C-5.32483418 22.33542939 -5.6550855 23.66961551 -6 25 C-5.01 25 -4.02 25 -3 25 C-3 25.99 -3 26.98 -3 28 C-6.96 28 -10.92 28 -15 28 C-14 25 -14 25 -11.59106445 23.6315918 C-8.47176065 21.66736799 -7.85867769 20.29180955 -6.54296875 16.89453125 C-6.15302734 15.91162109 -5.76308594 14.92871094 -5.36132812 13.91601562 C-4.97396484 12.89185547 -4.58660156 11.86769531 -4.1875 10.8125 C-3.78080078 9.77673828 -3.37410156 8.74097656 -2.95507812 7.67382812 C-1.95521337 5.12123222 -0.97095055 2.56370304 0 0 Z " fill="#B9ADC0" transform="translate(341,319)"/>
<path d="M0 0 C0.33 0.99 0.66 1.98 1 3 C1.99 3.33 2.98 3.66 4 4 C4.33 5.98 4.66 7.96 5 10 C5.66 10 6.32 10 7 10 C7.33 11.65 7.66 13.3 8 15 C4.37 15.33 0.74 15.66 -3 16 C-3.66 18.64 -4.32 21.28 -5 24 C-4.01 24 -3.02 24 -2 24 C-2 24.99 -2 25.98 -2 27 C-5.96 27 -9.92 27 -14 27 C-14 26.01 -14 25.02 -14 24 C-12.84177734 23.65775391 -12.84177734 23.65775391 -11.66015625 23.30859375 C-8.33522174 21.67297986 -7.83036695 20.44517687 -6.4375 17.0625 C-6.03015625 16.08796875 -5.6228125 15.1134375 -5.203125 14.109375 C-3.39314845 9.4316434 -1.64104733 4.73978475 0 0 Z " fill="#BCB0C3" transform="translate(185,320)"/>
<path d="M0 0 C1.875 1.0625 1.875 1.0625 3 3 C3.1875 6.6875 3.1875 6.6875 3 10 C1.02 10.99 1.02 10.99 -1 12 C-0.67 9.03 -0.34 6.06 0 3 C-6.31365992 3.87419907 -10.32668252 5.07972478 -14.69140625 9.84765625 C-17.00151369 13.6472658 -17.06140258 17.64041671 -17 22 C-11.78020872 22.1799928 -7.92737019 21.97094808 -3 20 C-3 20.99 -3 21.98 -3 23 C-7.72094018 25.51783476 -12.77211838 25.60253551 -18 25 C-18.99 24.34 -19.98 23.68 -21 23 C-21.82442683 17.11123691 -20.32030238 12.77232967 -17 8 C-12.11557512 2.86625413 -7.34889938 -0.78179781 0 0 Z " fill="#88659D" transform="translate(227,357)"/>
<path d="M0 0 C4.62 0 9.24 0 14 0 C14 0.66 14 1.32 14 2 C13.01 2.495 13.01 2.495 12 3 C11.67 11.58 11.34 20.16 11 29 C10.67 29 10.34 29 10 29 C10 20.09 10 11.18 10 2 C7.69 2 5.38 2 3 2 C3 11.24 3 20.48 3 30 C2.67 30 2.34 30 2 30 C2 26.37 2 22.74 2 19 C-1.96 19 -5.92 19 -10 19 C-9.67 22.96 -9.34 26.92 -9 31 C-11 29 -11 29 -11.22705078 26.38623047 C-11.21657715 25.30744629 -11.20610352 24.22866211 -11.1953125 23.1171875 C-11.18886719 21.95058594 -11.18242187 20.78398437 -11.17578125 19.58203125 C-11.15902344 18.35871094 -11.14226562 17.13539063 -11.125 15.875 C-11.11597656 14.64394531 -11.10695312 13.41289062 -11.09765625 12.14453125 C-11.07402548 9.09616185 -11.04108054 6.04817618 -11 3 C-10.67 3 -10.34 3 -10 3 C-10 7.29 -10 11.58 -10 16 C-6.04 16 -2.08 16 2 16 C1.85890014 13.89551062 1.71195825 11.7914123 1.5625 9.6875 C1.48128906 8.51574219 1.40007812 7.34398437 1.31640625 6.13671875 C1.1132629 2.97409042 1.1132629 2.97409042 0 0 Z " fill="#8C7998" transform="translate(235,313)"/>
<path d="M0 0 C0.66 0 1.32 0 2 0 C3.25664978 2.90600261 4 4.79604584 4 8 C3.34 8 2.68 8 2 8 C2 16.58 2 25.16 2 34 C0 33 0 33 -0.8515625 30.91796875 C-3.93759248 20.02334775 -3.95895957 10.65148647 0 0 Z " fill="#47255C" transform="translate(262,171)"/>
<path d="M0 0 C0.99 0 1.98 0 3 0 C2.67 2.64 2.34 5.28 2 8 C4.31 8 6.62 8 9 8 C9 8.33 9 8.66 9 9 C5.97265625 9.24414062 5.97265625 9.24414062 2.9453125 9.48828125 C0.60480784 9.87393036 0.60480784 9.87393036 -1 13 C-1.39013716 14.9896995 -1.73202649 16.99019869 -2 19 C-3.32 18.67 -4.64 18.34 -6 18 C-5.34 15.36 -4.68 12.72 -4 10 C-5.98 10 -7.96 10 -10 10 C-10 9.67 -10 9.34 -10 9 C-8.6078125 8.9690625 -8.6078125 8.9690625 -7.1875 8.9375 C-6.135625 8.628125 -5.08375 8.31875 -4 8 C-2.11529559 4.57508141 -2.11529559 4.57508141 -1 1 C-0.67 0.67 -0.34 0.34 0 0 Z " fill="#AA87BF" transform="translate(324,365)"/>
<path d="M0 0 C3.625 -0.1875 3.625 -0.1875 7 0 C7.4786191 3.41870788 7.79541019 5.93714754 5.65234375 8.80078125 C2.58829982 11.62239533 0.77700015 12.91523635 -3.4375 13.375 C-4.283125 13.25125 -5.12875 13.1275 -6 13 C-4.68 12.34 -3.36 11.68 -2 11 C-2.04125 9.741875 -2.0825 8.48375 -2.125 7.1875 C-2.2390374 3.70935927 -2.05925681 3.08888522 0 0 Z " fill="#45235B" transform="translate(313,373)"/>
<path d="M0 0 C0 2.31 0 4.62 0 7 C-8.91 7 -17.82 7 -27 7 C-27 6.01 -27 5.02 -27 4 C-26.34 4 -25.68 4 -25 4 C-25 4.66 -25 5.32 -25 6 C-21.7 6 -18.4 6 -15 6 C-15 5.34 -15 4.68 -15 4 C-14.31292969 3.87882812 -13.62585938 3.75765625 -12.91796875 3.6328125 C-11.56638672 3.38144531 -11.56638672 3.38144531 -10.1875 3.125 C-9.29417969 2.96257812 -8.40085937 2.80015625 -7.48046875 2.6328125 C-4.62254823 1.90370522 -2.93854986 0 0 0 Z " fill="#8E7B9B" transform="translate(395,340)"/>
<path d="M0 0 C0.66 0 1.32 0 2 0 C2 1.65 2 3.3 2 5 C2.66 5 3.32 5 4 5 C4.33 6.32 4.66 7.64 5 9 C8.72614153 7.88145414 8.72614153 7.88145414 11 5 C11.99 5 12.98 5 14 5 C13.0195412 7.58484592 12.06077857 8.94843031 9.9375 10.75 C5.9103375 12.46368617 2.31479896 12.2538117 -2 12 C-2 11.01 -2 10.02 -2 9 C-0.68 9.33 0.64 9.66 2 10 C1.67 8.68 1.34 7.36 1 6 C-0.65 6 -2.3 6 -4 6 C-2.84826645 3.53199953 -1.95216435 1.95216435 0 0 Z " fill="#86649B" transform="translate(391,376)"/>
<path d="M0 0 C2 2 2 2 2.125 4.625 C2.08375 5.40875 2.0425 6.1925 2 7 C2.99 7 3.98 7 5 7 C5 7.99 5 8.98 5 10 C2.87506859 10.02693575 0.75004088 10.04636628 -1.375 10.0625 C-2.55835938 10.07410156 -3.74171875 10.08570313 -4.9609375 10.09765625 C-8 10 -8 10 -10 9 C-10.40729228 6.67843403 -10.74438677 4.3431213 -11 2 C-10.01 2 -9.02 2 -8 2 C-8 3.65 -8 5.3 -8 7 C-5.02982306 6.37189827 -5.02982306 6.37189827 -2 5 C-0.56076801 2.49004504 -0.56076801 2.49004504 0 0 Z " fill="#8A7796" transform="translate(405,337)"/>
<path d="M0 0 C2.70744644 1.0616528 4.60815686 2.29913377 7 4 C6.67 5.32 6.34 6.64 6 8 C5.566875 7.525625 5.13375 7.05125 4.6875 6.5625 C2.03742489 4.10872675 -0.53267847 3.84533448 -4 3.8125 C-5.0209375 3.79123047 -5.0209375 3.79123047 -6.0625 3.76953125 C-8.32614132 3.89059589 -8.32614132 3.89059589 -11 6 C-11 5.01 -11 4.02 -11 3 C-11.78375 3.515625 -12.5675 4.03125 -13.375 4.5625 C-14.24125 5.036875 -15.1075 5.51125 -16 6 C-16.66 5.67 -17.32 5.34 -18 5 C-11.8471984 -0.01939078 -7.93895899 -0.83969758 0 0 Z " fill="#C1B8C8" transform="translate(275,312)"/>
<path d="M0 0 C0.66 0 1.32 0 2 0 C1.11218861 9.58836298 -0.89717472 17.41270371 -7 25 C-7.6875 23.3125 -7.6875 23.3125 -8 21 C-7.03854792 19.31080265 -6.02992379 17.64834304 -5 16 C-3.96392198 13.27107585 -3.1402076 10.48570182 -2.3125 7.6875 C-2.08755859 6.94693359 -1.86261719 6.20636719 -1.63085938 5.44335938 C-1.08122049 3.63072049 -0.5397733 1.81560111 0 0 Z " fill="#9370A8" transform="translate(388,360)"/>
<path d="M0 0 C0.99 0 1.98 0 3 0 C3.33 1.65 3.66 3.3 4 5 C7.34373475 4.44271087 10.03312999 3.64826111 13 2 C11.84826645 4.46800047 10.95216435 6.04783565 9 8 C6.50390625 8.23046875 6.50390625 8.23046875 3.5625 8.1875 C2.11037109 8.17783203 2.11037109 8.17783203 0.62890625 8.16796875 C-2 8 -2 8 -5 7 C-4.67 5.68 -4.34 4.36 -4 3 C-3.67 3.99 -3.34 4.98 -3 6 C-2.34 6 -1.68 6 -1 6 C-0.67 4.02 -0.34 2.04 0 0 Z " fill="#A380B8" transform="translate(267,379)"/>
<path d="M0 0 C4.62 0 9.24 0 14 0 C14 0.66 14 1.32 14 2 C13.01 2.495 13.01 2.495 12 3 C11.67 11.58 11.34 20.16 11 29 C10.67 29 10.34 29 10 29 C10 20.09 10 11.18 10 2 C7.69 2 5.38 2 3 2 C2.67 2.66 2.34 3.32 2 4 C1.34 2.68 0.68 1.36 0 0 Z " fill="#BCB1C3" transform="translate(235,313)"/>
<path d="M0 0 C0.33 0 0.66 0 1 0 C1.33 2.31 1.66 4.62 2 7 C6.81430721 7.56638908 9.20307814 5.82561627 13 3 C13 4.98 13 6.96 13 9 C13.66 9.33 14.32 9.66 15 10 C14.01 10 13.02 10 12 10 C12 9.34 12 8.68 12 8 C11.29875 8.33 10.5975 8.66 9.875 9 C6.65839846 10.11881793 4.38169345 10.36757538 1 10 C-0.5625 8.5625 -0.5625 8.5625 -2 7 C-4.60611077 6.27802838 -4.60611077 6.27802838 -7 6 C-6.01 5.34 -5.02 4.68 -4 4 C-3.01 4.33 -2.02 4.66 -1 5 C-0.67 3.35 -0.34 1.7 0 0 Z " fill="#88659D" transform="translate(322,378)"/>
<path d="M0 0 C2 3 2 3 2 7 C2.99 7 3.98 7 5 7 C5 7.99 5 8.98 5 10 C1.04 10 -2.92 10 -7 10 C-7 9.01 -7 8.02 -7 7 C-5.824375 6.6596875 -5.824375 6.6596875 -4.625 6.3125 C-1.78125 5.21875 -1.78125 5.21875 -0.6875 2.375 C-0.460625 1.59125 -0.23375 0.8075 0 0 Z " fill="#8A7797" transform="translate(178,337)"/>
<path d="M0 0 C1.25248502 2.50497004 1.11374406 4.20853274 1.09765625 7.0078125 C1.09443359 7.99394531 1.09121094 8.98007812 1.08789062 9.99609375 C1.07951172 11.02863281 1.07113281 12.06117188 1.0625 13.125 C1.05798828 14.16527344 1.05347656 15.20554687 1.04882812 16.27734375 C1.03701952 18.85161962 1.02055075 21.42578146 1 24 C-2.27559363 19.86990368 -3.1515725 16.87041533 -3.1875 11.625 C-3.20167969 10.68914062 -3.21585937 9.75328125 -3.23046875 8.7890625 C-2.96482043 5.57426756 -2.35994789 2.35994789 0 0 Z " fill="#4C2F5F" transform="translate(264,318)"/>
<path d="M0 0 C1.4606285 2.64738916 2 3.89448334 2 7 C2.66 7.33 3.32 7.66 4 8 C3.21654285 9.17219543 2.42297164 10.33763668 1.625 11.5 C1.18414062 12.1496875 0.74328125 12.799375 0.2890625 13.46875 C-0.13632812 13.9740625 -0.56171875 14.479375 -1 15 C-1.66 15 -2.32 15 -3 15 C-4.43410153 11.21180727 -3.51009497 8.93478721 -2.0625 5.25 C-1.49208984 3.77273438 -1.49208984 3.77273438 -0.91015625 2.265625 C-0.60980469 1.51796875 -0.30945313 0.7703125 0 0 Z " fill="#AA87C0" transform="translate(338,372)"/>
<path d="M0 0 C0.99 0.33 1.98 0.66 3 1 C2.01 2.32 1.02 3.64 0 5 C1.65 4.67 3.3 4.34 5 4 C5.33 5.65 5.66 7.3 6 9 C4.68 8.67 3.36 8.34 2 8 C2 8.66 2 9.32 2 10 C1.34 10 0.68 10 0 10 C-0.66 8.68 -1.32 7.36 -2 6 C-3.32 6.99 -4.64 7.98 -6 9 C-4.68775452 5.06326356 -3.08089673 2.77280706 0 0 Z " fill="#46245C" transform="translate(387,377)"/>
<path d="M0 0 C0.33 0 0.66 0 1 0 C1.375 2.25 1.375 2.25 1 5 C-2.05384248 8.22834776 -3.83896767 8.91323246 -8.29296875 9.24609375 C-11.53852606 9.24963307 -14.75939223 9.17308884 -18 9 C-16.7109375 7.5 -16.7109375 7.5 -15 6 C-12.66666667 6 -10.33333333 6 -8 6 C-4.74378675 4.44589822 -2.47027476 2.5937885 0 0 Z " fill="#CDC5D3" transform="translate(282,338)"/>
<path d="M0 0 C0.66 1.98 1.32 3.96 2 6 C0.8125 7.5625 0.8125 7.5625 -1 9 C-3.6875 8.6875 -3.6875 8.6875 -6 8 C-6.25 5.6875 -6.25 5.6875 -6 3 C-3.95575462 1.02389614 -2.8823175 0 0 0 Z " fill="#9775AC" transform="translate(222,383)"/>
<path d="M0 0 C2.33936818 2.12669835 3.80653848 4.06224856 5 7 C5 7.99 5 8.98 5 10 C2.36 10 -0.28 10 -3 10 C-2.39009109 6.44219804 -1.4216319 3.3171411 0 0 Z " fill="#543867" transform="translate(342,323)"/>
<path d="M0 0 C1.32 0 2.64 0 4 0 C4.33292585 4.24480464 4.43885872 6.35542625 2 9.9375 C1.34 10.618125 0.68 11.29875 0 12 C-2.21538462 5.72307692 -2.21538462 5.72307692 -1.125 2.0625 C-0.75375 1.381875 -0.3825 0.70125 0 0 Z " fill="#9B78B0" transform="translate(340,365)"/>
<path d="M0 0 C1.1171875 1.671875 1.1171875 1.671875 2 4 C1.3203125 6.578125 1.3203125 6.578125 0.125 9.25 C-0.26429688 10.14203125 -0.65359375 11.0340625 -1.0546875 11.953125 C-1.36664063 12.62859375 -1.67859375 13.3040625 -2 14 C0.64 14 3.28 14 6 14 C6.33 13.34 6.66 12.68 7 12 C7 12.99 7 13.98 7 15 C5.37509046 15.02698189 3.75005367 15.04638757 2.125 15.0625 C0.76761719 15.07990234 0.76761719 15.07990234 -0.6171875 15.09765625 C-3 15 -3 15 -5 14 C-3.45730076 9.27934033 -1.92205381 4.58335908 0 0 Z " fill="#C4BACA" transform="translate(341,319)"/>
<path d="M0 0 C0.66 0 1.32 0 2 0 C4.43160605 3.36683915 5 4.73350364 5 9 C2.69 9 0.38 9 -2 9 C-1.34 6.03 -0.68 3.06 0 0 Z " fill="#503263" transform="translate(413,324)"/>
<path d="M0 0 C2.89932357 2.39509338 3.50168276 4.31245243 4 8 C1.69 8 -0.62 8 -3 8 C-2.25 2.25 -2.25 2.25 0 0 Z " fill="#4A2B5D" transform="translate(187,325)"/>
<path d="M0 0 C0.66 0 1.32 0 2 0 C2 1.32 2 2.64 2 4 C2.66 4 3.32 4 4 4 C4 2.68 4 1.36 4 0 C4.66 0 5.32 0 6 0 C6 1.65 6 3.3 6 5 C4.824375 5.0928125 4.824375 5.0928125 3.625 5.1875 C2.75875 5.455625 1.8925 5.72375 1 6 C-0.37466625 8.47636012 -0.37466625 8.47636012 -1 11 C-1.33 11 -1.66 11 -2 11 C-2.24042276 6.91281305 -1.42258812 3.82320557 0 0 Z " fill="#B08DC5" transform="translate(224,377)"/>
<path d="M0 0 C0.99 0 1.98 0 3 0 C2.67 2.64 2.34 5.28 2 8 C4.31 8 6.62 8 9 8 C9 8.33 9 8.66 9 9 C1.25 9.125 1.25 9.125 -1 8 C-1.75 5.0625 -1.75 5.0625 -2 2 C-1.34 1.34 -0.68 0.68 0 0 Z " fill="#9F7DB5" transform="translate(324,365)"/>
<path d="M0 0 C3.71599191 -0.20086443 4.77208445 -0.1519437 8 2 C8.1875 5.625 8.1875 5.625 8 9 C6.02 9.99 6.02 9.99 4 11 C4 8.03 4 5.06 4 2 C2.68 1.34 1.36 0.68 0 0 Z " fill="#906EA5" transform="translate(222,358)"/>
<path d="M0 0 C6.11090483 -0.09945415 11.97403427 -0.0712828 18 1 C18 1.33 18 1.66 18 2 C12.72 2 7.44 2 2 2 C1.67 2.66 1.34 3.32 1 4 C0.67 2.68 0.34 1.36 0 0 Z " fill="#8960A3" transform="translate(230,242)"/>
<path d="M0 0 C3.96 0 7.92 0 12 0 C12 0.66 12 1.32 12 2 C11.21753906 2.04898437 10.43507812 2.09796875 9.62890625 2.1484375 C8.61699219 2.22320312 7.60507813 2.29796875 6.5625 2.375 C5.55316406 2.44460938 4.54382813 2.51421875 3.50390625 2.5859375 C2.26447266 2.79089844 2.26447266 2.79089844 1 3 C0.67 3.66 0.34 4.32 0 5 C-0.66 5 -1.32 5 -2 5 C-1.34 3.35 -0.68 1.7 0 0 Z " fill="#5A3E6B" transform="translate(182,335)"/>
<path d="M0 0 C0.33 0 0.66 0 1 0 C1.58305225 3.84814487 0.7002883 5.76308635 -1.5 8.8125 C-2.32219744 9.88364055 -3.15204049 10.9491359 -4 12 C-4.95582656 9.44345185 -5.17802782 8.39658231 -4.0390625 5.859375 C-3.57242187 5.16328125 -3.10578125 4.4671875 -2.625 3.75 C-1.93277344 2.69039063 -1.93277344 2.69039063 -1.2265625 1.609375 C-0.82179688 1.07828125 -0.41703125 0.5471875 0 0 Z " fill="#9471AA" transform="translate(385,373)"/>
<path d="M0 0 C0.33 0.99 0.66 1.98 1 3 C1.99 3.33 2.98 3.66 4 4 C2.92922625 6.1415475 1.68031097 7.31968903 0 9 C-0.33 9.66 -0.66 10.32 -1 11 C-1.66 11 -2.32 11 -3 11 C-2.01 7.37 -1.02 3.74 0 0 Z " fill="#B0A2B8" transform="translate(185,320)"/>
<path d="M0 0 C0.66 0.99 1.32 1.98 2 3 C-0.1922142 5.26072089 -1.82974709 6.93620802 -5.078125 7.11328125 C-7.25 6.875 -7.25 6.875 -11 6 C-11.33 5.34 -11.66 4.68 -12 4 C-10.7625 4.0825 -9.525 4.165 -8.25 4.25 C-4.89493302 4.2737948 -4.24552096 4.19641677 -1.5 2 C-1.005 1.34 -0.51 0.68 0 0 Z " fill="#815F97" transform="translate(379,383)"/>
<path d="M0 0 C0.33 0 0.66 0 1 0 C1.66 2.31 2.32 4.62 3 7 C5.97 7.495 5.97 7.495 9 8 C9 8.66 9 9.32 9 10 C5.625 10.125 5.625 10.125 2 10 C0 8 0 8 -0.1953125 6.0546875 C-0.13020833 4.03645833 -0.06510417 2.01822917 0 0 Z " fill="#9774AC" transform="translate(365,381)"/>
<path d="M0 0 C0.33 1.32 0.66 2.64 1 4 C4.3 3.34 7.6 2.68 11 2 C8.67450611 4.86214633 7.59605477 5.91655233 3.875 6.4375 C2.92625 6.293125 1.9775 6.14875 1 6 C0.34 5.01 -0.32 4.02 -1 3 C-0.67 2.01 -0.34 1.02 0 0 Z " fill="#9371A8" transform="translate(306,382)"/>
<path d="M0 0 C0.33 0 0.66 0 1 0 C1 1.65 1 3.3 1 5 C1.99 5.33 2.98 5.66 4 6 C0.7 6 -2.6 6 -6 6 C-4 4 -2 2 0 0 Z " fill="#E1DCE4" transform="translate(405,340)"/>
<path d="M0 0 C2.475 0.99 2.475 0.99 5 2 C5 4.31 5 6.62 5 9 C4.01 9.33 3.02 9.66 2 10 C1.855625 8.906875 1.71125 7.81375 1.5625 6.6875 C1.11711896 3.06877013 1.11711896 3.06877013 0 0 Z " fill="#84629A" transform="translate(340,377)"/>
<path d="M0 0 C0.66 0 1.32 0 2 0 C2.33 2.31 2.66 4.62 3 7 C0.69 6.67 -1.62 6.34 -4 6 C-2.84826645 3.53199953 -1.95216435 1.95216435 0 0 Z " fill="#9F7CB4" transform="translate(391,376)"/>
<path d="M0 0 C0 1.32 0 2.64 0 4 C0.99 4.33 1.98 4.66 3 5 C-0.3 5 -3.6 5 -7 5 C-2.25 0 -2.25 0 0 0 Z " fill="#DFDAE2" transform="translate(179,341)"/>
<path d="M0 0 C0.66 0 1.32 0 2 0 C2 1.98 2 3.96 2 6 C-0.31 6 -2.62 6 -5 6 C-3.38405168 3.95880212 -1.7143618 1.95927063 0 0 Z " fill="#EDEBEF" transform="translate(393,340)"/>
<path d="M0 0 C2.125 0.375 2.125 0.375 4 1 C3.01 3.31 2.02 5.62 1 8 C0.34 8 -0.32 8 -1 8 C-0.67 6.35 -0.34 4.7 0 3 C-0.66 2.67 -1.32 2.34 -2 2 C-1.34 1.34 -0.68 0.68 0 0 Z " fill="#735088" transform="translate(247,378)"/>
<path d="M0 0 C1.5625 1.25 1.5625 1.25 3 3 C2.78953863 6.36738191 1.3610324 7.75382864 -1 10 C-1.02689216 8.52093108 -1.04634621 7.04172517 -1.0625 5.5625 C-1.07410156 4.73878906 -1.08570313 3.91507812 -1.09765625 3.06640625 C-1 1 -1 1 0 0 Z " fill="#BC99D1" transform="translate(322,369)"/>
<path d="M0 0 C2.31 0.33 4.62 0.66 7 1 C7.33 2.65 7.66 4.3 8 6 C7.34 6 6.68 6 6 6 C5.67 5.34 5.34 4.68 5 4 C4.01 4.66 3.02 5.32 2 6 C2 4.35 2 2.7 2 1 C1.34 0.67 0.68 0.34 0 0 Z " fill="#5A386F" transform="translate(258,379)"/>
<path d="M0 0 C-0.33 0.99 -0.66 1.98 -1 3 C-5.61073111 4.29676812 -9.33840089 3.71109139 -14 3 C-14 2.67 -14 2.34 -14 2 C-13.06027344 1.90912109 -13.06027344 1.90912109 -12.1015625 1.81640625 C-10.87566406 1.69072266 -10.87566406 1.69072266 -9.625 1.5625 C-8.81289062 1.48128906 -8.00078125 1.40007812 -7.1640625 1.31640625 C-4.39098241 0.91095591 -2.91201214 0 0 0 Z " fill="#502F66" transform="translate(224,380)"/>
<path d="M0 0 C-1.90401138 1.90401138 -3.33425686 2.93520439 -6.046875 3.19921875 C-8.03233273 3.1886578 -10.0169914 3.09915043 -12 3 C-12 2.34 -12 1.68 -12 1 C-10.37681021 0.63762737 -8.7513642 0.28534843 -7.125 -0.0625 C-6.22007812 -0.25972656 -5.31515625 -0.45695312 -4.3828125 -0.66015625 C-2 -1 -2 -1 0 0 Z " fill="#BDB2C4" transform="translate(392,343)"/>
<path d="M0 0 C0.33 0.66 0.66 1.32 1 2 C1.99 2 2.98 2 4 2 C4 2.66 4 3.32 4 4 C1.03 4 -1.94 4 -5 4 C-5 3.01 -5 2.02 -5 1 C-2.525 1.495 -2.525 1.495 0 2 C0 1.34 0 0.68 0 0 Z " fill="#9875AD" transform="translate(394,384)"/>
<path d="M0 0 C0.99 0 1.98 0 3 0 C3 1.98 3 3.96 3 6 C1.35 6.33 -0.3 6.66 -2 7 C-1.34 4.69 -0.68 2.38 0 0 Z " fill="#A886BE" transform="translate(293,379)"/>
<path d="M0 0 C0.66 0 1.32 0 2 0 C0.84826645 2.46800047 -0.04783565 4.04783565 -2 6 C-5.125 6.125 -5.125 6.125 -8 6 C-5.84145761 3.84145761 -3.61978408 2.54500087 -1 1 C-0.67 0.67 -0.34 0.34 0 0 Z " fill="#8F6CA5" transform="translate(278,381)"/>
<path d="M0 0 C0.33 0.99 0.66 1.98 1 3 C1.66 3.33 2.32 3.66 3 4 C2.34 4 1.68 4 1 4 C0.67 5.98 0.34 7.96 0 10 C-0.66 9.34 -1.32 8.68 -2 8 C-1.42307692 1.42307692 -1.42307692 1.42307692 0 0 Z " fill="#A99AB2" transform="translate(412,320)"/>
<path d="M0 0 C0.66 0 1.32 0 2 0 C3.0625 1.875 3.0625 1.875 4 4 C3.67 4.66 3.34 5.32 3 6 C1.35 5.67 -0.3 5.34 -2 5 C-1.125 1.125 -1.125 1.125 0 0 Z " fill="#67457C" transform="translate(220,385)"/>
<path d="M0 0 C-0.33 0.99 -0.66 1.98 -1 3 C-3.64 3.33 -6.28 3.66 -9 4 C-8.67 3.01 -8.34 2.02 -8 1 C-5.29120665 -0.35439668 -2.99066732 -0.06501451 0 0 Z " fill="#7B5A91" transform="translate(370,359)"/>
<path d="M0 0 C-0.33 0.99 -0.66 1.98 -1 3 C-2.45792884 3.05399736 -3.91642712 3.09279177 -5.375 3.125 C-6.18710937 3.14820313 -6.99921875 3.17140625 -7.8359375 3.1953125 C-10 3 -10 3 -12 1 C-10.37512529 0.83211627 -8.75009558 0.66573213 -7.125 0.5 C-6.22007812 0.4071875 -5.31515625 0.314375 -4.3828125 0.21875 C-2 0 -2 0 0 0 Z " fill="#85629C" transform="translate(311,193)"/>
<path d="M0 0 C1.98 0 3.96 0 6 0 C6 1.98 6 3.96 6 6 C5.67 5.34 5.34 4.68 5 4 C1.97065509 3.34227572 1.97065509 3.34227572 -1 3 C-0.67 2.01 -0.34 1.02 0 0 Z " fill="#84629A" transform="translate(252,381)"/>
<path d="M0 0 C2 4 2 4 1.125 6.75 C0.75375 7.4925 0.3825 8.235 0 9 C-0.99 9 -1.98 9 -3 9 C-2.01 6.03 -1.02 3.06 0 0 Z " fill="#BAAFC2" transform="translate(341,319)"/>
<path d="M0 0 C1.98 0.495 1.98 0.495 4 1 C4 2.32 4 3.64 4 5 C2.68 4.67 1.36 4.34 0 4 C-0.33 4.66 -0.66 5.32 -1 6 C-1 5.01 -1 4.02 -1 3 C-0.34 3 0.32 3 1 3 C0.67 2.01 0.34 1.02 0 0 Z " fill="#57346C" transform="translate(389,381)"/>
<path d="M0 0 C1.15941038 3.47823115 0.70820884 5.45895578 0 9 C-0.66 9 -1.32 9 -2 9 C-2.6875 7.3125 -2.6875 7.3125 -3 5 C-1.5625 2.25 -1.5625 2.25 0 0 Z " fill="#C3A0D8" transform="translate(337,378)"/>
<path d="M0 0 C2 3 2 3 1.625 6.1875 C1.41875 7.115625 1.2125 8.04375 1 9 C0.01 8.67 -0.98 8.34 -2 8 C-1.34 5.36 -0.68 2.72 0 0 Z " fill="#86649C" transform="translate(386,366)"/>
<path d="M0 0 C0.99 0 1.98 0 3 0 C3.33 2.64 3.66 5.28 4 8 C3.01 7.67 2.02 7.34 1 7 C0.67 4.69 0.34 2.38 0 0 Z " fill="#684E78" transform="translate(394,339)"/>
<path d="M0 0 C0.99 0 1.98 0 3 0 C3.33 1.32 3.66 2.64 4 4 C3.38125 4.144375 2.7625 4.28875 2.125 4.4375 C-0.03258322 4.93152225 -0.03258322 4.93152225 -2 6 C-1.34 4.02 -0.68 2.04 0 0 Z " fill="#C7BECC" transform="translate(344,313)"/>
</svg>
