<?xml version="1.0" encoding="UTF-8"?>
<svg version="1.1" xmlns="http://www.w3.org/2000/svg" width="512" height="512">
<path d="M0 0 C1.01790619 0.00215515 2.03581238 0.0043103 3.08456421 0.00653076 C17.69363523 0.05620146 32.02575853 0.30709809 46.375 3.3125 C47.34985352 3.51117676 48.32470703 3.70985352 49.32910156 3.91455078 C97.7109774 14.03517194 141.69928269 35.9516877 177.375 70.3125 C178.3640332 71.26068604 178.3640332 71.26068604 179.37304688 72.22802734 C188.86130305 81.37247479 197.6012044 90.66984009 205.375 101.3125 C206.23306152 102.46355017 207.09113451 103.61459177 207.94921875 104.765625 C213.98736829 112.95680614 219.34595521 121.47054105 224.375 130.3125 C224.73948242 130.94430176 225.10396484 131.57610352 225.47949219 132.22705078 C247.08534998 169.97532572 256.85198095 212.74189997 256.6875 255.9375 C256.68534485 256.95540619 256.6831897 257.97331238 256.68096924 259.02206421 C256.63129854 273.63113523 256.38040191 287.96325853 253.375 302.3125 C253.07698486 303.77478027 253.07698486 303.77478027 252.77294922 305.26660156 C242.65232806 353.6484774 220.7358123 397.63678269 186.375 433.3125 C185.74287598 433.97185547 185.11075195 434.63121094 184.45947266 435.31054688 C175.31502521 444.79880305 166.01765991 453.5387044 155.375 461.3125 C154.22394983 462.17056152 153.07290823 463.02863451 151.921875 463.88671875 C143.73224019 469.92427396 135.22961724 475.30707302 126.375 480.3125 C125.66778809 480.7146875 124.96057617 481.116875 124.23193359 481.53125 C101.09654164 494.5566741 75.92537591 503.30551461 49.9375 508.625 C49.21860596 508.77235596 48.49971191 508.91971191 47.7590332 509.0715332 C33.08339502 511.86090125 18.55831162 512.66142619 3.64770508 512.62817383 C0.70811513 512.6250221 -2.2304558 512.64854926 -5.16992188 512.67382812 C-18.54306192 512.71848737 -31.43916711 511.51301542 -44.625 509.3125 C-46.33055054 509.03031616 -46.33055054 509.03031616 -48.07055664 508.74243164 C-91.33802759 500.97044532 -132.38793216 480.98345309 -165.625 452.3125 C-166.37007813 451.67828125 -167.11515625 451.0440625 -167.8828125 450.390625 C-181.38779833 438.57948485 -194.05918743 425.82889772 -204.625 411.3125 C-205.48149066 410.16255169 -206.33826433 409.01281411 -207.1953125 407.86328125 C-213.23534209 399.67315742 -218.61867614 391.16870382 -223.625 382.3125 C-224.0271875 381.60528809 -224.429375 380.89807617 -224.84375 380.16943359 C-237.8691741 357.03404164 -246.61801461 331.86287591 -251.9375 305.875 C-252.08485596 305.15610596 -252.23221191 304.43721191 -252.3840332 303.6965332 C-255.35789088 288.05024391 -255.99800362 272.57681954 -255.9375 256.6875 C-255.93534485 255.66959381 -255.9331897 254.65168762 -255.93096924 253.60293579 C-255.88129854 238.99386477 -255.63040191 224.66174147 -252.625 210.3125 C-252.42632324 209.33764648 -252.22764648 208.36279297 -252.02294922 207.35839844 C-241.90232806 158.9765226 -219.9858123 114.98821731 -185.625 79.3125 C-184.99287598 78.65314453 -184.36075195 77.99378906 -183.70947266 77.31445312 C-174.56502521 67.82619695 -165.26765991 59.0862956 -154.625 51.3125 C-153.47394983 50.45443848 -152.32290823 49.59636549 -151.171875 48.73828125 C-142.98224019 42.70072604 -134.47961724 37.31792698 -125.625 32.3125 C-124.91778809 31.9103125 -124.21057617 31.508125 -123.48193359 31.09375 C-100.34654164 18.0683259 -75.17537591 9.31948539 -49.1875 4 C-48.46860596 3.85264404 -47.74971191 3.70528809 -47.0090332 3.5534668 C-31.36274391 0.57960912 -15.88931954 -0.06050362 0 0 Z " fill="#2196F3" transform="translate(255.625,-0.3125)"/>
<path d="M0 0 C3.52246957 1.12676408 6.87089675 2.31130622 10.17163086 3.98022461 C11.32090309 4.55739479 11.32090309 4.55739479 12.49339294 5.14622498 C13.30897171 5.56074417 14.12455048 5.97526337 14.96484375 6.40234375 C16.26863731 7.05814171 16.26863731 7.05814171 17.59877014 7.72718811 C20.38028685 9.12681448 23.15908765 10.53172254 25.9375 11.9375 C29.54929011 13.76208625 33.16250522 15.5838043 36.77734375 17.40234375 C37.69917953 17.8662149 38.62101532 18.33008606 39.57078552 18.80801392 C45.96735356 22.01397608 52.40797866 25.11490871 58.875 28.17578125 C67.50566562 32.26660487 76.04447087 36.51856136 84.55531502 40.85127068 C86.59221091 41.88785385 88.63019977 42.92225511 90.66856384 43.95594788 C92.03490804 44.64900529 93.40124612 45.34207479 94.76757812 46.03515625 C95.44714852 46.37985175 96.12671892 46.72454725 96.82688236 47.07968807 C100.32893934 48.85740664 103.82778374 50.64106287 107.3215332 52.43505859 C110.77109509 54.20580319 114.22824784 55.96083435 117.69103813 57.70555878 C118.99246789 58.36487035 120.29102452 59.02988759 121.58647346 59.70087433 C123.38089666 60.62947311 125.1864671 61.5364345 126.99243164 62.44238281 C128.0111586 62.96213684 129.02988556 63.48189087 130.07948303 64.01739502 C135.68958301 65.90490748 140.0740592 63.71488143 145.15234375 61.2109375 C146.0451429 60.77488945 146.0451429 60.77488945 146.95597839 60.33003235 C148.95346812 59.3522717 150.94534049 58.36356992 152.9375 57.375 C154.38162883 56.66566902 155.82613939 55.95711477 157.27099609 55.24926758 C160.45039174 53.69020236 163.62752345 52.12663905 166.80322266 50.56005859 C172.28373601 47.85788916 177.77214102 45.1719783 183.26171875 42.48828125 C185.22314781 41.52930358 187.18457356 40.57031913 189.14599609 39.61132812 C190.62190216 38.88973511 190.62190216 38.88973511 192.12762451 38.15356445 C196.13328763 36.19433034 200.13778582 34.23272142 204.14233398 32.27120972 C217.96526704 25.50095698 231.8007862 18.7567225 245.64306641 12.02612305 C247.14355825 11.29606853 248.64404667 10.56600697 250.14453125 9.8359375 C250.84368652 9.49627457 251.5428418 9.15661163 252.26318359 8.80665588 C256.94547835 6.52770761 261.59752206 4.1949875 266.22143555 1.79931641 C268 1 268 1 270 1 C270.09356891 18.70710217 270.16404058 36.4141399 270.20724869 54.12143612 C270.22784697 62.34381833 270.25591502 70.56604666 270.30175781 78.78833008 C270.34170961 85.9574507 270.36745268 93.12645983 270.37635398 100.29568869 C270.38155469 104.08946227 270.3937205 107.88291698 270.42292023 111.67658806 C270.45022164 115.25285429 270.45841564 118.82867256 270.45243073 122.40503311 C270.45404299 124.33208706 270.4754884 126.25909306 270.49768066 128.1860199 C270.45086147 138.10654357 268.28506313 145.22157541 261.5 152.56640625 C255.02208462 158.75753892 247.08786739 159.29810735 238.60098267 159.26742554 C237.6743854 159.27195665 236.74778813 159.27648776 235.79311216 159.28115618 C232.69877489 159.2937821 229.60461403 159.29218098 226.51025391 159.29052734 C224.287397 159.29651366 222.06454217 159.30331944 219.84169006 159.31088257 C213.81068975 159.32853783 207.77974621 159.33323772 201.74872255 159.33451414 C197.97947252 159.3359364 194.2102369 159.3402074 190.44099045 159.34550858 C177.96631201 159.36305207 165.49166581 159.37234903 153.01697762 159.37084763 C152.34525196 159.37076772 151.6735263 159.3706878 150.98144531 159.37060547 C150.30889506 159.37052371 149.63634482 159.37044195 148.94341426 159.37035771 C138.04408311 159.36954482 127.14489016 159.3886861 116.24559899 159.4168822 C105.04125403 159.44563771 93.83697436 159.45905512 82.63258493 159.45769465 C76.34735638 159.45718497 70.06228431 159.46287217 63.77708817 159.48405075 C57.86564147 159.50342668 51.95450068 159.50356174 46.04304314 159.48901749 C43.87631089 159.48692761 41.70955952 159.49164086 39.54286003 159.5037384 C36.57921013 159.51921107 33.61661242 159.50986902 30.65298462 159.49447632 C29.80072977 159.50476344 28.94847492 159.51505057 28.07039416 159.52564943 C19.43320965 159.4268828 12.07495896 156.11979714 5.86736679 150.11404991 C-0.64330258 142.74330728 -0.56108782 133.52908078 -0.45410156 124.19677734 C-0.45297087 122.83571405 -0.45361127 121.47464832 -0.45587158 120.11358643 C-0.45701102 116.44878783 -0.43362828 112.78452162 -0.40557575 109.11984587 C-0.38043224 105.27886939 -0.37820996 101.43787835 -0.37347412 97.59683228 C-0.36108213 90.33677534 -0.32831223 83.07696168 -0.28807616 75.81701148 C-0.24324022 67.54611288 -0.22134181 59.27520217 -0.20129442 51.00421214 C-0.1595758 34.00266779 -0.089298 17.00135969 0 0 Z " fill="#FEFEFE" transform="translate(121,202)"/>
<path d="M0 0 C0.92745169 -0.00467997 1.85490338 -0.00935994 2.81045967 -0.01418173 C5.90178742 -0.02609714 8.99266901 -0.01668789 12.08399963 -0.00723267 C14.30700437 -0.01129992 16.53000709 -0.01664266 18.75300598 -0.02316284 C24.77985438 -0.03682462 30.80654848 -0.03154218 36.83339953 -0.02202559 C43.14594608 -0.01442221 49.45847954 -0.02147658 55.77102661 -0.02618408 C67.05105712 -0.03198938 78.33102414 -0.02267428 89.61103971 -0.00740607 C99.82618216 0.00599306 110.04122231 0.00367072 120.25636292 -0.01016235 C132.13385864 -0.02623913 144.01130485 -0.03218087 155.88881356 -0.02332556 C162.17063576 -0.01865377 168.45238759 -0.01801061 174.73420525 -0.02793503 C180.64153413 -0.03661605 186.54867028 -0.03056179 192.45597839 -0.01325226 C194.62109113 -0.00929334 196.78622016 -0.01041124 198.95132637 -0.01704025 C201.91259238 -0.02526932 204.87324542 -0.01491742 207.83447266 0 C208.68604539 -0.00669217 209.53761812 -0.01338433 210.41499609 -0.02027929 C219.76694803 0.07075103 226.74103164 2.66863083 233.52760315 9.13485718 C238.54574264 14.90571759 239.55896189 19.8699652 239.48072815 27.38095093 C181.01447363 56.09220829 181.01447363 56.09220829 161.6174469 65.49252319 C154.08013011 69.14794191 146.5591255 72.83135026 139.06925964 76.58325195 C135.27593731 78.48185632 131.47688639 80.36883645 127.67738342 82.2550354 C125.85507504 83.16377092 124.03558407 84.07818095 122.21913147 84.99856567 C119.70775932 86.27063153 117.18741524 87.52296004 114.6643219 88.77157593 C113.92244125 89.15381317 113.18056061 89.53605042 112.41619873 89.92987061 C111.72004959 90.26983063 111.02390045 90.60979065 110.30665588 90.96005249 C109.41054848 91.41036835 109.41054848 91.41036835 108.49633789 91.86978149 C103.63000845 93.10390872 99.12558677 90.95264231 94.83062744 88.79977417 C93.72998459 88.25292465 92.62934174 87.70607513 91.49534607 87.14265442 C90.29077112 86.53408725 89.08627545 85.92536315 87.8818512 85.3164978 C86.6021572 84.67690537 85.32211341 84.0380124 84.04174805 83.39976501 C80.57568119 81.66943585 77.11465585 79.92923837 73.65451407 78.18709755 C70.03291737 76.36564072 66.40693452 74.55295681 62.78146362 72.73922729 C56.69865089 69.69459996 50.61882823 66.64407308 44.54103088 63.58944702 C36.73149452 59.66449735 28.91737368 55.74876899 21.10167217 51.83611298 C14.38716882 48.47471651 7.6744593 45.10974354 0.96220422 41.74386024 C-1.19889381 40.66027518 -3.36017852 39.57706305 -5.52146339 38.49385071 C-8.90992168 36.79524036 -12.29726426 35.09442471 -15.6837368 33.39185905 C-16.92948295 32.76591755 -18.17556959 32.14065316 -19.42201233 31.51609993 C-21.11697255 30.66663802 -22.81057203 29.81446257 -24.50408936 28.96212769 C-25.45403935 28.48501595 -26.40398935 28.00790421 -27.38272572 27.51633453 C-29.51927185 26.38095093 -29.51927185 26.38095093 -30.51927185 25.38095093 C-30.25965233 17.98179454 -27.94188609 13.07004608 -22.9138031 7.65048218 C-16.14047839 1.37314463 -8.95249222 -0.0701702 0 0 Z " fill="#FDFEFE" transform="translate(151.51927185058594,150.61904907226563)"/>
</svg>
