<?xml version="1.0" encoding="UTF-8"?>
<svg version="1.1" xmlns="http://www.w3.org/2000/svg" width="512" height="512">
<path d="M0 0 C1.63952945 -0.00679667 1.63952945 -0.00679667 3.3121807 -0.01373065 C6.98165666 -0.02641006 10.65098488 -0.02475197 14.32048035 -0.02310181 C16.94860017 -0.02908484 19.57671824 -0.03588986 22.20483398 -0.04345703 C28.60705295 -0.06006352 35.00923509 -0.06556642 41.41147379 -0.06668179 C46.61628782 -0.06763245 51.8210897 -0.07174368 57.02589989 -0.07808304 C71.78629762 -0.09569471 86.54666627 -0.10492206 101.30707458 -0.10342209 C102.1026606 -0.10334218 102.89824661 -0.10326227 103.71794128 -0.10317993 C104.51450005 -0.10309817 105.31105882 -0.10301641 106.13175573 -0.10293217 C119.03973682 -0.10211935 131.9476012 -0.12125614 144.85554854 -0.14945666 C158.11305927 -0.17819206 171.37051309 -0.19199659 184.62805575 -0.19026911 C192.06966149 -0.18960542 199.51114488 -0.19508838 206.95272255 -0.21662521 C213.28897035 -0.23484571 219.62504036 -0.23917734 225.96130303 -0.22560637 C229.19277254 -0.21908085 232.42383058 -0.22112207 235.65528107 -0.23631287 C239.16233798 -0.25173132 242.6684997 -0.2424784 246.17553711 -0.22705078 C247.19159792 -0.23733791 248.20765874 -0.24762503 249.25450927 -0.25822389 C257.07426717 -0.18222714 262.44939341 1.50143827 268.09074402 7.01742554 C272.08745601 12.95539763 274.48610274 18.97909619 273.27824402 26.26742554 C271.14014628 33.73804086 267.12685306 38.44583174 260.45982432 42.32563454 C257.99049731 43.39164616 256.27346216 43.52106306 253.59170914 43.52748775 C252.64816173 43.53455335 251.70461432 43.54161894 250.73247457 43.54889864 C249.18230299 43.54527601 249.18230299 43.54527601 247.60081482 43.5415802 C246.50048251 43.54681688 245.4001502 43.55205356 244.26647449 43.55744892 C240.5662597 43.57249344 236.86618265 43.57315506 233.16593933 43.57382202 C230.51825884 43.58144055 227.87059006 43.58981842 225.22291565 43.5990448 C218.02036634 43.62189529 210.81784649 43.62981554 203.61526585 43.63487124 C199.11720656 43.63812837 194.61915583 43.64465097 190.12110138 43.65187263 C177.66518047 43.67143905 165.2092675 43.68784287 152.75333023 43.69074917 C151.55767714 43.69103052 151.55767714 43.69103052 150.33786945 43.69131756 C148.72197199 43.69168381 147.10607453 43.69204751 145.49017707 43.69240867 C144.28698896 43.69268289 144.28698896 43.69268289 143.05949402 43.69296265 C141.85483577 43.69323347 141.85483577 43.69323347 140.62584099 43.69350976 C127.61430774 43.69705097 114.60294004 43.72406978 101.59146419 43.76146054 C88.23002343 43.79954941 74.86866479 43.81890669 61.50716853 43.81920868 C54.00627045 43.81979314 46.50556983 43.82827759 39.0047226 43.85720634 C32.61718957 43.88172814 26.229926 43.88899795 19.84235862 43.87395882 C16.58448437 43.86679274 13.32725238 43.8703587 10.06941605 43.89036942 C6.53368145 43.91076288 2.99932438 43.90031549 -0.53639221 43.88215637 C-2.07317946 43.90195632 -2.07317946 43.90195632 -3.64101291 43.92215627 C-11.04907088 43.83527161 -15.85560485 41.93151488 -21.24398112 36.82475847 C-25.6027275 32.00828987 -27.24111631 26.95013665 -27.03034973 20.47836304 C-26.03417395 13.34120493 -23.21860517 7.90760215 -17.60066223 3.42367554 C-11.81851532 -0.13456872 -6.62168737 -0.02005246 0 0 Z " fill="#000000" transform="translate(132.7217559814453,340.7325744628906)"/>
<path d="M0 0 C0.94354741 -0.00706559 1.88709482 -0.01413118 2.85923457 -0.02141088 C4.40940615 -0.01778826 4.40940615 -0.01778826 5.99089432 -0.01409245 C7.64139278 -0.02194746 7.64139278 -0.02194746 9.32523465 -0.02996117 C13.02544944 -0.04500569 16.72552649 -0.04566731 20.42576981 -0.04633427 C23.07345029 -0.05395279 25.72111908 -0.06233066 28.36879349 -0.07155704 C35.5713428 -0.09440754 42.77386265 -0.10232778 49.97644329 -0.10738349 C54.47450258 -0.11064062 58.97255331 -0.11716322 63.47060776 -0.12438488 C75.92652867 -0.1439513 88.38244163 -0.16035512 100.83837891 -0.16326141 C102.03403199 -0.16354277 102.03403199 -0.16354277 103.25383969 -0.16382981 C104.86973715 -0.16419606 106.48563461 -0.16455975 108.10153207 -0.16492092 C109.30472018 -0.16519514 109.30472018 -0.16519514 110.53221512 -0.16547489 C111.33532062 -0.16565544 112.13842612 -0.16583599 112.96586815 -0.16602201 C125.9774014 -0.16956322 138.9887691 -0.19658202 152.00024495 -0.23397278 C165.36168571 -0.27206166 178.72304435 -0.29141893 192.08454061 -0.29172093 C199.58543868 -0.29230539 207.08613931 -0.30078984 214.58698654 -0.32971859 C220.97451957 -0.35424039 227.36178314 -0.36151019 233.74935052 -0.34647106 C237.00722477 -0.33930499 240.26445676 -0.34287094 243.52229309 -0.36288166 C247.05802768 -0.38327512 250.59238475 -0.37282774 254.12810135 -0.35466862 C255.15262618 -0.36786858 256.17715101 -0.38106855 257.23272204 -0.39466852 C264.64078002 -0.30778385 269.44731399 1.59597288 274.83569026 6.70272928 C279.19443664 11.51919789 280.83282544 16.5773511 280.62205887 23.04912472 C279.62588309 30.18628283 276.81031431 35.6198856 271.19237137 40.10381222 C265.41022446 43.66205647 260.21339651 43.54754022 253.59170914 43.52748775 C251.95217969 43.53428442 251.95217969 43.53428442 250.27952844 43.5412184 C246.61005248 43.55389781 242.94072426 43.55223972 239.27122879 43.55058956 C236.64310896 43.55657259 234.0149909 43.56337761 231.38687515 43.57094479 C224.98465619 43.58755128 218.58247405 43.59305418 212.18023535 43.59416954 C206.97542132 43.59512021 201.77061944 43.59923143 196.56580925 43.60557079 C181.80541152 43.62318246 167.04504286 43.63240981 152.28463455 43.63090985 C151.48904854 43.63082993 150.69346253 43.63075002 149.87376785 43.63066769 C149.07720909 43.63058593 148.28065032 43.63050416 147.4599534 43.63041992 C134.55197231 43.62960711 121.64410793 43.64874389 108.7361606 43.67694442 C95.47864987 43.70567982 82.22119605 43.71948435 68.96365339 43.71775687 C61.52204765 43.71709318 54.08056426 43.72257614 46.63898659 43.74411297 C40.30273878 43.76233346 33.96666878 43.7666651 27.6304061 43.75309412 C24.3989366 43.7465686 21.16787855 43.74860982 17.93642807 43.76380062 C14.42937116 43.77921907 10.92320944 43.76996615 7.41617203 43.75453854 C5.89208081 43.76996923 5.89208081 43.76996923 4.33719987 43.78571165 C-3.48255804 43.70971489 -8.85768427 42.02604948 -14.49903488 36.51006222 C-18.49574687 30.57209012 -20.89439361 24.54839157 -19.68653488 17.26006222 C-17.54843714 9.78944689 -13.53514393 5.08165602 -6.86811519 1.20185322 C-4.39878817 0.1358416 -2.68175302 0.0064247 0 0 Z " fill="#000000" transform="translate(125.6865348815918,127.7399377822876)"/>
<path d="M0 0 C1.09565684 -0.00573832 1.09565684 -0.00573832 2.21344817 -0.01159257 C4.64991079 -0.02187383 7.08613561 -0.01793975 9.52261353 -0.01396179 C11.27404497 -0.01831099 13.02547452 -0.02349483 14.77690125 -0.02944946 C19.52695309 -0.04282888 24.27692531 -0.04341927 29.02699232 -0.04088616 C32.99561503 -0.03981566 36.96422168 -0.04470189 40.93284094 -0.04949158 C50.29757555 -0.06058327 59.66227006 -0.06102618 69.02700806 -0.05497742 C78.68025567 -0.04893806 88.33335751 -0.06124847 97.98658025 -0.08254749 C106.28145919 -0.10017487 114.57629178 -0.10616302 122.87118876 -0.10290974 C127.82225103 -0.10109845 132.77320933 -0.10371772 137.72425461 -0.11762428 C142.38151788 -0.13021637 147.03855427 -0.12824544 151.69581413 -0.11521339 C153.40177042 -0.11285102 155.10774275 -0.11557014 156.81368065 -0.12383652 C159.14924163 -0.13433477 161.48404565 -0.12617928 163.81958008 -0.11352539 C165.12442038 -0.11369313 166.42926067 -0.11386087 167.77364159 -0.1140337 C174.23241422 0.52912644 179.89048797 2.6144107 184.53677368 7.26069641 C188.77712209 13.392011 190.27877041 18.82723833 189.53677368 26.26069641 C187.87097271 33.38297928 184.34497409 37.19752877 178.47427368 41.51069641 C173.68324537 44.36492604 169.88102383 44.38965418 164.32078552 44.40786743 C163.2287503 44.41338246 163.2287503 44.41338246 162.11465377 44.41900891 C159.67437993 44.43002468 157.23414871 44.43388601 154.79385376 44.43769836 C153.04434067 44.44396462 151.29482891 44.45061157 149.5453186 44.45761108 C143.79899011 44.47863505 138.0526614 44.4890121 132.30630493 44.49897766 C130.32658054 44.50302587 128.34685629 44.50714282 126.36713219 44.51132774 C117.06543129 44.53037596 107.7637383 44.54460763 98.46202165 44.55293971 C87.73209247 44.56271034 77.00236968 44.58902691 66.27251321 44.62944061 C57.97426963 44.65962094 49.67608516 44.67441042 41.37778777 44.67772073 C36.42381644 44.68006906 31.47006569 44.68900141 26.51615334 44.7141819 C21.85313746 44.73750109 17.1904868 44.74168039 12.52742767 44.73142052 C10.82026897 44.73092598 9.11309206 44.73722219 7.40598869 44.75097656 C-11.61889386 44.89563037 -11.61889386 44.89563037 -18.32303143 38.48128223 C-24.07746116 32.20567706 -24.97437519 27.23895385 -24.84213257 18.74897766 C-24.15200837 12.39556619 -21.12370183 8.59545235 -16.52572632 4.38569641 C-11.15290903 0.65761911 -6.46272717 0.01017351 0 0 Z " fill="#000000" transform="translate(216.46322631835938,233.7393035888672)"/>
</svg>
