<?xml version="1.0" encoding="UTF-8"?>
<svg version="1.1" xmlns="http://www.w3.org/2000/svg" width="512" height="512">
<path d="M0 0 C0.66406109 -0.00205263 1.32812218 -0.00410527 2.01230633 -0.0062201 C4.24727839 -0.01189433 6.4821889 -0.01043233 8.7171669 -0.00901413 C10.33184005 -0.01159752 11.94651255 -0.01461061 13.56118417 -0.01801753 C18.006122 -0.0260938 22.45104369 -0.02787745 26.89598799 -0.028615 C31.68684924 -0.03046445 36.4777021 -0.03801123 41.2685585 -0.04475021 C51.74786228 -0.05833837 62.22716223 -0.06435897 72.70647335 -0.06876087 C79.24814752 -0.0715224 85.78982021 -0.07575958 92.33149338 -0.08026505 C110.43883929 -0.09245819 128.54618401 -0.10275751 146.65353394 -0.10614014 C148.39225988 -0.10646949 148.39225988 -0.10646949 150.1661116 -0.10680549 C151.32805514 -0.10702377 152.48999868 -0.10724204 153.68715262 -0.10746694 C156.04174153 -0.1079104 158.39633044 -0.10835697 160.75091934 -0.10880661 C161.91887984 -0.10902804 163.08684034 -0.10924947 164.29019359 -0.10947761 C183.21854201 -0.11342626 202.14685195 -0.13088213 221.07518551 -0.15416613 C240.5025255 -0.17787134 259.92984617 -0.1903416 279.35720086 -0.19150805 C290.26741013 -0.19242527 301.17756927 -0.19818921 312.08776474 -0.21632767 C321.37744354 -0.23171741 330.66705671 -0.23685576 339.95674583 -0.22858956 C344.69693791 -0.22467912 349.43699775 -0.22563193 354.17717361 -0.23964691 C358.51736861 -0.25236201 362.85733168 -0.25120937 367.19752625 -0.2390562 C368.76685444 -0.23709506 370.33619892 -0.24019688 371.9055042 -0.24890056 C380.99035285 -0.29609305 388.28630001 -0.12792872 396.1581459 4.88142776 C401.06522814 9.78851 403.20189979 15.03773608 403.6581459 21.88142776 C403.55930662 27.77883857 401.88821519 32.37134537 398.0956459 36.88142776 C391.48479715 42.41609184 387.33026926 44.25389931 378.81629181 44.26285553 C378.15223072 44.26490816 377.48816963 44.2669608 376.80398548 44.26907563 C374.56901342 44.27474986 372.33410291 44.27328786 370.09912491 44.27186966 C368.48445176 44.27445305 366.86977926 44.27746614 365.25510764 44.28087306 C360.81016981 44.28894933 356.36524812 44.29073298 351.92030382 44.29147053 C347.12944257 44.29331998 342.33858971 44.30086676 337.54773331 44.30760574 C327.06842953 44.3211939 316.58912958 44.3272145 306.10981846 44.3316164 C299.56814429 44.33437793 293.0264716 44.33861511 286.48479843 44.34312057 C268.37745252 44.35531372 250.2701078 44.36561304 232.16275787 44.36899567 C230.42403193 44.36932502 230.42403193 44.36932502 228.65018021 44.36966102 C227.48823667 44.3698793 226.32629313 44.37009757 225.12913918 44.37032247 C222.77455028 44.37076593 220.41996137 44.3712125 218.06537247 44.37166214 C216.89741197 44.37188357 215.72945147 44.372105 214.52609822 44.37233314 C195.5977498 44.37628179 176.66943986 44.39373766 157.7411063 44.41702166 C138.31376631 44.44072687 118.88644564 44.45319713 99.45909095 44.45436358 C88.54888167 44.4552808 77.63872254 44.46104474 66.72852707 44.4791832 C57.43884827 44.49457294 48.1492351 44.49971128 38.85954598 44.49144509 C34.1193539 44.48753465 29.37929405 44.48848746 24.63911819 44.50250244 C20.2989232 44.51521754 15.95896013 44.5140649 11.61876556 44.50191173 C10.04943737 44.49995059 8.48009289 44.50305241 6.91078761 44.51175609 C-2.17406104 44.55894858 -9.4700082 44.39078425 -17.3418541 39.38142776 C-22.24893633 34.47434553 -24.38560798 29.22511945 -24.8418541 22.38142776 C-24.74269959 15.72568142 -22.31030278 9.84987645 -17.5918541 5.13142776 C-11.71599795 1.06775155 -7.0429566 0.00740879 0 0 Z " fill="#386BE7" transform="translate(66.59185409545898,233.86857223510742)"/>
<path d="M0 0 C1.74750494 -0.00701996 1.74750494 -0.00701996 3.53031301 -0.01418173 C6.7463589 -0.02404411 9.96206232 -0.02053978 13.17809939 -0.01122308 C16.65328165 -0.0044165 20.12841873 -0.01492176 23.60359192 -0.02316284 C30.40447835 -0.03648527 37.20526532 -0.03362911 44.00615561 -0.02492492 C49.53460417 -0.0181429 55.06302491 -0.01723389 60.59147644 -0.02049637 C61.37906069 -0.02095607 62.16664494 -0.02141577 62.97809538 -0.0218894 C64.57818227 -0.0228486 66.17826915 -0.02382124 67.77835602 -0.02480717 C82.77360186 -0.0333567 97.76879263 -0.0235338 112.76402944 -0.00740607 C125.62367904 0.00599672 138.48324738 0.0036685 151.34289551 -0.01016235 C166.28539635 -0.0262259 181.22784896 -0.03253276 196.17035723 -0.02332556 C197.76447581 -0.02236994 199.35859441 -0.02142683 200.95271301 -0.02049637 C201.73699884 -0.02003354 202.52128467 -0.01957072 203.32933673 -0.01909386 C208.84954908 -0.0165063 214.36973076 -0.02086993 219.88993835 -0.02793503 C226.61952447 -0.03635883 233.34900565 -0.03405142 240.07857978 -0.0180928 C243.51048677 -0.01022188 246.94221893 -0.00709819 250.37412453 -0.01704025 C254.09765399 -0.02523536 257.82069136 -0.01495778 261.54418945 0 C263.16443032 -0.01003825 263.16443032 -0.01003825 264.81740332 -0.02027929 C272.22013579 0.03741699 278.16158706 0.76529675 284.02209473 5.69345093 C289.21006299 11.8901908 291.62295708 16.11283022 291.48693848 24.22860718 C290.84030046 30.70674444 288.26320572 35.20234637 283.27209473 39.38095093 C278.12287344 43.16405228 274.66690633 44.50203086 268.35688591 44.515172 C267.36232097 44.51962985 266.36775602 44.52408769 265.34305274 44.52868062 C264.25260504 44.52849626 263.16215734 44.5283119 262.03866577 44.52812195 C260.87849131 44.53179864 259.71831684 44.53547532 258.52298558 44.53926343 C255.30187418 44.5483813 252.08079272 44.552998 248.85967064 44.55565274 C245.38575323 44.55955989 241.91185052 44.56913796 238.4379425 44.5778656 C230.04794652 44.59761854 221.65794935 44.6076948 213.26793593 44.61659339 C209.31532283 44.62097827 205.36271107 44.62634457 201.41009903 44.63158226 C188.26791347 44.64859348 175.12572874 44.66308714 161.98353386 44.670331 C158.57386143 44.67224084 155.16418901 44.67416118 151.7545166 44.67611694 C150.48335645 44.67684255 150.48335645 44.67684255 149.1865163 44.67758282 C135.46181556 44.68588124 121.73720204 44.71121545 108.01253937 44.74369762 C93.91658801 44.7767861 79.82068095 44.79478138 65.72469056 44.79797524 C57.8123961 44.8001387 49.90022882 44.80886323 41.98797226 44.83443642 C35.24882758 44.85616789 28.50984096 44.86418186 21.77066521 44.85446963 C18.3344228 44.84993194 14.89850636 44.85177963 11.46230888 44.87123108 C7.73040685 44.88892419 3.99932823 44.88185517 0.26742554 44.86869812 C-0.80963783 44.87966737 -1.8867012 44.89063661 -2.99640286 44.90193826 C-10.49081794 44.83827953 -17.85023687 43.78993229 -23.67079461 38.67289525 C-29.08768215 32.8739176 -30.20937075 26.90336273 -30.04040527 19.13095093 C-29.38220252 13.33876666 -26.99647243 9.67834916 -22.97790527 5.56845093 C-15.4120696 0.47606153 -8.88849299 -0.05506891 0 0 Z " fill="#3A6BE8" transform="translate(178.7279052734375,105.61904907226563)"/>
<path d="M0 0 C0.81448364 -0.00297112 1.62896729 -0.00594224 2.46813226 -0.0090034 C5.20095353 -0.01768413 7.93373097 -0.01919812 10.66656494 -0.02069092 C12.62459405 -0.02531954 14.58262226 -0.03034426 16.54064941 -0.03573608 C21.86309367 -0.04885801 27.18552531 -0.05530467 32.50798321 -0.05974674 C35.83347175 -0.06267787 39.15895685 -0.06678276 42.48444366 -0.07125092 C52.88979061 -0.08492544 63.29512968 -0.09459226 73.70048499 -0.09845281 C85.71064215 -0.10293327 97.72068548 -0.12048086 109.73080802 -0.1494534 C119.01501567 -0.1710724 128.2991913 -0.18115721 137.58342385 -0.18249393 C143.12808625 -0.18354181 148.67264164 -0.18944627 154.21727753 -0.20731354 C159.43426352 -0.22379786 164.65106211 -0.2259479 169.86806488 -0.21717453 C171.78043113 -0.21640435 173.69280747 -0.22074439 175.60514832 -0.23063278 C178.22103727 -0.24336337 180.8362636 -0.23746953 183.45214844 -0.22705078 C184.20430689 -0.23510719 184.95646533 -0.24316359 185.73141646 -0.25146413 C192.19908809 -0.19144652 197.66655722 1.19501193 202.7300415 5.45294189 C207.91800977 11.64968177 210.33090386 15.87232119 210.19488525 23.98809814 C209.54824723 30.46623541 206.9711525 34.96183734 201.9800415 39.14044189 C195.75796109 43.71176628 191.54751368 44.28952199 183.96008301 44.28088379 C183.14559936 44.28385491 182.33111572 44.28682603 181.49195075 44.28988719 C178.75912947 44.29856792 176.02635204 44.30008191 173.29351807 44.30157471 C171.33548896 44.30620333 169.37746075 44.31122805 167.41943359 44.31661987 C162.09698934 44.32974179 156.7745577 44.33618846 151.4520998 44.34063053 C148.12661125 44.34356165 144.80112615 44.34766655 141.47563934 44.3521347 C131.0702924 44.36580923 120.66495333 44.37547605 110.25959802 44.3793366 C98.24944086 44.38381706 86.23939753 44.40136464 74.22927499 44.43033719 C64.94506734 44.45195619 55.66089171 44.462041 46.37665915 44.46337771 C40.83199676 44.4644256 35.28744137 44.47033006 29.74280548 44.48819733 C24.52581949 44.50468165 19.30902089 44.50683169 14.09201813 44.49805832 C12.17965188 44.49728814 10.26727553 44.50162818 8.35493469 44.51151657 C5.73904573 44.52424716 3.1238194 44.51835332 0.50793457 44.50793457 C-0.24422388 44.51599097 -0.99638233 44.52404738 -1.77133346 44.53234792 C-8.23900508 44.47233031 -13.70647421 43.08587186 -18.7699585 38.82794189 C-23.95792676 32.63120202 -26.37082085 28.4085626 -26.23480225 20.29278564 C-25.58816423 13.81464838 -23.01106949 9.31904645 -18.0199585 5.14044189 C-11.79787808 0.56911751 -7.58743067 -0.0086382 0 0 Z " fill="#3A6BE8" transform="translate(260.01995849609375,361.85955810546875)"/>
</svg>
