<?xml version="1.0" encoding="UTF-8"?>
<svg version="1.1" xmlns="http://www.w3.org/2000/svg" width="512" height="512">
<path d="M0 0 C0.79100098 0.00563965 1.58200195 0.0112793 2.39697266 0.01708984 C3.20859863 0.02272949 4.02022461 0.02836914 4.85644531 0.03417969 C20.39334299 0.3438751 33.9657048 5.2762265 45.08447266 16.32958984 C47.908539 15.04259633 49.92616899 13.66973585 52.14697266 11.51708984 C62.50126529 2.50379902 76.46007517 0.09776801 89.77197266 0.01708984 C90.56289307 0.01153076 91.35381348 0.00597168 92.16870117 0.00024414 C97.82728547 0.07240265 97.82728547 0.07240265 100.08447266 2.32958984 C101.24088416 8.57421195 99.59959406 11.57553913 96.08447266 16.82958984 C94.76858637 18.67548588 93.44074155 20.51315829 92.08447266 22.32958984 C93.07447266 21.83458984 93.07447266 21.83458984 94.08447266 21.32958984 C118.16456661 19.80911401 144.18936145 25.06035951 162.84619141 41.14599609 C170.70796821 48.8156876 180.22810963 59.3623102 180.58447266 70.95458984 C180.08447266 74.32958984 180.08447266 74.32958984 178.08447266 76.32958984 C175.48291016 76.74365234 175.48291016 76.74365234 172.45947266 76.95458984 C171.45658203 77.02935547 170.45369141 77.10412109 169.42041016 77.18115234 C168.64955078 77.23013672 167.87869141 77.27912109 167.08447266 77.32958984 C167.55755859 77.86583984 168.03064453 78.40208984 168.51806641 78.95458984 C184.10789653 97.43142554 196.13116272 123.63498561 196.27197266 148.07958984 C196.28615234 149.20880859 196.30033203 150.33802734 196.31494141 151.50146484 C196.08447266 154.32958984 196.08447266 154.32958984 194.08447266 156.32958984 C191.48291016 156.52490234 191.48291016 156.52490234 188.45947266 156.45458984 C187.45658203 156.43654297 186.45369141 156.41849609 185.42041016 156.39990234 C184.64955078 156.37669922 183.87869141 156.35349609 183.08447266 156.32958984 C183.53177734 157.37373047 183.97908203 158.41787109 184.43994141 159.49365234 C188.02804981 168.13058548 190.90115006 176.69798032 192.95947266 185.82958984 C193.26340942 187.17077881 193.26340942 187.17077881 193.57348633 188.5390625 C199.21796603 214.82474914 195.96941862 240.18801325 182.08447266 263.32958984 C181.46572266 264.38146484 180.84697266 265.43333984 180.20947266 266.51708984 C177.70088793 268.65676505 175.65360132 269.44652009 172.32275391 269.30224609 C167.17321334 267.06448763 164.03788845 260.92379219 161.08447266 256.32958984 C160.56884766 257.46396484 160.05322266 258.59833984 159.52197266 259.76708984 C159.23193359 260.40517578 158.94189453 261.04326172 158.64306641 261.70068359 C157.00196623 269.42418304 160.09914699 277.21751613 162.39697266 284.51708984 C167.11957163 300.11520795 170.46837803 316.00308229 171.08447266 332.32958984 C175.79382556 330.2011886 179.58497355 327.51416736 183.45947266 324.14208984 C184.03036621 323.64942627 184.60125977 323.1567627 185.18945312 322.64916992 C212.16957457 299.17440005 229.92190232 266.96046388 238.08447266 232.32958984 C238.39126953 231.08951172 238.69806641 229.84943359 239.01416016 228.57177734 C239.44175389 225.23763577 239.44175389 225.23763577 237.13525391 222.99365234 C236.23162109 222.32076172 235.32798828 221.64787109 234.39697266 220.95458984 C228.01147566 215.71383181 225.34815929 210.42401503 224.08447266 202.32958984 C223.28017878 192.51096968 222.49773093 182.32584008 229.08447266 174.32958984 C231.54751251 171.81725398 234.11739421 169.43867715 236.80615234 167.16967773 C241.77813075 162.97131135 244.14061074 159.06982612 245.61962891 152.75927734 C245.87164062 151.69708984 246.12365234 150.63490234 246.38330078 149.54052734 C246.6353125 148.43966797 246.88732422 147.33880859 247.14697266 146.20458984 C247.40285156 145.12693359 247.65873047 144.04927734 247.92236328 142.93896484 C249.35830218 136.81130786 250.59580309 130.69949051 251.55493164 124.47851562 C252.08447266 122.32958984 252.08447266 122.32958984 254.08447266 120.32958984 C257.37654563 119.70523118 258.95098619 119.46288082 262.08447266 120.32958984 C265.38486446 122.83788762 267.6589278 125.99335507 270.08447266 129.32958984 C270.47924805 129.86567871 270.87402344 130.40176758 271.28076172 130.95410156 C286.86469556 152.3561186 295.55386695 175.78443581 291.77099609 202.54736328 C289.98650637 211.57021799 285.70101187 218.78221829 278.39697266 224.32958984 C275.08447266 226.32958984 275.08447266 226.32958984 272.08447266 226.32958984 C272.10405029 227.34339722 272.10405029 227.34339722 272.12402344 228.37768555 C272.68813832 280.00315165 247.64709726 329.29211064 213.08447266 366.32958984 C213.50599609 367.49876953 213.92751953 368.66794922 214.36181641 369.87255859 C214.91538374 371.42067064 215.46875907 372.96885135 216.02197266 374.51708984 C216.29976563 375.28601563 216.57755859 376.05494141 216.86376953 376.84716797 C217.13125 377.59804688 217.39873047 378.34892578 217.67431641 379.12255859 C217.92044678 379.80858154 218.16657715 380.49460449 218.42016602 381.20141602 C224.97114257 402.18813511 218.62343513 423.52373096 209.67626953 442.5324707 C207.65271553 446.74546341 207.65271553 446.74546341 207.08447266 451.32958984 C208.85206129 452.74656952 208.85206129 452.74656952 211.14697266 454.01708984 C219.98896202 459.69428553 225.44197231 467.07528539 228.08447266 477.32958984 C228.95896205 483.76513724 229.54004128 491.53655094 226.52197266 497.45458984 C222.26978903 502.46998592 217.32739468 507.92148638 210.45411557 508.58258951 C208.94016657 508.58470278 208.94016657 508.58470278 207.39563274 508.58685875 C206.22853132 508.59330764 205.0614299 508.59975653 203.85896176 508.60640085 C202.57581123 508.60330364 201.29266071 508.60020644 199.97062683 508.59701538 C198.5944776 508.6007512 197.21833048 508.60535245 195.84218675 508.61074603 C192.05658851 508.62299998 188.27107849 508.62271275 184.48546493 508.62035728 C180.40423138 508.61994971 176.32302635 508.6309825 172.24180603 508.64047241 C164.2442451 508.65709667 156.24671365 508.66258261 148.24913689 508.66369717 C141.74900134 508.664647 135.24887553 508.66875404 128.74874306 508.67509842 C110.32509586 508.69271498 91.90147198 508.70193668 73.47781631 508.70043747 C72.48426046 508.70035756 71.49070461 508.70027765 70.46704102 508.70019531 C68.97489028 508.70007267 68.97489028 508.70007267 67.45259509 508.69994755 C51.33002122 508.69913461 35.20754077 508.71827331 19.08499392 508.74647205 C2.53579521 508.7751889 -14.01335793 508.78901299 -30.56258219 508.78728449 C-39.8558415 508.78662016 -49.14900288 508.79213133 -58.44223976 508.81364059 C-66.35479691 508.83183667 -74.26721176 508.83621274 -82.17978076 508.82262175 C-86.21713163 508.81608401 -90.2542094 508.81600372 -94.29153442 508.83332825 C-97.98843679 508.84902886 -101.6848488 508.84622664 -105.38173898 508.82875998 C-107.3507693 508.82422722 -109.31981464 508.8393711 -111.28878623 508.85523927 C-119.39603226 508.79177381 -124.05565682 507.93351913 -130.09521484 502.29443359 C-130.65466797 501.62541016 -131.21412109 500.95638672 -131.79052734 500.26708984 C-132.36544922 499.59548828 -132.94037109 498.92388672 -133.53271484 498.23193359 C-137.56291187 492.6875665 -136.60070663 483.9007257 -135.91552734 477.32958984 C-133.63519723 467.72995624 -127.85075428 459.51788527 -119.77880859 453.82177734 C-117.85302734 452.70458984 -117.85302734 452.70458984 -114.91552734 451.32958984 C-115.5933572 446.30150869 -117.70059815 441.98890709 -119.72802734 437.39208984 C-128.92681698 415.92688124 -132.07021585 394.85005437 -123.38037109 372.63427734 C-115.35384109 354.52642565 -102.05557648 340.67206354 -83.72021484 332.88818359 C-81.91552734 332.32958984 -81.91552734 332.32958984 -78.91552734 332.32958984 C-78.88974609 331.64638672 -78.86396484 330.96318359 -78.83740234 330.25927734 C-77.89856869 313.57364284 -74.29789086 297.4459509 -69.29003906 281.53735352 C-65.66584165 270.69309855 -65.66584165 270.69309855 -67.35302734 259.76708984 C-67.86865234 258.63271484 -68.38427734 257.49833984 -68.91552734 256.32958984 C-69.47240234 257.19583984 -70.02927734 258.06208984 -70.60302734 258.95458984 C-76.32768365 267.47459708 -76.32768365 267.47459708 -80.04833984 269.47802734 C-82.53871262 269.76124621 -83.70600406 269.52943343 -85.91552734 268.32958984 C-99.43371509 255.01188369 -103.78065791 232.45251845 -104.10302734 214.26708984 C-103.90045414 193.90848262 -99.00480935 174.92659899 -90.91552734 156.32958984 C-91.68638672 156.35279297 -92.45724609 156.37599609 -93.25146484 156.39990234 C-94.25435547 156.41794922 -95.25724609 156.43599609 -96.29052734 156.45458984 C-97.28826172 156.47779297 -98.28599609 156.50099609 -99.31396484 156.52490234 C-101.91552734 156.32958984 -101.91552734 156.32958984 -103.91552734 154.32958984 C-107.1475538 131.17926081 -94.51110657 103.17881419 -81.12573242 84.92626953 C-76.78413126 79.19819376 -76.78413126 79.19819376 -74.91552734 77.32958984 C-76.07181641 77.25611328 -76.07181641 77.25611328 -77.25146484 77.18115234 C-78.25435547 77.10638672 -79.25724609 77.03162109 -80.29052734 76.95458984 C-81.78712891 76.85017578 -81.78712891 76.85017578 -83.31396484 76.74365234 C-85.91552734 76.32958984 -85.91552734 76.32958984 -87.91552734 74.32958984 C-88.46451349 68.33542713 -87.52444998 64.28135167 -84.54052734 59.01708984 C-84.1832959 58.37191406 -83.82606445 57.72673828 -83.45800781 57.06201172 C-74.51131705 41.54467442 -59.73152648 30.77759651 -42.65966797 25.65234375 C-10.38470672 17.09500016 -10.38470672 17.09500016 0.08447266 22.32958984 C-0.49302734 21.55615234 -1.07052734 20.78271484 -1.66552734 19.98583984 C-8.48838382 10.4148884 -8.48838382 10.4148884 -8.54052734 5.70458984 C-7.48743129 0.01787116 -5.36775945 0.06904247 0 0 Z M12.08447266 14.32958984 C13.17924997 17.61392179 14.55625679 19.98259376 16.70947266 22.64208984 C19.67667031 26.61289847 19.58691083 29.47268753 19.08447266 34.32958984 C18.08447266 35.32958984 18.08447266 35.32958984 16.08056641 35.46240234 C15.23623047 35.45982422 14.39189453 35.45724609 13.52197266 35.45458984 C12.28253906 35.45845703 12.28253906 35.45845703 11.01806641 35.46240234 C8.08447266 35.32958984 8.08447266 35.32958984 4.33447266 34.83740234 C-18.44073801 31.85145616 -41.18535242 35.53307298 -59.91552734 49.32958984 C-64.37633692 53.13537348 -67.96860067 57.26087596 -70.91552734 62.32958984 C-70.91552734 62.98958984 -70.91552734 63.64958984 -70.91552734 64.32958984 C-69.69994141 64.39017578 -68.48435547 64.45076172 -67.23193359 64.51318359 C-65.64728507 64.59757316 -64.06265033 64.68222195 -62.47802734 64.76708984 C-61.67558594 64.80640625 -60.87314453 64.84572266 -60.04638672 64.88623047 C-54.02880859 65.21630859 -54.02880859 65.21630859 -52.91552734 66.32958984 C-52.42818705 69.47022731 -52.17636595 71.31315915 -52.91552734 74.32958984 C-54.62474369 76.30700769 -56.51311663 77.76723006 -58.57177734 79.37646484 C-75.10301693 93.15249783 -85.8469034 116.58213482 -89.91552734 137.32958984 C-90.04767424 140.11390262 -90.04767424 140.11390262 -89.91552734 142.32958984 C-89.13177734 142.16458984 -88.34802734 141.99958984 -87.54052734 141.82958984 C-83.00038604 141.20336346 -78.49319506 141.03648118 -73.91552734 141.32958984 C-72.91552734 142.32958984 -72.91552734 142.32958984 -72.41552734 145.51708984 C-72.47639683 150.45621401 -74.62948737 154.00545153 -76.92431641 158.27954102 C-88.95523339 181.30081462 -95.34608048 211.19552195 -87.70068359 236.52490234 C-85.63446369 243.05644532 -85.63446369 243.05644532 -82.91552734 249.32958984 C-79.54964998 248.20763072 -79.36499948 247.86690221 -77.71630859 244.95068359 C-77.31089844 244.27714844 -76.90548828 243.60361328 -76.48779297 242.90966797 C-75.65120562 241.48682096 -74.83066024 240.05441355 -74.02685547 238.61279297 C-72.77645238 236.5718377 -71.69944433 234.93022384 -69.91552734 233.32958984 C-66.98957331 232.68740607 -64.94369567 232.94582836 -61.91552734 233.32958984 C-60.12460945 236.36097034 -59.4418741 239.32464922 -58.77612305 242.76049805 C-55.61284067 258.69738115 -48.44466455 272.98760988 -37.91552734 285.32958984 C-37.18462891 286.19841797 -36.45373047 287.06724609 -35.70068359 287.96240234 C-22.78377983 302.8088963 -8.20572074 312.55207042 9.51293945 320.71777344 C22.98178066 326.97851166 34.68720481 335.70912484 45.08447266 346.32958984 C48.72677697 344.78893698 51.07409688 342.57007754 53.89697266 339.82958984 C63.72154313 330.70084341 74.50432627 324.43963804 86.64697266 318.82958984 C114.89150674 305.74367255 135.76587564 283.85868487 147.76806641 255.07958984 C149.77055658 249.3751668 151.07596186 243.56230931 152.32275391 237.65380859 C153.08447266 234.32958984 153.08447266 234.32958984 154.08447266 233.32958984 C159.0784326 232.56940989 159.0784326 232.56940989 162.08447266 233.32958984 C164.62241181 235.63544607 166.23111185 238.38938985 167.95947266 241.32958984 C168.88892615 242.83296818 169.82355087 244.33316598 170.76416016 245.82958984 C171.1636084 246.49990234 171.56305664 247.17021484 171.97460938 247.86083984 C172.34086426 248.34552734 172.70711914 248.83021484 173.08447266 249.32958984 C173.74447266 249.32958984 174.40447266 249.32958984 175.08447266 249.32958984 C186.90426086 220.1410289 183.58987279 193.07698968 171.89306641 164.19140625 C170.64799884 161.32459306 169.17963671 158.58614744 167.70947266 155.82958984 C165.17028192 150.96998982 164.36623894 147.76764513 165.08447266 142.32958984 C166.08447266 141.32958984 166.08447266 141.32958984 168.15869141 141.19677734 C172.91248715 141.21098899 177.40940033 141.34536409 182.08447266 142.32958984 C181.32583354 118.81177733 167.23471106 95.67209299 151.08447266 79.32958984 C149.94860889 78.48271797 148.80334469 77.6482364 147.64697266 76.82958984 C144.85657275 74.10724847 144.6988424 73.73640676 144.64697266 70.07958984 C145.08447266 66.32958984 145.08447266 66.32958984 146.08447266 65.32958984 C148.94325175 65.09257745 151.78330563 64.90739803 154.64697266 64.76708984 C155.45328125 64.72390625 156.25958984 64.68072266 157.09033203 64.63623047 C159.0881607 64.52983723 161.08629335 64.42918096 163.08447266 64.32958984 C159.32478356 53.61447591 149.58395569 46.59469657 139.77978516 41.66943359 C123.31105876 34.46215226 105.04248061 32.73119183 87.28759766 35.10302734 C82.91540797 35.55264969 78.47092846 35.59591037 74.08447266 35.32958984 C73.08447266 34.32958984 73.08447266 34.32958984 72.58447266 30.89208984 C72.58447266 25.64961768 75.43577211 22.42693221 78.55322266 18.43115234 C80.28076801 16.49355921 80.28076801 16.49355921 80.08447266 14.32958984 C71.53377854 14.71825776 63.23962914 18.89050726 57.08447266 24.76708984 C54.13280286 28.00021471 52.06956099 31.4388167 50.08447266 35.32958984 C45.03573216 36.11301509 45.03573216 36.11301509 42.08447266 35.32958984 C40.24994313 33.29624431 39.01408275 31.14642144 37.63525391 28.78271484 C33.33443892 21.97941053 26.63271725 17.78276934 19.08447266 15.32958984 C16.72106907 14.8169398 14.5010798 14.53525854 12.08447266 14.32958984 Z M262.08447266 142.32958984 C261.79314453 143.57353516 261.50181641 144.81748047 261.20166016 146.09912109 C258.18639191 158.55229169 255.38701504 168.53563568 245.66186523 177.35864258 C239.52666965 182.77889987 239.52666965 182.77889987 236.03759766 189.98193359 C235.8856146 196.98075316 237.19961899 204.3854298 241.08447266 210.32958984 C246.34909278 215.43025986 251.98940502 215.92533599 259.08447266 216.32958984 C264.55673381 216.03803495 269.75830505 215.00908508 273.83837891 211.05615234 C280.19518778 202.2482855 280.76842561 190.48811451 279.52197266 180.07958984 C277.009586 166.22840552 270.97629002 153.89317907 263.08447266 142.32958984 C262.75447266 142.32958984 262.42447266 142.32958984 262.08447266 142.32958984 Z M253.08447266 228.32958984 C251.74705468 232.09513561 250.65138433 235.88899596 249.63916016 239.75146484 C246.17244539 252.89934789 242.16037218 265.1629353 236.08447266 277.32958984 C235.77429199 277.97009277 235.46411133 278.6105957 235.14453125 279.27050781 C223.98353256 302.22403711 207.21922841 322.73224384 187.08447266 338.32958984 C191.13164634 342.51166931 195.43445022 346.37379478 199.77978516 350.24365234 C201.60461655 351.8952794 203.3674925 353.56772132 205.08447266 355.32958984 C237.3796334 321.63333753 258.3743514 275.26214903 259.08447266 228.32958984 C257.10447266 228.32958984 255.12447266 228.32958984 253.08447266 228.32958984 Z M-55.91552734 283.32958984 C-73.25018685 333.55747619 -68.56537816 385.45388304 -52.66552734 435.32958984 C-52.44524872 436.02482758 -52.22497009 436.72006531 -51.99801636 437.43637085 C-51.37059339 439.40399944 -50.7315278 441.36737376 -50.08740234 443.32958984 C-49.71711914 444.46396484 -49.34683594 445.59833984 -48.96533203 446.76708984 C-48.18705394 449.46804525 -48.18705394 449.46804525 -45.91552734 450.32958984 C-44.92552734 449.99958984 -43.93552734 449.66958984 -42.91552734 449.32958984 C-40.7088232 449.23509622 -38.49924829 449.19969246 -36.29052734 449.20458984 C-35.12263672 449.20201172 -33.95474609 449.19943359 -32.75146484 449.19677734 C-29.91552734 449.32958984 -29.91552734 449.32958984 -28.91552734 450.32958984 C-28.77437573 453.00017835 -28.87305627 455.65391222 -28.91552734 458.32958984 C-32.18405797 459.85490414 -35.19396887 460.54594157 -38.72802734 461.07958984 C-47.06698122 462.69038331 -51.9455305 467.80973044 -56.78662109 474.49755859 C-59.75042859 479.30733616 -59.61725737 484.87523376 -58.91552734 490.32958984 C-56.42432825 493.99311792 -55.07862882 495.10382813 -50.73583984 495.94677734 C-49.80513672 496.07310547 -48.87443359 496.19943359 -47.91552734 496.32958984 C-47.82464844 494.83105469 -47.82464844 494.83105469 -47.73193359 493.30224609 C-47.64814453 492.01189453 -47.56435547 490.72154297 -47.47802734 489.39208984 C-47.39681641 488.10431641 -47.31560547 486.81654297 -47.23193359 485.48974609 C-46.91552734 482.32958984 -46.91552734 482.32958984 -45.91552734 481.32958984 C-44.10302734 481.19677734 -44.10302734 481.19677734 -41.91552734 481.20458984 C-41.19365234 481.20201172 -40.47177734 481.19943359 -39.72802734 481.19677734 C-37.91552734 481.32958984 -37.91552734 481.32958984 -36.91552734 482.32958984 C-36.68024962 484.67946246 -36.50166318 487.03515023 -36.35302734 489.39208984 C-36.22734375 491.32761719 -36.22734375 491.32761719 -36.09912109 493.30224609 C-36.03853516 494.30126953 -35.97794922 495.30029297 -35.91552734 496.32958984 C-31.95552734 496.32958984 -27.99552734 496.32958984 -23.91552734 496.32958984 C-23.82464844 494.83105469 -23.82464844 494.83105469 -23.73193359 493.30224609 C-23.64814453 492.01189453 -23.56435547 490.72154297 -23.47802734 489.39208984 C-23.39681641 488.10431641 -23.31560547 486.81654297 -23.23193359 485.48974609 C-22.91552734 482.32958984 -22.91552734 482.32958984 -21.91552734 481.32958984 C-20.10302734 481.19677734 -20.10302734 481.19677734 -17.91552734 481.20458984 C-17.19365234 481.20201172 -16.47177734 481.19943359 -15.72802734 481.19677734 C-13.91552734 481.32958984 -13.91552734 481.32958984 -12.91552734 482.32958984 C-12.68024962 484.67946246 -12.50166318 487.03515023 -12.35302734 489.39208984 C-12.26923828 490.68244141 -12.18544922 491.97279297 -12.09912109 493.30224609 C-12.03853516 494.30126953 -11.97794922 495.30029297 -11.91552734 496.32958984 C-7.95552734 496.32958984 -3.99552734 496.32958984 0.08447266 496.32958984 C0.14505859 495.33056641 0.20564453 494.33154297 0.26806641 493.30224609 C0.39375 491.36671875 0.39375 491.36671875 0.52197266 489.39208984 C0.64378906 487.46042969 0.64378906 487.46042969 0.76806641 485.48974609 C1.08447266 482.32958984 1.08447266 482.32958984 2.08447266 481.32958984 C3.89697266 481.19677734 3.89697266 481.19677734 6.08447266 481.20458984 C6.80634766 481.20201172 7.52822266 481.19943359 8.27197266 481.19677734 C10.08447266 481.32958984 10.08447266 481.32958984 11.08447266 482.32958984 C11.31975038 484.67946246 11.49833682 487.03515023 11.64697266 489.39208984 C11.73076172 490.68244141 11.81455078 491.97279297 11.90087891 493.30224609 C11.96146484 494.30126953 12.02205078 495.30029297 12.08447266 496.32958984 C15.51556358 495.53779963 18.47897088 494.68668063 21.52197266 492.89208984 C24.14877761 488.58412972 23.7311487 484.22390645 23.08447266 479.32958984 C21.20025379 472.25441037 15.88166135 467.49418071 10.08447266 463.32958984 C6.55843093 461.64322206 3.18203512 460.88581948 -0.66552734 460.26708984 C-5.81026419 459.434853 -5.81026419 459.434853 -6.91552734 458.32958984 C-7.04833984 456.51708984 -7.04833984 456.51708984 -7.04052734 454.32958984 C-7.04439453 453.24677734 -7.04439453 453.24677734 -7.04833984 452.14208984 C-6.91552734 450.32958984 -6.91552734 450.32958984 -5.91552734 449.32958984 C-3.5623918 449.25687243 -1.20719066 449.24588117 1.14697266 449.26708984 C2.43732422 449.27611328 3.72767578 449.28513672 5.05712891 449.29443359 C6.55566406 449.31183594 6.55566406 449.31183594 8.08447266 449.32958984 C8.09478012 448.54254166 8.10508759 447.75549347 8.1157074 446.94459534 C8.21351453 439.54260878 8.31600451 432.14070916 8.42381191 424.73886204 C8.4790756 420.9331158 8.53250095 417.12736192 8.58178711 413.3215332 C8.62938006 409.6515965 8.68172075 405.98175593 8.73741341 402.31193352 C8.75786002 400.90886758 8.77656923 399.50577525 8.79354668 398.10266304 C8.81753952 396.14382058 8.84817465 394.18506284 8.87915039 392.22631836 C8.89469467 391.10935074 8.91023895 389.99238312 8.92625427 388.84156799 C9.08447266 386.32958984 9.08447266 386.32958984 10.08447266 385.32958984 C11.89697266 385.19677734 11.89697266 385.19677734 14.08447266 385.20458984 C14.80634766 385.20201172 15.52822266 385.19943359 16.27197266 385.19677734 C18.08447266 385.32958984 18.08447266 385.32958984 19.08447266 386.32958984 C19.16629817 388.44030785 19.1779231 390.553766 19.1628418 392.66601562 C19.15672325 394.03850221 19.15079675 395.41098966 19.14503479 396.78347778 C19.14036257 397.51489109 19.13569035 398.2463044 19.13087654 398.99988174 C19.11175455 402.86762083 19.12690966 406.7352742 19.13720703 410.60302734 C19.14944307 415.52784041 19.15124974 420.45178738 19.10864258 425.37646484 C19.07514422 429.35282643 19.08075567 433.32747144 19.11221123 437.30382919 C19.11712453 438.81641605 19.10790575 440.32912009 19.08400154 441.84152603 C18.7235744 450.24418412 18.7235744 450.24418412 21.85752869 457.74621582 C23.94493427 459.63189586 23.94493427 459.63189586 26.1673584 461.03897095 C29.04559938 462.97662917 30.11663727 465.47431619 31.52197266 468.57958984 C31.99505859 469.59537109 32.46814453 470.61115234 32.95556641 471.65771484 C34.94183262 476.35877397 35.23635811 480.29304881 35.20947266 485.32958984 C35.21333984 486.05404297 35.21720703 486.77849609 35.22119141 487.52490234 C35.21529193 490.72241864 35.10253063 493.27541591 34.08447266 496.32958984 C42.00447266 496.32958984 49.92447266 496.32958984 58.08447266 496.32958984 C57.75447266 495.33958984 57.42447266 494.34958984 57.08447266 493.32958984 C56.15256237 481.84046733 56.92027278 472.16252735 64.12744141 462.62646484 C69.16694154 456.7883554 69.16694154 456.7883554 72.08447266 455.32958984 C72.09478012 454.4673732 72.10508759 453.60515656 72.1157074 452.71681213 C72.21350864 444.60845836 72.3159978 436.50018053 72.42381191 428.39195347 C72.47907901 424.22299968 72.53250492 420.05403894 72.58178711 415.88500977 C72.629375 411.86495091 72.68171552 407.84497995 72.73741341 403.82502556 C72.75786232 402.28798537 72.77657112 400.75092105 72.79354668 399.21383858 C72.81753486 397.06816978 72.84759649 394.92266855 72.87915039 392.77709961 C72.89469467 391.55354263 72.91023895 390.32998566 72.92625427 389.0693512 C73.08447266 386.32958984 73.08447266 386.32958984 74.08447266 385.32958984 C75.89697266 385.19677734 75.89697266 385.19677734 78.08447266 385.20458984 C78.80634766 385.20201172 79.52822266 385.19943359 80.27197266 385.19677734 C82.08447266 385.32958984 82.08447266 385.32958984 83.08447266 386.32958984 C83.20810563 388.2924675 83.26242705 390.25974143 83.28979492 392.22631836 C83.30974014 393.4875502 83.32968536 394.74878204 83.35023499 396.04823303 C83.36722061 397.43498611 83.38409937 398.8217405 83.40087891 400.20849609 C83.42144191 401.61954874 83.4424382 403.03059514 83.46385193 404.44163513 C83.5191402 408.16192575 83.56851952 411.88227257 83.61669922 415.60266113 C83.66686508 419.39645409 83.72257673 423.19016508 83.77783203 426.98388672 C83.88549616 434.43238508 83.98692262 441.88095144 84.08447266 449.32958984 C85.08349609 449.31798828 86.08251953 449.30638672 87.11181641 449.29443359 C88.40216797 449.28541016 89.69251953 449.27638672 91.02197266 449.26708984 C92.30974609 449.25548828 93.59751953 449.24388672 94.92431641 449.23193359 C98.08447266 449.32958984 98.08447266 449.32958984 99.08447266 450.32958984 C99.22562427 453.00017835 99.12694373 455.65391222 99.08447266 458.32958984 C95.81594203 459.85490414 92.80603113 460.54594157 89.27197266 461.07958984 C80.93301878 462.69038331 76.0544695 467.80973044 71.21337891 474.49755859 C68.24957141 479.30733616 68.38274263 484.87523376 69.08447266 490.32958984 C71.57567175 493.99311792 72.92137118 495.10382813 77.26416016 495.94677734 C78.19486328 496.07310547 79.12556641 496.19943359 80.08447266 496.32958984 C80.14505859 495.33056641 80.20564453 494.33154297 80.26806641 493.30224609 C80.35185547 492.01189453 80.43564453 490.72154297 80.52197266 489.39208984 C80.64378906 487.46042969 80.64378906 487.46042969 80.76806641 485.48974609 C81.08447266 482.32958984 81.08447266 482.32958984 82.08447266 481.32958984 C83.89697266 481.19677734 83.89697266 481.19677734 86.08447266 481.20458984 C86.80634766 481.20201172 87.52822266 481.19943359 88.27197266 481.19677734 C90.08447266 481.32958984 90.08447266 481.32958984 91.08447266 482.32958984 C91.31975038 484.67946246 91.49833682 487.03515023 91.64697266 489.39208984 C91.73076172 490.68244141 91.81455078 491.97279297 91.90087891 493.30224609 C91.96146484 494.30126953 92.02205078 495.30029297 92.08447266 496.32958984 C96.04447266 496.32958984 100.00447266 496.32958984 104.08447266 496.32958984 C104.14505859 495.33056641 104.20564453 494.33154297 104.26806641 493.30224609 C104.35185547 492.01189453 104.43564453 490.72154297 104.52197266 489.39208984 C104.64378906 487.46042969 104.64378906 487.46042969 104.76806641 485.48974609 C105.08447266 482.32958984 105.08447266 482.32958984 106.08447266 481.32958984 C107.89697266 481.19677734 107.89697266 481.19677734 110.08447266 481.20458984 C110.80634766 481.20201172 111.52822266 481.19943359 112.27197266 481.19677734 C114.08447266 481.32958984 114.08447266 481.32958984 115.08447266 482.32958984 C115.31975038 484.67946246 115.49833682 487.03515023 115.64697266 489.39208984 C115.73076172 490.68244141 115.81455078 491.97279297 115.90087891 493.30224609 C115.96146484 494.30126953 116.02205078 495.30029297 116.08447266 496.32958984 C120.04447266 496.32958984 124.00447266 496.32958984 128.08447266 496.32958984 C128.14505859 495.33056641 128.20564453 494.33154297 128.26806641 493.30224609 C128.35185547 492.01189453 128.43564453 490.72154297 128.52197266 489.39208984 C128.64378906 487.46042969 128.64378906 487.46042969 128.76806641 485.48974609 C129.08447266 482.32958984 129.08447266 482.32958984 130.08447266 481.32958984 C131.89697266 481.19677734 131.89697266 481.19677734 134.08447266 481.20458984 C134.80634766 481.20201172 135.52822266 481.19943359 136.27197266 481.19677734 C138.08447266 481.32958984 138.08447266 481.32958984 139.08447266 482.32958984 C139.31975038 484.67946246 139.49833682 487.03515023 139.64697266 489.39208984 C139.73076172 490.68244141 139.81455078 491.97279297 139.90087891 493.30224609 C139.96146484 494.30126953 140.02205078 495.30029297 140.08447266 496.32958984 C143.51556358 495.53779963 146.47897088 494.68668063 149.52197266 492.89208984 C152.14877761 488.58412972 151.7311487 484.22390645 151.08447266 479.32958984 C149.20025379 472.25441037 143.88166135 467.49418071 138.08447266 463.32958984 C134.55843093 461.64322206 131.18203512 460.88581948 127.33447266 460.26708984 C122.18973581 459.434853 122.18973581 459.434853 121.08447266 458.32958984 C120.95166016 456.51708984 120.95166016 456.51708984 120.95947266 454.32958984 C120.95689453 453.60771484 120.95431641 452.88583984 120.95166016 452.14208984 C121.08447266 450.32958984 121.08447266 450.32958984 122.08447266 449.32958984 C124.18668959 449.22990313 126.2923987 449.19990781 128.39697266 449.20458984 C129.54810547 449.20201172 130.69923828 449.19943359 131.88525391 449.19677734 C134.52558694 449.30638824 136.56889491 449.64243759 139.08447266 450.32958984 C161.00775318 398.1678151 167.28862417 337.35849459 148.08447266 283.32958984 C145.45245846 285.87614904 143.14393175 288.45569383 140.95947266 291.39208984 C126.72474741 309.77986389 109.56329447 322.17142581 88.52197266 331.76708984 C74.60512716 338.16135375 60.36847042 347.38685613 52.01806641 360.59912109 C50.08447266 363.32958984 50.08447266 363.32958984 46.27197266 364.26708984 C43.45327161 364.04866652 42.36859937 363.60613984 40.32666016 361.61865234 C39.15480496 360.0652629 38.01506697 358.48734792 36.90087891 356.89208984 C27.9219483 344.22503936 14.38394862 336.67633093 0.58447266 330.32958984 C-21.25926672 320.2721112 -40.20936231 305.3180326 -53.60302734 285.16552734 C-54.03615234 284.55966797 -54.46927734 283.95380859 -54.91552734 283.32958984 C-55.24552734 283.32958984 -55.57552734 283.32958984 -55.91552734 283.32958984 Z M172.08447266 346.32958984 C172.04483398 347.22863037 172.00519531 348.1276709 171.96435547 349.05395508 C170.40761855 382.82267503 165.21703512 413.52170284 153.89233398 445.49707031 C153.51359131 446.58906738 153.13484863 447.68106445 152.74462891 448.80615234 C152.22848022 450.26142334 152.22848022 450.26142334 151.7019043 451.74609375 C151.05581143 454.44951595 151.08694879 455.76800292 152.08447266 458.32958984 C153.31455721 459.87626808 153.31455721 459.87626808 154.83447266 461.32958984 C162.30239016 469.86177578 163.74416814 479.04468213 163.35791016 489.95849609 C163.08447266 493.32958984 163.08447266 493.32958984 162.08447266 496.32958984 C171.98447266 496.32958984 181.88447266 496.32958984 192.08447266 496.32958984 C192.41447266 491.70958984 192.74447266 487.08958984 193.08447266 482.32958984 C194.08447266 481.32958984 194.08447266 481.32958984 195.89697266 481.19677734 C196.61884766 481.19935547 197.34072266 481.20193359 198.08447266 481.20458984 C198.80634766 481.20201172 199.52822266 481.19943359 200.27197266 481.19677734 C202.08447266 481.32958984 202.08447266 481.32958984 203.08447266 482.32958984 C203.31975038 484.67946246 203.49833682 487.03515023 203.64697266 489.39208984 C203.73076172 490.68244141 203.81455078 491.97279297 203.90087891 493.30224609 C203.96146484 494.30126953 204.02205078 495.30029297 204.08447266 496.32958984 C207.51556358 495.53779963 210.47897088 494.68668063 213.52197266 492.89208984 C216.14877761 488.58412972 215.7311487 484.22390645 215.08447266 479.32958984 C213.20025379 472.25441037 207.88166135 467.49418071 202.08447266 463.32958984 C198.55843093 461.64322206 195.18203512 460.88581948 191.33447266 460.26708984 C186.18973581 459.434853 186.18973581 459.434853 185.08447266 458.32958984 C184.94332104 455.65900133 185.04200158 453.00526747 185.08447266 450.32958984 C186.27298828 450.11689453 187.46150391 449.90419922 188.68603516 449.68505859 C193.18264469 447.99164614 194.42928269 445.46071341 196.42041016 441.19287109 C197.46475185 438.68299647 198.47375721 436.17400684 199.45947266 433.64208984 C199.98170052 432.37347485 200.50642108 431.10588298 201.03369141 429.83935547 C207.545446 414.01069718 210.48173534 396.70735145 204.33056641 380.16943359 C203.91935547 379.23228516 203.50814453 378.29513672 203.08447266 377.32958984 C202.68357422 376.40275391 202.28267578 375.47591797 201.86962891 374.52099609 C196.07884975 362.68766478 186.71652157 353.40104781 175.08447266 347.32958984 C174.09447266 346.99958984 173.10447266 346.66958984 172.08447266 346.32958984 Z M-98.59521484 358.91552734 C-110.68363824 371.49237189 -115.38153208 386.2686995 -115.27246094 403.34570312 C-115.10923737 410.99863249 -113.85903582 417.23497966 -110.91552734 424.32958984 C-110.57166992 425.23128906 -110.2278125 426.13298828 -109.87353516 427.06201172 C-108.67339593 430.20824138 -107.42612415 433.33212946 -106.16552734 436.45458984 C-105.77187988 437.47601074 -105.37823242 438.49743164 -104.97265625 439.54980469 C-102.85222953 444.86427411 -102.85222953 444.86427411 -98.80419922 448.67236328 C-96.38617176 449.64465265 -96.38617176 449.64465265 -92.91552734 450.32958984 C-92.91552734 452.96958984 -92.91552734 455.60958984 -92.91552734 458.32958984 C-96.18405797 459.85490414 -99.19396887 460.54594157 -102.72802734 461.07958984 C-111.06698122 462.69038331 -115.9455305 467.80973044 -120.78662109 474.49755859 C-123.75042859 479.30733616 -123.61725737 484.87523376 -122.91552734 490.32958984 C-120.42432825 493.99311792 -119.07862882 495.10382813 -114.73583984 495.94677734 C-113.80513672 496.07310547 -112.87443359 496.19943359 -111.91552734 496.32958984 C-111.85494141 495.33056641 -111.79435547 494.33154297 -111.73193359 493.30224609 C-111.64814453 492.01189453 -111.56435547 490.72154297 -111.47802734 489.39208984 C-111.39681641 488.10431641 -111.31560547 486.81654297 -111.23193359 485.48974609 C-110.91552734 482.32958984 -110.91552734 482.32958984 -109.91552734 481.32958984 C-108.10302734 481.19677734 -108.10302734 481.19677734 -105.91552734 481.20458984 C-105.19365234 481.20201172 -104.47177734 481.19943359 -103.72802734 481.19677734 C-101.91552734 481.32958984 -101.91552734 481.32958984 -100.91552734 482.32958984 C-100.42052734 489.25958984 -100.42052734 489.25958984 -99.91552734 496.32958984 C-90.01552734 496.32958984 -80.11552734 496.32958984 -69.91552734 496.32958984 C-70.24552734 495.33958984 -70.57552734 494.34958984 -70.91552734 493.32958984 C-71.74127643 483.14928329 -71.3849289 474.31503526 -65.91552734 465.32958984 C-64.05640909 463.2445628 -62.21029866 461.33811348 -60.07568359 459.53662109 C-58.08982455 455.75880844 -59.73051137 452.19082062 -60.91552734 448.32958984 C-62.25208875 444.11097915 -63.64500098 439.9131113 -65.05514526 435.71859741 C-74.84872697 406.40536666 -79.01819674 377.21013955 -79.91552734 346.32958984 C-86.13711677 346.32958984 -94.37422537 354.95917671 -98.59521484 358.91552734 Z " fill="#000000" transform="translate(177.91552734375,1.67041015625)"/>
<path d="M0 0 C1.86850382 1.53458865 1.86850382 1.53458865 3.6875 2.625 C7.26226658 2.18905286 8.9021056 0.45857117 11.75 -1.75 C21.25306754 -8.71754193 33.5895933 -10.11826465 45 -8.875 C57.69920641 -6.63485393 68.7275229 0.07661172 76.375 10.375 C82.22670788 19.10653715 84.76911063 27.70026197 85 38.1875 C85.05607422 39.82912109 85.05607422 39.82912109 85.11328125 41.50390625 C84.5776008 51.14365708 80.12386036 60.10975464 75.91503906 68.60766602 C68.83008325 82.61345346 68.83008325 82.61345346 70.5859375 97.6171875 C70.94945312 98.60976562 71.31296875 99.60234375 71.6875 100.625 C73.18954143 112.14065094 69.52433187 123.41360414 62.6875 132.625 C59.81107848 135.99034968 57.11343118 138.91528996 53.12109375 140.90234375 C49.80320454 143.25096195 49.43207462 145.38620488 48.3125 149.25 C44.63736014 160.34390046 37.18066565 169.52765162 26.80859375 175.19921875 C15.23661101 180.57687784 0.80164281 182.22321356 -11.5 178 C-22.33675309 173.16670637 -32.12223051 165.50247967 -37.3125 154.625 C-37.93979274 152.59031969 -38.54274379 150.54802291 -39.125 148.5 C-40.78642711 143.15395632 -42.58955165 141.00560433 -47.2265625 138.0234375 C-55.45015081 132.51024534 -59.66181787 123.46801767 -61.9296875 114.06640625 C-63.05383667 106.89708757 -62.36938009 100.71971778 -60.37890625 93.76953125 C-58.15846451 84.31789685 -61.80788686 77.52753676 -66 69.1875 C-67.00768871 67.0924088 -68.0035583 64.99216481 -68.99458313 62.8891449 C-69.60896885 61.59539272 -70.23474013 60.30695467 -70.87443542 59.02552795 C-76.3217207 47.90542653 -77.03533147 35.648751 -73.6875 23.75 C-71.70352133 18.03642186 -69.00013185 13.38980852 -65.3125 8.625 C-64.590625 7.59375 -63.86875 6.5625 -63.125 5.5 C-55.76801574 -2.96170714 -42.99228992 -8.59269051 -31.88671875 -9.41015625 C-20.27550021 -9.25158119 -9.14564952 -7.44571467 0 0 Z M-50.9375 12.25 C-58.28096179 18.88768285 -62.19455488 27.91736274 -62.75 37.6875 C-62.49790924 47.04006723 -58.47209695 55.22912989 -54.53125 63.5390625 C-54.03471924 64.59198486 -53.53818848 65.64490723 -53.02661133 66.72973633 C-52.02614458 68.83194848 -51.0083028 70.92599908 -49.97143555 73.01049805 C-46.03543744 81.21548334 -44.92791524 87.44026381 -47.8125 96.1875 C-50.57196381 105.63537849 -49.28158407 113.12669617 -44.625 121.75 C-38.81085499 128.9783965 -32.69164646 133.47862452 -23.5 135.4375 C-15.41550261 136.18954627 -9.0996874 133.7039584 -2.3125 129.625 C-0.52758438 118.34187586 -0.52758438 118.34187586 -3.52392578 107.875 C-6.15868857 105.47293706 -8.9001727 104.01378616 -12.078125 102.37890625 C-16.09094301 100.20287329 -18.28365139 97.68269722 -20.3125 93.625 C-21.49136346 83.31836516 -21.49136346 83.31836516 -18.1875 79.125 C-9.23118755 71.33690221 1.10162232 72.01830701 12.33300781 72.43701172 C18.26227011 72.91041819 22.68707926 75.01490526 27.25 78.6875 C30.52582195 83.10273828 30.45488858 88.37073736 29.6875 93.625 C27.10569251 99.91958374 22.75264727 102.08954381 16.8125 104.875 C13.25597435 106.63714609 13.25597435 106.63714609 10.6875 109.625 C9.03208164 116.10403589 9.89478682 123.05814525 10.6875 129.625 C20.79093172 134.65814337 28.58286783 137.16714742 39.6875 133.625 C47.96722133 129.92523263 53.81554327 123.50895706 57.125 115.125 C59.67832415 107.1128449 58.95848221 101.55783957 56.34375 93.62890625 C54.00078399 82.90425828 58.02296363 75.43693399 62.5625 66 C63.5455787 63.92359079 64.52362343 61.84498041 65.49661255 59.76382446 C66.09975318 58.47723624 66.70925728 57.19360352 67.3263855 55.91366577 C71.87679095 46.31277976 73.45815203 37.21403668 70.125 27 C65.8947801 16.63152395 58.90182329 9.78126644 48.6875 5.3125 C37.84439138 2.82762094 29.00963589 3.87516211 19.0625 9.05078125 C16.48126566 10.76169809 14.63815133 12.64698633 12.5625 14.9375 C10.04821957 17.58809684 8.39395318 19.24281708 4.6875 19.625 C0.03283318 19.14504408 -2.18898345 16.0372307 -5.19140625 12.73046875 C-17.92280794 0.0928527 -37.61106856 1.94965779 -50.9375 12.25 Z M-6.3125 85.625 C-7.63442672 87.61521343 -7.63442672 87.61521343 -8.3125 89.625 C-4.52414978 92.84930697 -0.89262482 95.93369539 3.6875 97.9375 C8.49108086 97.43712699 12.12254517 94.7978098 15.6875 91.625 C16.95304905 89.53022764 16.95304905 89.53022764 17.6875 87.625 C10.94290865 82.62094835 1.34907201 82.42422984 -6.3125 85.625 Z M-3.125 144.0625 C-10.59641097 147.06804487 -17.33474149 147.50362331 -25.3125 147.625 C-20.96806733 156.14008803 -15.50645952 162.03579965 -6.53125 165.734375 C2.2086463 168.15269582 10.97445483 167.92027294 19.25 164.0625 C26.61711563 159.80839111 31.05464172 155.30035637 34.6875 147.625 C33.28951172 147.60373047 33.28951172 147.60373047 31.86328125 147.58203125 C23.56332691 147.27151729 17.09945151 146.10477218 9.39453125 142.68359375 C4.45252189 140.75100423 1.47404748 142.02040722 -3.125 144.0625 Z " fill="#000000" transform="translate(219.3125,106.375)"/>
<path d="M0 0 C2.5 1.5 2.5 1.5 4 4 C4.791013 8.02098277 4.62153384 10.96411027 2.5 14.5 C-1.03588973 16.62153384 -3.97901723 16.791013 -8 16 C-10.5 14.5 -10.5 14.5 -12 12 C-12.791013 7.97901723 -12.62153384 5.03588973 -10.5 1.5 C-6.96411027 -0.62153384 -4.02098277 -0.791013 0 0 Z " fill="#000000" transform="translate(260,144)"/>
<path d="M0 0 C2.5 1.5 2.5 1.5 4 4 C4.791013 8.02098277 4.62153384 10.96411027 2.5 14.5 C-1.03588973 16.62153384 -3.97901723 16.791013 -8 16 C-10.5 14.5 -10.5 14.5 -12 12 C-12.791013 7.97901723 -12.62153384 5.03588973 -10.5 1.5 C-6.96411027 -0.62153384 -4.02098277 -0.791013 0 0 Z " fill="#000000" transform="translate(196,144)"/>
</svg>
