<?xml version="1.0" encoding="UTF-8"?>
<svg version="1.1" xmlns="http://www.w3.org/2000/svg" width="512" height="512">
<path d="M0 0 C1.187146 0.00757324 2.37429199 0.01514648 3.59741211 0.02294922 C15.93575879 0.25410867 26.43554338 2.04221401 36.69921875 9.36328125 C38.66801194 10.63963949 38.66801194 10.63963949 40.77734375 10.203125 C42.06060447 9.70506737 43.34078081 9.19896298 44.6171875 8.68359375 C53.0635388 5.2820476 62.62219078 4.91300904 71.1875 8.125 C74.25972619 9.51600795 76.70941061 11.12236072 79.3125 13.25 C81.34925915 14.82884609 82.26052146 15.4402143 84.86328125 15.42578125 C86.38060568 15.18206593 87.89510038 14.92008418 89.40625 14.640625 C93.51652394 14.28440126 96.99787046 15.91555187 100.75 17.4375 C104.474603 18.67903433 105.22752269 17.91202539 108.75 16.4375 C118.57340933 14.25452015 127.1588057 15.42685692 136 20.1875 C141.02745041 24.30086852 144.7877766 27.83777951 145.75 34.4375 C146.56339844 34.40269531 147.37679688 34.36789063 148.21484375 34.33203125 C161.78648674 34.01144126 178.44778731 34.62455215 188.87109375 44.43359375 C194.43046162 50.52988247 195.11955173 55.01444429 195.01953125 63.20703125 C194.57372337 68.55026482 192.98219167 71.22677171 189.125 75.046875 C176.97269677 85.27506356 158.94864048 85.76787213 143.79248047 85.21166992 C135.83000006 84.94675141 130.20250795 84.80628478 123.90234375 90.3203125 C122.83693359 91.36832031 122.83693359 91.36832031 121.75 92.4375 C120.92628906 93.13617188 120.10257812 93.83484375 119.25390625 94.5546875 C86.59202116 122.49377338 76.34742646 161.06709576 72.75 202.4375 C96.84 202.4375 120.93 202.4375 145.75 202.4375 C146.41 204.0875 147.07 205.7375 147.75 207.4375 C146.68702221 209.71993637 146.68702221 209.71993637 144.75 211.4375 C142.4755373 211.92969131 142.4755373 211.92969131 139.75764465 211.91851807 C138.72699387 211.92401672 137.69634308 211.92951538 136.63446045 211.93518066 C134.93945404 211.91360901 134.93945404 211.91360901 133.21020508 211.89160156 C132.01983139 211.89218567 130.8294577 211.89276978 129.60301208 211.89337158 C126.33855751 211.89106071 123.07478696 211.87098781 119.81046891 211.84307575 C116.39920408 211.81808676 112.9879261 211.8157221 109.57658386 211.81097412 C103.11668146 211.79853689 96.65704953 211.76570548 90.19726628 211.72557616 C82.84308224 211.68088144 75.48888535 211.65887725 68.13459933 211.63879442 C53.0062488 211.59697328 37.87815143 211.52660701 22.75 211.4375 C22.8917012 212.63907745 23.0334024 213.84065491 23.17939758 215.0786438 C23.36498736 216.68928878 23.55037597 218.29995695 23.7355957 219.91064453 C23.87578503 221.09247063 23.87578503 221.09247063 24.01880646 222.298172 C24.93207712 230.3085924 25.01420356 238.25805503 24.9375 246.3125 C24.93060227 247.81811351 24.92409873 249.32372887 24.91796875 250.8293457 C24.8375923 264.7086961 24.38167405 278.5725906 23.75 292.4375 C30.5194082 294.90670732 30.5194082 294.90670732 37.625 295.8125 C41.01251893 296.10319777 41.47688468 296.14877809 43.9375 298.75 C44.75 301.4375 44.75 301.4375 43.80078125 303.60546875 C43.45402344 304.21003906 43.10726563 304.81460937 42.75 305.4375 C35.5015055 305.85390288 29.58085645 304.87916784 22.75 302.4375 C22.50765625 303.68144531 22.2653125 304.92539062 22.015625 306.20703125 C16.69496012 332.94478378 16.69496012 332.94478378 5.75 342.4375 C-0.20538218 346.02190563 -5.45098487 346.27803759 -12.25 345.4375 C-19.21150854 342.08105838 -22.73618266 336.60187942 -25.25 329.4375 C-25.5625 326.125 -25.5625 326.125 -25.25 323.4375 C-24.59 322.7775 -23.93 322.1175 -23.25 321.4375 C-20.328125 321.4375 -20.328125 321.4375 -17.25 322.4375 C-15.421875 325.125 -15.421875 325.125 -14 328.4375 C-12.46764771 332.70599957 -12.46764771 332.70599957 -9.25 335.4375 C-4.8916351 335.94038826 -2.82006253 335.79518629 0.9375 333.4375 C9.69140529 325.00867342 11.4694376 309.92508442 13.0625 298.35546875 C12.9332575 296.21427755 12.9332575 296.21427755 10.73046875 294.81762695 C9.75013672 294.13446411 9.75013672 294.13446411 8.75 293.4375 C8.59180786 294.44949463 8.59180786 294.44949463 8.43041992 295.48193359 C7.93989535 298.5932913 7.43876168 301.70285479 6.9375 304.8125 C6.77185547 305.87339844 6.60621094 306.93429687 6.43554688 308.02734375 C3.46428342 326.3034171 3.46428342 326.3034171 -1.25 331.4375 C-4.375 331.75 -4.375 331.75 -7.25 331.4375 C-8.25 330.4375 -8.25 330.4375 -8.5 327.9375 C-8.24814899 324.41158592 -7.28119461 321.66457467 -6.1171875 318.35546875 C-2.12351529 304.91730144 1.73806607 286.44483189 -4.86572266 273.45361328 C-5.58235982 272.14734208 -6.30605471 270.84491898 -7.03662109 269.54638672 C-14.08108118 256.91247002 -16.033227 242.72481128 -16.25 228.4375 C-17.02859375 228.28796875 -17.8071875 228.1384375 -18.609375 227.984375 C-21.24464768 227.43860847 -23.05931758 227.00227316 -25.25 225.4375 C-26.125 223 -26.125 223 -26.25 220.4375 C-25.59 219.4475 -24.93 218.4575 -24.25 217.4375 C-20.26663272 217.85680182 -16.66398966 218.31706665 -12.8125 219.4375 C-9.20710405 220.44954097 -5.88742054 220.83767759 -2.16796875 221.09375 C-0.25 221.4375 -0.25 221.4375 1.75 223.4375 C2 225.9375 2 225.9375 1.75 228.4375 C-0.25 230.4375 -0.25 230.4375 -3.875 230.5625 C-4.98875 230.52125 -6.1025 230.48 -7.25 230.4375 C-4.20133541 249.47419951 -0.772652 268.72167282 12.75 283.4375 C14.87769727 281.30980273 14.1814892 276.69085491 14.3125 273.75 C14.3535083 272.830979 14.3945166 271.91195801 14.43676758 270.96508789 C15.88279529 234.50902273 15.65827101 204.24419555 -4.89453125 173.08984375 C-6.9216929 169.99425655 -8.78699102 166.82587534 -10.63208008 163.61938477 C-17.74462196 151.16615616 -17.74462196 151.16615616 -28.6875 142.3125 C-38.79328244 139.830378 -45.40593696 142.10772007 -54.25 147.4375 C-54.86101562 147.99824219 -55.47203125 148.55898437 -56.1015625 149.13671875 C-61.40823603 152.34966836 -69.00460739 150.10839438 -74.8125 149.0625 C-100.08144526 144.8318622 -125.80528095 144.37159487 -151.37115479 144.26226807 C-153.12991997 144.25425102 -154.8886748 144.24326981 -156.6473999 144.22894287 C-196.5679626 143.93779037 -239.63525851 151.20623703 -271.25 177.4375 C-272.09433594 178.10910156 -272.93867188 178.78070313 -273.80859375 179.47265625 C-283.47250759 187.57739982 -292.99761882 199.38186602 -294.609375 212.32299805 C-294.758078 215.40682696 -294.80369886 218.47520185 -294.8125 221.5625 C-295.16431936 236.66853566 -295.80173075 252.38536507 -306.01953125 264.54296875 C-308.79352341 267.18400268 -310.21947236 268.45990277 -314.125 268.375 C-316.25 267.4375 -316.25 267.4375 -317.25 266.4375 C-317.625 263.625 -317.625 263.625 -317.25 260.4375 C-316.47269531 259.82132812 -315.69539063 259.20515625 -314.89453125 258.5703125 C-307.67079814 252.74437708 -306.4812733 241.94648224 -305.51171875 233.23828125 C-305.25813957 229.55570603 -305.20524785 225.94001832 -305.25 222.25 C-305.39958427 205.55265625 -300.10731595 191.5747982 -288.45263672 179.5300293 C-287.06773549 178.14963528 -285.6591465 176.79313461 -284.25 175.4375 C-283.04537109 174.23867188 -283.04537109 174.23867188 -281.81640625 173.015625 C-262.27826379 154.40787028 -235.2751924 144.27917787 -209.3125 138.6875 C-208.39686279 138.48858154 -207.48122559 138.28966309 -206.5378418 138.0847168 C-188.85166588 134.50944353 -171.17345642 134.10029934 -153.1875 134.1875 C-151.47913971 134.19215271 -151.47913971 134.19215271 -149.73626709 134.19689941 C-135.77261749 134.2413362 -121.81814199 134.38533244 -107.875 135.1875 C-106.87332291 135.24432953 -106.87332291 135.24432953 -105.85140991 135.30230713 C-98.49729792 135.74395576 -91.26752046 136.52119401 -84.0078125 137.7421875 C-68.31964753 141.1624315 -68.31964753 141.1624315 -53.5625 136.75 C-51.7568258 135.35651602 -49.97573523 133.92883995 -48.25 132.4375 C-40.31952803 129.79400934 -30.02677928 130.46805208 -22.51171875 134.0703125 C-13.028307 139.80294482 -7.77563183 148.1492784 -2.25 157.4375 C-1.48899693 158.6983489 -0.72727744 159.95876568 0.03515625 161.21875 C1.5514416 163.73054348 3.05449728 166.24968773 4.55078125 168.7734375 C5.97016023 171.15769286 7.42244677 173.51434311 8.91796875 175.8515625 C14.07472448 183.9591822 18.40755102 192.0677041 20.75 201.4375 C24.71 201.7675 28.67 202.0975 32.75 202.4375 C30.86697542 176.07479117 30.86697542 176.07479117 24.75 150.4375 C24.41959717 149.42913086 24.41959717 149.42913086 24.08251953 148.40039062 C15.07910516 121.90668326 -3.19941926 102.73968159 -28.02734375 90.43359375 C-39.2548287 84.41551413 -39.2548287 84.41551413 -51.375 84.5625 C-52.67323815 85.17373275 -53.96548534 85.79792994 -55.25 86.4375 C-59.03425359 87.72682534 -62.91711158 87.66764128 -66.875 87.6875 C-67.94741943 87.69559692 -67.94741943 87.69559692 -69.04150391 87.70385742 C-73.23395308 87.66455617 -76.65344893 87.22352133 -80.625 85.75 C-84.2767485 84.45053101 -86.05480749 84.40409677 -89.6875 85.75 C-99.20201345 89.23312616 -112.61505709 89.00324807 -122.109375 85.484375 C-129.14398508 82.04409124 -134.78978842 78.11190201 -138.5 71.0625 C-140.2927107 64.78801254 -139.20918743 60.14450433 -136.25 54.4375 C-131.49375091 47.0388903 -124.22190465 43.98343658 -115.94921875 41.9296875 C-112.28670366 41.26184828 -108.96198176 41.22738783 -105.25 41.4375 C-105.064375 40.73625 -104.87875 40.035 -104.6875 39.3125 C-101.200099 32.337698 -94.33433178 28.99100221 -87.25 26.4375 C-83.20461965 25.30707318 -79.17635779 25.10005108 -75 24.875 C-74.25492188 24.83181641 -73.50984375 24.78863281 -72.7421875 24.74414062 C-70.911651 24.63853275 -69.08084824 24.53755799 -67.25 24.4375 C-66.693125 22.6740625 -66.693125 22.6740625 -66.125 20.875 C-63.84916324 14.87700032 -60.54509205 10.83255595 -55.0625 7.5 C-49.10553786 5.83986301 -42.96032023 5.27593419 -37.1875 7.75 C-33.01481168 8.72658663 -30.87682236 7.03768542 -27.30078125 4.89453125 C-18.46343038 0.67387584 -9.68300627 -0.08651059 0 0 Z M-32.25 18.4375 C-35.4185371 18.78955968 -36.84267675 18.72036337 -39.5 16.875 C-43.54742926 14.75929834 -46.92668786 15.16639915 -51.25 16.4375 C-55.8184711 19.74235143 -57.19521171 22.97177884 -58.25 28.4375 C-58.2766643 30.43732225 -58.28093863 32.43773931 -58.25 34.4375 C-59.1632605 34.4060791 -59.1632605 34.4060791 -60.0949707 34.37402344 C-78.72821446 33.26482452 -78.72821446 33.26482452 -94.8125 41.375 C-97.01066459 44.13679653 -98.05588865 46.18533497 -99.25 49.4375 C-100.22839844 49.53546875 -101.20679688 49.6334375 -102.21484375 49.734375 C-111.83238637 50.83136118 -121.19237287 52.16600538 -128.25 59.4375 C-129.908596 62.24646063 -129.908596 62.24646063 -130.25 65.4375 C-128.64613139 70.15476063 -126.43953227 72.79627313 -122.25 75.4375 C-111.42500783 80.41655184 -100.38712757 80.24492162 -89.25 76.4375 C-88.52554688 76.06882812 -87.80109375 75.70015625 -87.0546875 75.3203125 C-84.42882616 74.03580024 -83.009017 74.58351855 -80.25 75.4375 C-79.363125 75.9325 -78.47625 76.4275 -77.5625 76.9375 C-71.61039786 79.63279154 -65.77759385 80.18726758 -59.5 78.25 C-54.41906779 76.28057672 -50.31813423 74.03970135 -47.25 69.4375 C-46.85986284 67.4478005 -46.51797351 65.44730131 -46.25 63.4375 C-44.25045254 63.39495644 -42.24958364 63.39669217 -40.25 63.4375 C-38.36940967 65.31809033 -39.12638782 67.93640038 -39.1171875 70.4296875 C-39.25 72.4375 -39.25 72.4375 -40.25 75.4375 C-39.6415625 75.705625 -39.033125 75.97375 -38.40625 76.25 C-7.48050114 90.0756289 17.41439784 106.78800147 30.75 139.4375 C38.28222452 160.06259303 40.32904863 180.65515132 41.75 202.4375 C49.01 202.4375 56.27 202.4375 63.75 202.4375 C63.89695312 200.06111328 63.89695312 200.06111328 64.046875 197.63671875 C66.52684672 160.75146489 76.91446053 122.56884524 104.25 95.9375 C105.075 95.1125 105.9 94.2875 106.75 93.4375 C106.75 92.7775 106.75 92.1175 106.75 91.4375 C107.33265625 91.17195313 107.9153125 90.90640625 108.515625 90.6328125 C110.81174228 89.40447004 112.55356018 88.03435061 114.5 86.3125 C115.11359375 85.77367187 115.7271875 85.23484375 116.359375 84.6796875 C116.81828125 84.26976562 117.2771875 83.85984375 117.75 83.4375 C114.96747206 80.65497206 111.68209191 80.02629062 108 78.9375 C106.58839102 78.51091487 105.1769303 78.08383878 103.765625 77.65625 C102.74094116 77.35509277 102.74094116 77.35509277 101.69555664 77.04785156 C99.93879068 76.49672659 98.22093238 75.82513516 96.51171875 75.140625 C93.80094159 74.17627281 93.80094159 74.17627281 91.44140625 75.265625 C90.73886719 75.73484375 90.03632813 76.2040625 89.3125 76.6875 C85.45925249 79.08435057 82.156375 80.40622075 77.75 81.4375 C78.17152344 82.32953125 78.59304688 83.2215625 79.02734375 84.140625 C79.57519531 85.31109375 80.12304688 86.4815625 80.6875 87.6875 C81.23277344 88.84765625 81.77804687 90.0078125 82.33984375 91.203125 C84.43128804 96.00012188 84.90716831 99.62761764 84.9375 104.875 C84.95167969 105.98746094 84.96585938 107.09992188 84.98046875 108.24609375 C84.51992371 114.62347168 81.35575106 118.48865095 77.5 123.375 C73.7306593 128.22112924 70.25381212 133.13472904 67.0546875 138.37890625 C66.44141602 139.38252197 65.82814453 140.3861377 65.19628906 141.42016602 C63.99470968 143.41082548 62.81126687 145.41256074 61.64746094 147.42553711 C60.13001886 149.93383959 58.70470623 152.25220229 56.75 154.4375 C53.3359375 155.0625 53.3359375 155.0625 50.75 154.4375 C50.2653125 153.30054688 49.780625 152.16359375 49.28125 150.9921875 C42.60612066 135.52238585 35.26308932 121.84713099 23.75 109.4375 C22.98961426 108.61137207 22.98961426 108.61137207 22.21386719 107.76855469 C7.60139944 92.06220289 -10.01050924 81.6410064 -29.25 72.4375 C-29.25 70.4575 -29.25 68.4775 -29.25 66.4375 C-28.40824219 66.5096875 -27.56648438 66.581875 -26.69921875 66.65625 C-5.83838242 68.2159387 14.24395603 68.50382154 34.5625 63.1875 C37.75 62.4375 37.75 62.4375 40.75 63.4375 C41.45125 64.200625 42.1525 64.96375 42.875 65.75 C50.3153476 72.70510754 59.61465985 73.81672817 69.44921875 73.71875 C76.37926913 73.1282605 83.95871161 71.54396607 89.125 66.625 C91.75 64.4375 91.75 64.4375 95 64.3125 C98.10937809 65.24531343 100.37023291 66.23518805 103.1875 67.75 C107.64500995 70.10503971 112.0093644 71.48844217 116.875 72.6875 C117.53169678 72.85032471 118.18839355 73.01314941 118.86499023 73.1809082 C136.76960368 77.39047084 162.13759051 79.2672145 178.875 70.5 C183.70432193 67.08326217 183.70432193 67.08326217 186.6875 62.125 C186.77776733 58.24350496 185.59784869 55.82522261 183.75 52.4375 C172.24233676 41.98846336 154.3327786 43.24085092 139.75 42.4375 C139.37452026 41.4155957 139.37452026 41.4155957 138.99145508 40.37304688 C138.65009521 39.47650391 138.30873535 38.57996094 137.95703125 37.65625 C137.45780151 36.3249707 137.45780151 36.3249707 136.94848633 34.96679688 C134.49455601 29.78799913 130.57145443 27.22794249 125.4375 25 C117.84440868 23.84173183 112.16029334 24.96401531 105.4921875 28.6328125 C103.75 29.4375 103.75 29.4375 101.0625 29.4375 C98.75 28.4375 98.75 28.4375 96.3125 26.4375 C93.30830264 24.0927606 91.53436503 23.59518188 87.75 23.4375 C86.06422289 24.05424772 84.39551962 24.72022222 82.75 25.4375 C80.1875 25.875 80.1875 25.875 77.75 25.4375 C77.193125 24.715625 76.63625 23.99375 76.0625 23.25 C72.23449373 18.59431669 67.12610746 16.03540605 61.19140625 14.984375 C54.1218144 14.67556288 48.06968415 16.85552344 42.5 21.1875 C40.18136664 22.84366669 38.53100453 22.66925038 35.75 22.4375 C35.35361328 21.52484375 35.35361328 21.52484375 34.94921875 20.59375 C31.77651387 14.88908194 24.90500897 12.94340864 19 11.125 C4.05746196 7.17715698 -20.42611471 6.61361471 -32.25 18.4375 Z M24.5 73.875 C15.94663349 75.60196734 7.45545299 76.12505181 -1.25 76.4375 C2.198574 79.23516348 5.72272143 81.88703192 9.3125 84.5 C28.89277604 99.20920247 43.38861251 117.25194091 53.75 139.4375 C57.57865165 138.16128278 58.05272461 136.8164133 60.1875 133.4375 C62.65755249 129.57313751 65.17077346 125.83137467 67.94140625 122.17578125 C68.48804932 121.44294922 69.03469238 120.71011719 69.59790039 119.95507812 C70.67836259 118.51297163 71.77471128 117.0825979 72.88842773 115.66601562 C76.67408463 110.54621456 77.6280827 106.75328496 76.75 100.4375 C75.46773673 94.16954227 73.20995254 88.48923474 67.9921875 84.5703125 C64.19818818 82.65348358 60.18710558 81.95983627 56.0390625 81.14453125 C50.05955799 79.85915083 44.42307583 77.76851005 39.4375 74.1875 C34.56588896 71.01528816 29.94800136 72.72253817 24.5 73.875 Z " fill="#000000" transform="translate(317.25,65.5625)"/>
<path d="M0 0 C2.4375 1.375 2.4375 1.375 3.20703125 3.55859375 C3.49500488 7.07772907 2.7013684 9.47836457 1.5625 12.8125 C-2.46672148 24.74519438 -3.81763602 39.01340752 0.76953125 51.01953125 C3.51500254 56.5426222 6.75965076 61.75910587 9.99853516 67.00415039 C13.84417727 73.2552458 17.18488534 79.3533363 19.4375 86.375 C19.78135742 87.41881836 20.12521484 88.46263672 20.47949219 89.53808594 C22.1558953 96.36398621 21.68217126 103.48660193 21.6328125 110.46875 C21.62907684 112.02673154 21.62623248 113.58471545 21.62423706 115.1427002 C21.61664408 119.21975323 21.59703344 123.29666108 21.5748291 127.37365723 C21.55065565 132.2779948 21.54156902 137.18238123 21.52992249 142.08676147 C21.51060602 149.51627492 21.47225352 156.94547056 21.4375 164.375 C38.7625 163.88 38.7625 163.88 56.4375 163.375 C53.4675 162.715 50.4975 162.055 47.4375 161.375 C45.37036133 159.8659668 45.37036133 159.8659668 44.4375 157.375 C44.16058306 154.06923847 44.32378884 150.82770171 44.51171875 147.51953125 C44.55561234 146.54449142 44.59950592 145.5694516 44.64472961 144.56486511 C44.74098758 142.49413763 44.8448865 140.42375342 44.95581055 138.35375977 C45.12193503 135.24485868 45.26534378 132.1356117 45.40429688 129.02539062 C46.21695972 111.72321749 48.09395187 94.97255439 51.46923828 77.98632812 C51.94518514 75.58624574 52.40869521 73.18397567 52.87109375 70.78125 C53.1737595 69.23423403 53.47711824 67.68735343 53.78125 66.140625 C53.91776978 65.4323053 54.05428955 64.7239856 54.19494629 63.99420166 C54.93979006 60.28222833 55.72217533 56.76572092 57.4375 53.375 C59.875 52.4375 59.875 52.4375 62.4375 52.375 C63.4275 53.035 64.4175 53.695 65.4375 54.375 C65.85934725 59.8708348 65.14357942 64.88107159 63.9765625 70.2578125 C63.66708174 71.75803906 63.35809987 73.2583686 63.04956055 74.75878906 C62.8070607 75.91948914 62.8070607 75.91948914 62.55966187 77.1036377 C59.56894931 91.51912556 57.2847463 105.66309021 56.4375 120.375 C56.25785472 123.19036309 56.07174431 126.00529858 55.88671875 128.8203125 C55.37561683 136.67027117 54.89822539 144.52192834 54.4375 152.375 C55.36046875 152.49488281 56.2834375 152.61476563 57.234375 152.73828125 C61.49632646 153.58547404 63.42104047 155.28998457 66.4375 158.375 C67.16732543 160.35282691 67.84430773 162.35199052 68.4375 164.375 C69.21464355 164.36452637 69.99178711 164.35405273 70.79248047 164.34326172 C74.299121 164.30179718 77.80571006 164.27570422 81.3125 164.25 C82.53582031 164.23324219 83.75914062 164.21648437 85.01953125 164.19921875 C86.18613281 164.19277344 87.35273438 164.18632812 88.5546875 164.1796875 C89.63347168 164.16921387 90.71225586 164.15874023 91.82373047 164.14794922 C94.4375 164.375 94.4375 164.375 96.4375 166.375 C96.5625 169.5 96.5625 169.5 96.4375 172.375 C93.39758399 173.894958 90.23394667 173.5310786 86.8984375 173.53613281 C86.12107239 173.54109772 85.34370728 173.54606262 84.54278564 173.55117798 C81.96601484 173.56580826 79.38930554 173.57260201 76.8125 173.578125 C75.02652992 173.58387447 73.24055987 173.58963222 71.45458984 173.59539795 C67.70865592 173.60590953 63.96274348 173.61175159 60.21679688 173.61523438 C55.40782533 173.62072825 50.59913564 173.64477453 45.79025269 173.67320633 C42.10147255 173.69179069 38.41276099 173.69703599 34.72393799 173.69857025 C32.95044407 173.70160538 31.1769516 173.70966269 29.40350342 173.72275543 C26.92763516 173.73973329 24.45246468 173.73795662 21.9765625 173.73144531 C21.23883606 173.7406601 20.50110962 173.74987488 19.74102783 173.7593689 C17.70166016 173.74249268 17.70166016 173.74249268 14.4375 173.375 C11.98930044 169.70270065 12.18119295 167.90395939 12.16625977 163.52368164 C12.16103302 162.83050842 12.15580627 162.13733521 12.15042114 161.42315674 C12.14018067 159.91722438 12.13440065 158.41125663 12.13253975 156.9052906 C12.12886989 154.51143664 12.1121212 152.11799475 12.09178162 149.72422791 C12.03646628 142.91771168 12.00587132 136.11113213 11.98120117 129.30444336 C11.9651925 125.13814978 11.93482412 120.97214202 11.89643669 116.80599785 C11.88488911 115.2278189 11.87885725 113.64958846 11.87875557 112.07136726 C11.87766105 99.59021307 10.65014131 88.28118346 4.5 77.1875 C4.16548828 76.53458984 3.83097656 75.88167969 3.48632812 75.20898438 C1.62934019 71.7574905 1.62934019 71.7574905 -1.35546875 69.33203125 C-4.69837404 69.39711436 -7.75748387 70.30475899 -10.9375 71.25 C-20.35464537 73.97009179 -28.9693047 74.63496431 -38.75 74.6875 C-39.41569 74.69111542 -40.08138 74.69473083 -40.76724243 74.69845581 C-53.19239901 74.72555518 -64.75105758 73.31214747 -76.5625 69.375 C-76.7275 70.57125 -76.8925 71.7675 -77.0625 73 C-79.07719127 82.17481708 -85.28603596 90.78852246 -90.5546875 98.43359375 C-93.80015209 104.68551584 -93.89260882 111.01093257 -93.9765625 117.90234375 C-93.99592865 118.89126114 -94.0152948 119.88017853 -94.0352478 120.89906311 C-94.09470622 124.03678951 -94.14129356 127.17455328 -94.1875 130.3125 C-94.22571084 132.44858311 -94.26476436 134.58465133 -94.3046875 136.72070312 C-94.40037972 141.93866919 -94.48552455 147.15672605 -94.5625 152.375 C-93.17611328 152.560625 -93.17611328 152.560625 -91.76171875 152.75 C-87.67807529 153.54778138 -85.13284115 155.17903329 -82.5625 158.375 C-80.45017977 162.46623076 -79.17868886 165.83975544 -80.3125 170.375 C-81.5625 172.375 -81.5625 172.375 -82.5625 173.375 C-85.10235866 173.48069577 -87.61516389 173.52178172 -90.15576172 173.52026367 C-91.34844162 173.52530159 -91.34844162 173.52530159 -92.56521606 173.53044128 C-95.20755554 173.5399811 -97.84983185 173.541896 -100.4921875 173.54296875 C-102.32203193 173.54617954 -104.15187609 173.54954347 -105.98171997 173.55305481 C-109.82359411 173.55905389 -113.66544572 173.56089394 -117.50732422 173.56030273 C-122.43610922 173.56020114 -127.36475007 173.57384712 -132.2935009 173.59107494 C-136.07496812 173.60218155 -139.85640037 173.60422235 -143.63788223 173.60369301 C-145.45519634 173.60487539 -147.27251129 173.60931155 -149.08980942 173.61702538 C-151.63012591 173.62679707 -154.17012792 173.62395831 -156.71044922 173.61791992 C-157.46485291 173.62353943 -158.21925659 173.62915894 -158.996521 173.63494873 C-162.73707178 173.61229669 -164.36717915 173.5052139 -167.5625 171.375 C-167.875 168.875 -167.875 168.875 -167.5625 166.375 C-165.5625 164.375 -165.5625 164.375 -162.67333984 164.14794922 C-161.46887207 164.15842285 -160.2644043 164.16889648 -159.0234375 164.1796875 C-157.07050781 164.18935547 -157.07050781 164.18935547 -155.078125 164.19921875 C-153.69791405 164.21593071 -152.31770571 164.23286061 -150.9375 164.25 C-149.54948548 164.26002994 -148.16146411 164.26915577 -146.7734375 164.27734375 C-143.36961974 164.30098137 -139.96614494 164.33393133 -136.5625 164.375 C-136.48423643 156.61115844 -136.4553766 148.84877918 -136.48734188 141.08469677 C-136.50068585 137.47814821 -136.49783878 133.87321283 -136.45629883 130.2668457 C-136.41673238 126.77764822 -136.42190431 123.29097477 -136.45642281 119.80175209 C-136.4646398 117.84162048 -136.4280691 115.88146282 -136.3903656 113.92167664 C-136.54780288 103.98722432 -139.88471273 99.43279483 -146.5625 92.375 C-157.5479108 76.80409814 -160.79684738 59.35572623 -160.875 40.6875 C-160.88055908 39.53999268 -160.88611816 38.39248535 -160.8918457 37.21020508 C-160.81068799 27.87845543 -160.81068799 27.87845543 -158.5625 24.375 C-156.6875 23.4375 -156.6875 23.4375 -154.5625 23.375 C-152.44750977 24.54394531 -152.44750977 24.54394531 -150.5625 26.375 C-150.15600586 28.77246094 -150.15600586 28.77246094 -150.27734375 31.609375 C-150.30610596 32.65125977 -150.33486816 33.69314453 -150.36450195 34.76660156 C-150.40921631 35.87487305 -150.45393066 36.98314453 -150.5 38.125 C-150.9213802 59.64450368 -146.19296215 78.52126963 -131.078125 94.453125 C-127.79762446 98.61293496 -127.31463217 102.53197745 -127.33544922 107.72583008 C-127.33560028 108.9867598 -127.33575134 110.24768951 -127.33590698 111.54682922 C-127.34611864 112.91273152 -127.3565506 114.27863219 -127.3671875 115.64453125 C-127.37092059 117.04985859 -127.37376617 118.45518853 -127.37576294 119.86051941 C-127.38337611 123.54799668 -127.40300447 127.23531482 -127.4251709 130.92272949 C-127.44567941 134.6900005 -127.45488513 138.45729814 -127.46484375 142.22460938 C-127.48518986 149.60821316 -127.52434176 156.99138075 -127.5625 164.375 C-116.0125 164.045 -104.4625 163.715 -92.5625 163.375 C-94.44517985 161.49232015 -97.13312042 161.96879463 -99.65234375 161.75390625 C-101.5625 161.375 -101.5625 161.375 -103.5625 159.375 C-103.83665466 157.13395691 -103.83665466 157.13395691 -103.86889648 154.30541992 C-103.88488388 153.24638962 -103.90087128 152.18735931 -103.91734314 151.09623718 C-103.92270584 149.9442836 -103.92806854 148.79233002 -103.93359375 147.60546875 C-103.94713646 145.82478752 -103.94713646 145.82478752 -103.96095276 144.00813293 C-103.97549316 141.48534679 -103.98435135 138.96252262 -103.98803711 136.43969727 C-103.99983484 132.61602871 -104.04890218 128.79402598 -104.09960938 124.97070312 C-104.109085 122.51563284 -104.11631457 120.06055267 -104.12109375 117.60546875 C-104.14062607 116.47578171 -104.16015839 115.34609467 -104.18028259 114.18217468 C-104.11352744 102.16939993 -99.79779883 92.89917134 -93.26171875 83.03125 C-81.91410915 65.29245798 -80.40979482 43.74308825 -83.63671875 23.37109375 C-83.5625 21.375 -83.5625 21.375 -82.28125 19.578125 C-80.5625 18.375 -80.5625 18.375 -77.375 18.6875 C-76.446875 18.914375 -75.51875 19.14125 -74.5625 19.375 C-72.54832959 26.86644013 -72.29174103 33.82817991 -72.375 41.5625 C-72.3759668 43.28629883 -72.3759668 43.28629883 -72.37695312 45.04492188 C-72.40427929 50.28850847 -72.59988769 55.20762032 -73.5625 60.375 C-50.57019567 65.85542731 -29.14438455 67.4652056 -6.5625 59.375 C-6.83964844 58.62734375 -7.11679688 57.8796875 -7.40234375 57.109375 C-7.76457031 56.12453125 -8.12679687 55.1396875 -8.5 54.125 C-8.85964844 53.15046875 -9.21929687 52.1759375 -9.58984375 51.171875 C-14.90290277 35.89416311 -12.16543898 16.37174694 -5.52734375 1.94921875 C-3.9113131 -0.68746283 -2.95962879 -0.72186068 0 0 Z " fill="#000000" transform="translate(182.5625,278.625)"/>
<path d="M0 0 C1.38735352 0.18308716 1.38735352 0.18308716 2.80273438 0.36987305 C4.11081055 0.55610229 4.11081055 0.55610229 5.4453125 0.74609375 C6.61731201 0.90936157 6.61731201 0.90936157 7.81298828 1.07592773 C9.875 1.5625 9.875 1.5625 12.875 3.5625 C13.1875 6.0625 13.1875 6.0625 12.875 8.5625 C10.875 10.5625 10.875 10.5625 8.9074707 10.8215332 C1.12654391 10.75478794 -6.35457165 9.58937488 -13.99804688 8.18945312 C-19.92002397 7.16527215 -19.92002397 7.16527215 -25.19921875 9.61328125 C-31.45033193 19.18648704 -30.37219087 32.66129323 -28.28515625 43.53515625 C-24.94360801 58.25469866 -18.39661946 71.66392169 -9.125 83.5625 C-8.64546875 84.20574219 -8.1659375 84.84898437 -7.671875 85.51171875 C-2.94815303 91.49423476 2.93766436 96.49303122 10.6875 97.5 C13.61257816 97.70779244 16.09769521 97.55225225 18.875 96.5625 C20.08797649 94.2818293 20.08797649 94.2818293 20.875 91.5625 C21.20757812 90.77617187 21.54015625 89.98984375 21.8828125 89.1796875 C25.08907224 80.7222307 23.66598105 71.74477727 22.37402344 63.02490234 C22.26864258 62.23293457 22.16326172 61.4409668 22.0546875 60.625 C21.89589111 59.55958984 21.89589111 59.55958984 21.73388672 58.47265625 C21.875 56.5625 21.875 56.5625 23.20361328 54.796875 C24.875 53.5625 24.875 53.5625 27.4375 53.75 C29.875 54.5625 29.875 54.5625 31.875 56.5625 C32.37744141 58.44189453 32.37744141 58.44189453 32.7265625 60.6953125 C32.85546875 61.50097656 32.984375 62.30664062 33.1171875 63.13671875 C33.24351562 63.97847656 33.36984375 64.82023437 33.5 65.6875 C33.6340625 66.53699219 33.768125 67.38648438 33.90625 68.26171875 C34.23644986 70.36084644 34.55667259 72.46153911 34.875 74.5625 C35.46514893 74.75884033 36.05529785 74.95518066 36.66333008 75.1574707 C39.34122614 76.05414297 42.01431171 76.96439371 44.6875 77.875 C46.0806543 78.3380957 46.0806543 78.3380957 47.50195312 78.81054688 C48.39462891 79.11669922 49.28730469 79.42285156 50.20703125 79.73828125 C51.02921143 80.01583252 51.8513916 80.29338379 52.69848633 80.5793457 C55.0113528 81.624092 56.32999776 82.55447151 57.875 84.5625 C57.45394737 88.98355263 57.45394737 88.98355263 55.875 90.5625 C47.62460933 90.28282574 40.50037515 87.50201162 32.875 84.5625 C32.86082031 85.119375 32.84664063 85.67625 32.83203125 86.25 C32.39559438 93.23298987 30.26286731 98.14066911 25.31640625 103.13671875 C20.30691887 107.49659679 16.19014449 107.91579223 9.78515625 107.83984375 C-1.26820102 106.78643655 -9.94769361 98.37769479 -16.89453125 90.390625 C-33.35520659 69.51929585 -41.04898504 43.91637684 -39.125 17.5625 C-37.78984186 10.58153029 -34.75724999 4.10805705 -29.125 -0.4375 C-20.70278256 -4.72568392 -9.02789716 -1.22413472 0 0 Z " fill="#000000" transform="translate(240.125,221.4375)"/>
<path d="M0 0 C7.12766526 5.23766043 12.72911491 13.86536118 14.25390625 22.65625 C15.1169516 36.26689969 13.86237315 46.55872657 4.796875 57.3984375 C-1.96462521 64.77749862 -10.79278731 68.82926905 -20.74609375 69.65625 C-32.22896583 69.77808419 -42.29257943 66.58361198 -50.74609375 58.65625 C-59.46596073 49.06089437 -62.14472019 40.17979207 -62.0234375 27.296875 C-61.19256535 16.39021525 -55.73280325 8.26860259 -47.99609375 0.90625 C-33.93098599 -10.94089846 -14.7859857 -9.44081716 0 0 Z M-44.74609375 10.65625 C-50.29688312 17.42821303 -53.28925355 24.34801778 -53.0625 33.19140625 C-52.11093442 40.60421959 -49.22913561 47.53079783 -43.74609375 52.65625 C-34.61588922 58.86010693 -27.82960296 60.50324306 -16.74609375 59.65625 C-9.38274268 57.84808983 -2.47234869 52.94261615 1.60546875 46.53125 C5.56906668 38.7751447 6.76655565 30.66128589 4.60546875 22.08203125 C0.99171609 13.23297026 -4.82671873 7.55580218 -13.4140625 3.56640625 C-24.52825807 -0.77129487 -36.37381135 2.37379896 -44.74609375 10.65625 Z " fill="#000000" transform="translate(114.74609375,70.34375)"/>
<path d="M0 0 C6.0424883 0.05194116 10.62121988 1.84107051 15.16015625 5.82421875 C16.4375 7.3125 16.4375 7.3125 16.4375 9.3125 C17.0975 9.3125 17.7575 9.3125 18.4375 9.3125 C18.7159375 8.44625 18.7159375 8.44625 19 7.5625 C21.45045073 3.72701191 25.4270652 2.3177174 29.4375 0.3125 C31.1228196 0.21715746 32.81199266 0.18264242 34.5 0.1875 C35.84771484 0.18363281 35.84771484 0.18363281 37.22265625 0.1796875 C39.4375 0.3125 39.4375 0.3125 40.4375 1.3125 C40.625 4.25 40.625 4.25 40.4375 7.3125 C38.4375 9.3125 38.4375 9.3125 34.625 10.1875 C30.69546471 11.12174523 28.23480471 12.26837429 25.4375 15.3125 C24.07914329 18.93723109 24.07914329 18.93723109 23.4375 22.3125 C24.0975 22.9725 24.7575 23.6325 25.4375 24.3125 C25.25 26.8125 25.25 26.8125 24.4375 29.3125 C21.13168879 31.51637414 20.12297945 31.56468307 16.27929688 31.57128906 C15.22810669 31.57759338 14.1769165 31.58389771 13.09387207 31.59039307 C11.39224915 31.58432037 11.39224915 31.58432037 9.65625 31.578125 C7.90870422 31.58099518 7.90870422 31.58099518 6.12585449 31.58392334 C3.661212 31.58528511 1.19656233 31.58158924 -1.26806641 31.57324219 C-5.04736393 31.56254285 -8.82618607 31.57313805 -12.60546875 31.5859375 C-14.99739689 31.5846159 -17.38932473 31.58205351 -19.78125 31.578125 C-20.91566528 31.58217346 -22.05008057 31.58622192 -23.21887207 31.59039307 C-24.27006226 31.58408875 -25.32125244 31.57778442 -26.40429688 31.57128906 C-27.33012573 31.56969788 -28.25595459 31.56810669 -29.20983887 31.56646729 C-31.5625 31.3125 -31.5625 31.3125 -34.5625 29.3125 C-34.9375 26.3125 -34.9375 26.3125 -34.5625 23.3125 C-31.48210147 21.25890098 -30.76765302 21.05511266 -27.2746582 20.99365234 C-26.41399246 20.97378265 -25.55332672 20.95391296 -24.6665802 20.93344116 C-23.74149155 20.92188995 -22.81640289 20.91033875 -21.86328125 20.8984375 C-20.43800362 20.86938828 -20.43800362 20.86938828 -18.9839325 20.8397522 C-15.9477131 20.77995088 -12.91145581 20.73356871 -9.875 20.6875 C-7.81704072 20.64932074 -5.75909742 20.61026904 -3.70117188 20.5703125 C1.3449223 20.47424881 6.39109129 20.39021969 11.4375 20.3125 C8.57184187 13.9784299 8.57184187 13.9784299 2.9921875 10.3984375 C2.10789062 10.16382813 1.22359375 9.92921875 0.3125 9.6875 C-4.47916667 8.39583333 -4.47916667 8.39583333 -5.5625 7.3125 C-5.6875 4.3125 -5.6875 4.3125 -5.5625 1.3125 C-3.94996547 -0.30003453 -2.22650957 0.06458577 0 0 Z " fill="#000000" transform="translate(429.5625,359.6875)"/>
<path d="M0 0 C2.75 0.5 2.75 0.5 3.75 1.5 C4.16424181 6.16370656 3.49888798 8.32936662 0.8046875 12.08203125 C-4.02581237 20.46086127 -3.14156495 29.79766023 -3.125 39.1875 C-3.14315544 41.06448094 -3.16396699 42.94143816 -3.1875 44.81835938 C-3.2389688 49.37920953 -3.25445764 53.93887566 -3.25 58.5 C-1.58493408 58.94351807 -1.58493408 58.94351807 0.11376953 59.39599609 C5.37449259 60.99321576 7.89129751 63.90191797 10.75 68.5 C11.72430487 71.43333497 11.80367298 73.33329435 11.75 76.5 C11.09 77.49 10.43 78.48 9.75 79.5 C7.61108398 79.85644531 7.61108398 79.85644531 4.99609375 79.828125 C3.59133789 79.82039063 3.59133789 79.82039063 2.15820312 79.8125 C1.17787109 79.791875 0.19753906 79.77125 -0.8125 79.75 C-2.28879883 79.74226563 -2.28879883 79.74226563 -3.79492188 79.734375 C-11.09613458 79.65386542 -11.09613458 79.65386542 -12.25 78.5 C-12.5 75.5625 -12.5 75.5625 -12.25 72.5 C-9.34907498 70.56604999 -8.35325263 70.19868059 -5.0625 69.875 C-3.804375 69.75125 -2.54625 69.6275 -1.25 69.5 C-1.96027344 69.36722656 -2.67054687 69.23445313 -3.40234375 69.09765625 C-4.32144531 68.92105469 -5.24054688 68.74445313 -6.1875 68.5625 C-7.10402344 68.38847656 -8.02054687 68.21445312 -8.96484375 68.03515625 C-11.25 67.5 -11.25 67.5 -12.25 66.5 C-12.36413121 64.94699904 -12.40957665 63.38887872 -12.42700195 61.83178711 C-12.44625481 60.33904518 -12.44625481 60.33904518 -12.46589661 58.81614685 C-12.47328354 57.73084183 -12.48067047 56.6455368 -12.48828125 55.52734375 C-12.496353 54.4157338 -12.50442474 53.30412384 -12.51274109 52.15882874 C-12.52660618 49.79738942 -12.53731742 47.43592986 -12.54516602 45.07446289 C-12.56231182 41.47698284 -12.60616942 37.88043752 -12.65039062 34.28320312 C-12.66052299 31.9895901 -12.66903739 29.69596924 -12.67578125 27.40234375 C-12.70204338 25.79564064 -12.70204338 25.79564064 -12.72883606 24.15647888 C-12.70953545 17.44561409 -11.7271482 13.25968573 -8.25 7.5 C-7.82976562 6.736875 -7.40953125 5.97375 -6.9765625 5.1875 C-4.85132866 1.93182263 -3.91771906 0.60272601 0 0 Z " fill="#000000" transform="translate(114.25,357.5)"/>
<path d="M0 0 C3.0625 0.25 3.0625 0.25 6 1 C7.08317124 3.16634248 7.25430553 4.61936679 7.48071289 7.01904297 C7.56072037 7.84685272 7.64072784 8.67466248 7.72315979 9.52755737 C7.80549362 10.42338531 7.88782745 11.31921326 7.97265625 12.2421875 C8.06002548 13.1621048 8.14739471 14.08202209 8.2374115 15.02981567 C8.42164289 16.97819505 8.60392655 18.92675943 8.78442383 20.87548828 C9.06076051 23.85623671 9.34333701 26.83634257 9.62695312 29.81640625 C9.80505729 31.70829856 9.98280346 33.60022461 10.16015625 35.4921875 C10.24451431 36.38396698 10.32887238 37.27574646 10.41578674 38.19454956 C10.49264206 39.02866364 10.56949738 39.86277771 10.64868164 40.72216797 C10.71672501 41.4533786 10.78476837 42.18458923 10.85487366 42.93795776 C10.99677871 44.95423002 11 46.97874028 11 49 C11.86625 49.0825 12.7325 49.165 13.625 49.25 C18.461198 50.32471067 21.65175173 52.37280382 24.8125 56.1875 C26.39716415 59.94065194 27.54402459 63.90832209 27 68 C25.23884561 70.15572996 23.78230766 70.88925309 21.03051758 71.27880859 C18.65821849 71.40476228 16.31276096 71.40895925 13.9375 71.375 C13.12216797 71.38660156 12.30683594 71.39820313 11.46679688 71.41015625 C10.68240234 71.40628906 9.89800781 71.40242188 9.08984375 71.3984375 C8.37691162 71.39505371 7.66397949 71.39166992 6.92944336 71.38818359 C4.42288215 70.88388999 3.50638446 70.04133144 2 68 C2.1875 64.875 2.1875 64.875 3 62 C5.29629994 60.85185003 7.07698086 60.69230191 9.625 60.4375 C10.44226563 60.35371094 11.25953125 60.26992188 12.1015625 60.18359375 C12.72804688 60.12300781 13.35453125 60.06242187 14 60 C13.22914063 59.85304688 12.45828125 59.70609375 11.6640625 59.5546875 C10.15972656 59.21824219 10.15972656 59.21824219 8.625 58.875 C7.62726563 58.66617188 6.62953125 58.45734375 5.6015625 58.2421875 C3 57 3 57 1.890625 54.40673828 C0.91905614 50.69038088 0.453868 47.06490539 0.1484375 43.25 C0.05280014 42.14724731 0.05280014 42.14724731 -0.04476929 41.0222168 C-0.1776298 39.46937749 -0.30684647 37.91622258 -0.43261719 36.36279297 C-0.62224238 34.0338683 -0.82580302 31.7064822 -1.03125 29.37890625 C-2.71540978 9.70750095 -2.71540978 9.70750095 -2 2 C-1.34 1.34 -0.68 0.68 0 0 Z " fill="#000000" transform="translate(252,360)"/>
<path d="M0 0 C1.16200928 0.00142502 2.32401855 0.00285004 3.52124023 0.00431824 C5.49338501 -0.00029671 5.49338501 -0.00029671 7.50537109 -0.00500488 C8.94686049 0.00189306 10.38834817 0.00916005 11.82983398 0.01676941 C13.30192016 0.01796119 14.77400711 0.01841438 16.24609375 0.01815796 C19.33297478 0.01972332 22.41973992 0.02801682 25.5065918 0.04142761 C29.46799339 0.05841755 33.42926754 0.06224197 37.39070129 0.06148243 C40.43096132 0.06175407 43.47119336 0.06723427 46.51144409 0.07448387 C47.9723184 0.07767121 49.43319589 0.0796381 50.89407349 0.08037758 C52.93386979 0.08254042 54.9736543 0.09207654 57.01342773 0.10197449 C58.75644165 0.10769218 58.75644165 0.10769218 60.53466797 0.11352539 C63.26733398 0.24723816 63.26733398 0.24723816 65.26733398 1.24723816 C65.39233398 4.12223816 65.39233398 4.12223816 65.26733398 7.24723816 C62.50178468 10.01278746 60.88613612 9.50072416 57.01342773 9.50602722 C55.69866455 9.51233154 54.38390137 9.51863586 53.02929688 9.52513123 C51.58780789 9.52155156 50.14632012 9.51744962 48.70483398 9.51286316 C47.23274674 9.51420984 45.76065993 9.51615039 44.28857422 9.5186615 C41.20169851 9.52161265 38.11493845 9.51731547 35.02807617 9.50798035 C31.0666127 9.49658572 27.1054202 9.50314525 23.14396667 9.51512527 C20.10369822 9.52234416 17.06349425 9.52005583 14.02322388 9.51486969 C12.56234709 9.51353327 11.10146449 9.51518066 9.64059448 9.5198288 C7.60081083 9.52489422 5.56100672 9.51580795 3.52124023 9.50602722 C1.77822632 9.50364044 1.77822632 9.50364044 0 9.50120544 C-2.73266602 9.24723816 -2.73266602 9.24723816 -4.73266602 7.24723816 C-4.98266602 4.74723816 -4.98266602 4.74723816 -4.73266602 2.24723816 C-2.73266602 0.24723816 -2.73266602 0.24723816 0 0 Z " fill="#000000" transform="translate(93.732666015625,469.7527618408203)"/>
<path d="M0 0 C1.8569751 -0.00472824 1.8569751 -0.00472824 3.75146484 -0.009552 C5.11295609 -0.00776222 6.47444701 -0.00571127 7.8359375 -0.00341797 C9.22216814 -0.00409106 10.60839867 -0.00506113 11.99462891 -0.00631714 C14.90333172 -0.00779387 17.81200387 -0.00564037 20.72070312 -0.00097656 C24.45690348 0.00472073 28.19303202 0.00144159 31.92922974 -0.00454903 C34.79273016 -0.00815532 37.65621343 -0.00701574 40.51971436 -0.00442123 C41.89768482 -0.00375215 43.27565682 -0.00457973 44.65362549 -0.00690079 C46.57637504 -0.00942839 48.49913002 -0.0048957 50.421875 0 C52.06615479 0.00119339 52.06615479 0.00119339 53.74365234 0.00241089 C56.2109375 0.12939453 56.2109375 0.12939453 57.2109375 1.12939453 C57.3984375 4.06689453 57.3984375 4.06689453 57.2109375 7.12939453 C54.5436528 9.79667923 53.25017836 9.38773825 49.52368164 9.40405273 C47.73656517 9.41835075 47.73656517 9.41835075 45.91334534 9.43293762 C44.62065231 9.43202621 43.32795929 9.43111481 41.99609375 9.43017578 C40.66092291 9.43406164 39.32575331 9.43839609 37.99058533 9.44316101 C35.19037878 9.45062827 32.39029829 9.45032849 29.59008789 9.44506836 C26.00078908 9.43927474 22.41200646 9.45619893 18.82279301 9.47941303 C16.06470215 9.49414257 13.30673581 9.49502315 10.54861259 9.49190331 C8.58154404 9.49266687 6.61449482 9.50654817 4.6474762 9.52058411 C3.45291306 9.51435532 2.25834991 9.50812653 1.02758789 9.50170898 C-0.02561142 9.50233841 -1.07881073 9.50296783 -2.16392517 9.50361633 C-4.7890625 9.12939453 -4.7890625 9.12939453 -6.66822815 7.77018738 C-7.7890625 6.12939453 -7.7890625 6.12939453 -7.5390625 3.50439453 C-6.16333017 -0.85209117 -4.31250735 0.00312994 0 0 Z " fill="#000000" transform="translate(399.7890625,442.87060546875)"/>
<path d="M0 0 C1.24655617 -0.00956978 1.24655617 -0.00956978 2.51829529 -0.01933289 C3.86674278 -0.02100212 3.86674278 -0.02100212 5.24243164 -0.02270508 C6.6258651 -0.02769768 6.6258651 -0.02769768 8.0372467 -0.03279114 C9.98999533 -0.03785903 11.94275262 -0.04019951 13.89550781 -0.04003906 C16.88694493 -0.0422249 19.87801298 -0.06038023 22.86938477 -0.0793457 C24.76456579 -0.08227975 26.65974858 -0.08426447 28.55493164 -0.08520508 C29.45187241 -0.09239059 30.34881317 -0.09957611 31.27293396 -0.10697937 C32.10712357 -0.10390274 32.94131317 -0.10082611 33.80078125 -0.09765625 C34.53421249 -0.09908127 35.26764374 -0.10050629 36.02330017 -0.10197449 C37.96508789 0.14526367 37.96508789 0.14526367 40.96508789 2.14526367 C41.21508789 5.20776367 41.21508789 5.20776367 40.96508789 8.14526367 C39.40939613 9.70095544 37.91583872 9.28010422 35.75244141 9.29052734 C34.41083702 9.30009712 34.41083702 9.30009712 33.04212952 9.30986023 C32.06924484 9.31097305 31.09636017 9.31208588 30.09399414 9.31323242 C28.60499855 9.31822502 28.60499855 9.31822502 27.08592224 9.32331848 C24.98176539 9.32839208 22.87760046 9.33072667 20.7734375 9.33056641 C17.54486906 9.33275197 14.31664262 9.35090067 11.08813477 9.36987305 C9.0484224 9.37280699 7.0087084 9.37479178 4.96899414 9.37573242 C3.51270348 9.3865107 3.51270348 9.3865107 2.0269928 9.39750671 C1.12943771 9.39443008 0.23188263 9.39135345 -0.69287109 9.38818359 C-1.48483383 9.38960861 -2.27679657 9.39103363 -3.09275818 9.39250183 C-5.03491211 9.14526367 -5.03491211 9.14526367 -7.03491211 7.14526367 C-6.78491211 4.08276367 -6.78491211 4.08276367 -6.03491211 1.14526367 C-3.76885723 0.01223623 -2.515464 0.0130876 0 0 Z " fill="#000000" transform="translate(419.034912109375,242.854736328125)"/>
<path d="M0 0 C1.21696312 -0.00855011 1.21696312 -0.00855011 2.45851135 -0.01727295 C4.17585952 -0.02672486 5.89322584 -0.03325769 7.6105957 -0.03710938 C10.24006674 -0.04682387 12.86875908 -0.07784818 15.49804688 -0.109375 C17.16535993 -0.11590418 18.83267859 -0.12115498 20.5 -0.125 C21.6813578 -0.1435202 21.6813578 -0.1435202 22.88658142 -0.16241455 C28.30111514 -0.14027879 28.30111514 -0.14027879 30.85180664 1.55957031 C31.81640625 3.203125 31.81640625 3.203125 31.56640625 5.828125 C30.81640625 8.203125 30.81640625 8.203125 29.81640625 9.203125 C26.95546408 9.31661661 24.11957169 9.36730992 21.2578125 9.37109375 C20.39832504 9.37442215 19.53883759 9.37775055 18.65330505 9.38117981 C16.83161964 9.3862527 15.00992489 9.38858802 13.18823242 9.38842773 C10.39421335 9.39061303 7.60058968 9.40876144 4.80664062 9.42773438 C3.04036594 9.4306684 1.27408937 9.43265314 -0.4921875 9.43359375 C-1.33180527 9.44077927 -2.17142303 9.44796478 -3.03648376 9.45536804 C-8.95477194 9.43194681 -8.95477194 9.43194681 -11.18359375 7.203125 C-10.93359375 4.140625 -10.93359375 4.140625 -10.18359375 1.203125 C-6.98616236 -0.39559069 -3.51300259 0.01890819 0 0 Z " fill="#000000" transform="translate(371.18359375,299.796875)"/>
<path d="M0 0 C0.94875 0.04125 1.8975 0.0825 2.875 0.125 C4.125 6.75 4.125 6.75 1.875 10.125 C1.09158604 16.90102208 1.77391218 22.81896024 4.19921875 29.15234375 C5.14015455 31.89900606 5.22459098 34.258354 4.875 37.125 C2.875 39.125 2.875 39.125 0.4375 39.5625 C-2.125 39.125 -2.125 39.125 -3.75 37.25 C-6.90279236 30.08456282 -8.41114547 23.69868591 -8.5 15.875 C-8.51377686 15.20170654 -8.52755371 14.52841309 -8.54174805 13.8347168 C-8.48641887 7.86580471 -6.93890989 0.2775564 0 0 Z " fill="#000000" transform="translate(227.125,240.875)"/>
<path d="M0 0 C2 2 2 2 2.3359375 4.41796875 C1.91597478 7.64582173 1.13719425 8.31168126 -1.375 10.3125 C-2.10203125 10.89644531 -2.8290625 11.48039063 -3.578125 12.08203125 C-4.77695312 13.03142578 -4.77695312 13.03142578 -6 14 C-6.84046875 14.74636719 -7.6809375 15.49273437 -8.546875 16.26171875 C-9.82304688 17.36966797 -9.82304688 17.36966797 -11.125 18.5 C-11.91132812 19.1909375 -12.69765625 19.881875 -13.5078125 20.59375 C-16.74106646 22.41815662 -18.49010263 21.93597263 -22 21 C-22.875 18.9375 -22.875 18.9375 -23 16 C-18.620297 9.49301269 -8.50447624 -1.42969531 0 0 Z " fill="#000000" transform="translate(64,243)"/>
<path d="M0 0 C2.6875 0.5625 2.6875 0.5625 4.6875 2.5625 C4.42651852 8.83475483 1.47296451 11.67206756 -2.87890625 15.8359375 C-5.43175072 17.64710485 -6.34045959 18.0842147 -9.375 17.625 C-10.8290625 17.0990625 -10.8290625 17.0990625 -12.3125 16.5625 C-13 14.875 -13 14.875 -13.3125 12.5625 C-10.90259264 6.98958922 -6.11821223 1.0389417 0 0 Z " fill="#000000" transform="translate(54.3125,133.4375)"/>
<path d="M0 0 C4.29986379 0.46693032 5.66454173 1.97394683 8.6484375 5.04296875 C9.52242187 5.91308594 10.39640625 6.78320312 11.296875 7.6796875 C13.2734375 10.35546875 13.2734375 10.35546875 13.6875 13.0625 C13.2734375 15.35546875 13.2734375 15.35546875 11.2734375 17.35546875 C8.98046875 17.76953125 8.98046875 17.76953125 6.2734375 17.35546875 C3.59765625 15.37890625 3.59765625 15.37890625 0.9609375 12.73046875 C0.07792969 11.87195312 -0.80507813 11.0134375 -1.71484375 10.12890625 C-4.06900763 6.88335993 -4.23787656 5.27741617 -3.7265625 1.35546875 C-2.7265625 0.35546875 -2.7265625 0.35546875 0 0 Z " fill="#000000" transform="translate(45.7265625,51.64453125)"/>
<path d="M0 0 C1.2375 0.1546875 1.2375 0.1546875 2.5 0.3125 C4.90975706 3.92713559 4.83239432 6.6346926 4.8125 10.8125 C4.82861328 11.48925781 4.84472656 12.16601562 4.86132812 12.86328125 C4.86423011 15.80589295 4.83053232 17.8286083 3.14453125 20.296875 C1.5 21.3125 1.5 21.3125 -1.125 21.0625 C-3.5 20.3125 -3.5 20.3125 -4.5 19.3125 C-4.62663091 16.48833618 -4.68520548 13.69955207 -4.6875 10.875 C-4.69974609 10.08544922 -4.71199219 9.29589844 -4.72460938 8.48242188 C-4.72987279 6.42442565 -4.62206285 4.36687991 -4.5 2.3125 C-2.5 0.3125 -2.5 0.3125 0 0 Z " fill="#000000" transform="translate(91.5,148.6875)"/>
<path d="M0 0 C0.78503906 0.00322266 1.57007813 0.00644531 2.37890625 0.00976562 C3.16394531 -0.00634766 3.94898438 -0.02246094 4.7578125 -0.0390625 C7.03515625 -0.04101562 7.03515625 -0.04101562 10.87890625 0.32226562 C12.87890625 3.32226562 12.87890625 3.32226562 12.62890625 5.94726562 C12.38140625 6.73101562 12.13390625 7.51476562 11.87890625 8.32226562 C8.71935208 9.90204271 5.34426808 9.50673646 1.87890625 9.50976562 C1.1415625 9.52201172 0.40421875 9.53425781 -0.35546875 9.546875 C-2.27879433 9.55213958 -4.20163638 9.44430009 -6.12109375 9.32226562 C-8.12109375 7.32226562 -8.12109375 7.32226562 -8.37109375 4.82226562 C-7.84506241 -0.43804777 -4.53176919 0.04275254 0 0 Z " fill="#000000" transform="translate(31.12109375,96.677734375)"/>
<path d="M0 0 C1.2375 0.1546875 1.2375 0.1546875 2.5 0.3125 C4.90975706 3.92713559 4.83239432 6.6346926 4.8125 10.8125 C4.82861328 11.48925781 4.84472656 12.16601562 4.86132812 12.86328125 C4.86423011 15.80589295 4.83053232 17.8286083 3.14453125 20.296875 C1.5 21.3125 1.5 21.3125 -1.125 21.0625 C-3.5 20.3125 -3.5 20.3125 -4.5 19.3125 C-4.62663091 16.48833618 -4.68520548 13.69955207 -4.6875 10.875 C-4.69974609 10.08544922 -4.71199219 9.29589844 -4.72460938 8.48242188 C-4.72987279 6.42442565 -4.62206285 4.36687991 -4.5 2.3125 C-2.5 0.3125 -2.5 0.3125 0 0 Z " fill="#000000" transform="translate(91.5,32.6875)"/>
<path d="M0 0 C3.82690839 0.59087907 5.32830756 2.37437508 8.01953125 5.10546875 C8.90253906 5.97558594 9.78554687 6.84570312 10.6953125 7.7421875 C12.70703125 10.41796875 12.70703125 10.41796875 13.125 13.125 C12.70703125 15.41796875 12.70703125 15.41796875 10.70703125 17.41796875 C8.4140625 17.8359375 8.4140625 17.8359375 5.70703125 17.41796875 C3.03125 15.40625 3.03125 15.40625 0.39453125 12.73046875 C-0.48847656 11.86035156 -1.37148437 10.99023438 -2.28125 10.09375 C-4.29296875 7.41796875 -4.29296875 7.41796875 -4.7109375 4.7109375 C-4.13124656 1.53076384 -3.18017366 0.57969094 0 0 Z " fill="#000000" transform="translate(128.29296875,133.58203125)"/>
<path d="M0 0 C1.57043101 0.01330874 3.14079971 0.03717648 4.7109375 0.0703125 C5.51273438 0.07933594 6.31453125 0.08835937 7.140625 0.09765625 C9.12252273 0.12125027 11.10426731 0.15712185 13.0859375 0.1953125 C15.2109375 4.8203125 15.2109375 4.8203125 14.0859375 8.1953125 C10.92638333 9.77508958 7.55129933 9.37978334 4.0859375 9.3828125 C3.34859375 9.39505859 2.61125 9.40730469 1.8515625 9.41992188 C-0.07176308 9.42518645 -1.99460513 9.31734697 -3.9140625 9.1953125 C-5.9140625 7.1953125 -5.9140625 7.1953125 -6.1640625 4.6953125 C-5.72396797 0.29436723 -4.26285526 0.21271733 0 0 Z " fill="#000000" transform="translate(144.9140625,96.8046875)"/>
<path d="M0 0 C2.23046875 0.8515625 2.23046875 0.8515625 3.23046875 1.8515625 C3.79296875 4.4140625 3.79296875 4.4140625 3.23046875 7.8515625 C0.10643779 12.09962444 -3.106595 15.29725042 -8.14453125 16.9765625 C-10.76953125 16.8515625 -10.76953125 16.8515625 -12.76953125 14.8515625 C-13.1875 12.5625 -13.1875 12.5625 -12.76953125 9.8515625 C-10.7578125 7.140625 -10.7578125 7.140625 -8.08203125 4.4765625 C-6.77685547 3.13464844 -6.77685547 3.13464844 -5.4453125 1.765625 C-2.76953125 -0.1484375 -2.76953125 -0.1484375 0 0 Z " fill="#000000" transform="translate(136.76953125,52.1484375)"/>
<path d="M0 0 C1.24652344 -0.01675781 2.49304688 -0.03351563 3.77734375 -0.05078125 C7.0625 0.3125 7.0625 0.3125 9.01953125 1.66796875 C10.0625 3.3125 10.0625 3.3125 9.8125 5.9375 C9.0625 8.3125 9.0625 8.3125 8.0625 9.3125 C5.57011431 9.43903198 3.11779559 9.49769825 0.625 9.5 C-0.41624023 9.51836914 -0.41624023 9.51836914 -1.47851562 9.53710938 C-3.29970901 9.54239842 -5.1203692 9.43419207 -6.9375 9.3125 C-8.9375 7.3125 -8.9375 7.3125 -9.1875 4.8125 C-8.62841528 -0.77834724 -4.66453572 0.01444129 0 0 Z " fill="#000000" transform="translate(426.9375,299.6875)"/>
<path d="M0 0 C1.93166016 0.01740234 1.93166016 0.01740234 3.90234375 0.03515625 C5.19269531 0.04417969 6.48304688 0.05320312 7.8125 0.0625 C8.81152344 0.07410156 9.81054688 0.08570313 10.83984375 0.09765625 C12.02734375 2.34765625 12.02734375 2.34765625 12.83984375 5.09765625 C11.83984375 7.3828125 11.83984375 7.3828125 9.83984375 9.09765625 C7.02734375 9.59375 7.02734375 9.59375 3.83984375 9.53515625 C2.78796875 9.53386719 1.73609375 9.53257812 0.65234375 9.53125 C-2.16015625 9.09765625 -2.16015625 9.09765625 -4.05078125 7.734375 C-5.16015625 6.09765625 -5.16015625 6.09765625 -4.91015625 3.47265625 C-3.85110954 0.11900833 -3.85110954 0.11900833 0 0 Z " fill="#000000" transform="translate(363.16015625,442.90234375)"/>
<path d="M0 0 C1 1 1 1 1.0625 4.0625 C1.041875 5.031875 1.02125 6.00125 1 7 C-6.61877173 11.8760139 -6.61877173 11.8760139 -12 11 C-14 8 -14 8 -14.125 5.5625 C-12.57709354 2.03671306 -10.50916074 1.18789233 -7.07421875 -0.34765625 C-4.38337923 -1.19392781 -2.61481866 -1.03008008 0 0 Z " fill="#000000" transform="translate(84,233)"/>
<path d="M0 0 C2.5 1.5 2.5 1.5 4 3 C3.6875 5.375 3.6875 5.375 3 8 C-0.66047942 10.44031962 -3.74105256 10.73696072 -8 10 C-10.5 8 -10.5 8 -12 6 C-9.6863293 -0.44522551 -6.65008896 -0.7885481 0 0 Z " fill="#000000" transform="translate(477,381)"/>
<path d="M0 0 C3.0625 -0.25 3.0625 -0.25 6 0 C7 1 7 1 7.25 3.9375 C7.1675 4.948125 7.085 5.95875 7 7 C4 9 4 9 1.3125 8.625 C0.549375 8.41875 -0.21375 8.2125 -1 8 C-1.625 5.6875 -1.625 5.6875 -2 3 C-1.34 2.01 -0.68 1.02 0 0 Z " fill="#000000" transform="translate(298,245)"/>
</svg>
