<?xml version="1.0" standalone="no"?>
<!DOCTYPE svg PUBLIC "-//W3C//DTD SVG 20010904//EN"
 "http://www.w3.org/TR/2001/REC-SVG-20010904/DTD/svg10.dtd">
<svg version="1.0" xmlns="http://www.w3.org/2000/svg"
 width="512.000000pt" height="512.000000pt" viewBox="0 0 512.000000 512.000000"
 preserveAspectRatio="xMidYMid meet">

<g transform="translate(0.000000,512.000000) scale(0.100000,-0.100000)"
fill="#000000" stroke="none">
<path d="M2800 4227 c-19 -6 -58 -34 -85 -62 -71 -70 -90 -144 -63 -239 10
-35 88 -118 552 -583 l541 -543 -1489 0 c-1140 0 -1498 -3 -1530 -12 -86 -26
-166 -136 -166 -228 0 -92 80 -202 166 -228 32 -9 390 -12 1530 -12 l1489 0
-541 -542 c-575 -577 -564 -565 -564 -658 0 -124 116 -240 240 -240 95 0 66
-26 870 774 511 509 764 767 783 800 21 37 27 61 27 106 0 45 -6 69 -27 106
-19 33 -272 291 -783 800 -651 647 -761 752 -796 762 -50 14 -107 14 -154 -1z"/>
</g>
</svg>
