<?xml version="1.0" standalone="no"?>
<!DOCTYPE svg PUBLIC "-//W3C//DTD SVG 20010904//EN"
 "http://www.w3.org/TR/2001/REC-SVG-20010904/DTD/svg10.dtd">
<svg version="1.0" xmlns="http://www.w3.org/2000/svg"
 width="512.000000pt" height="512.000000pt" viewBox="0 0 512.000000 512.000000"
 preserveAspectRatio="xMidYMid meet">

<g transform="translate(0.000000,512.000000) scale(0.100000,-0.100000)"
fill="#000000" stroke="none">
<path d="M3152 4849 c-266 -28 -573 -135 -792 -277 -297 -192 -526 -479 -629
-787 -34 -102 -61 -227 -61 -280 0 -43 -13 -49 -121 -58 -348 -29 -747 -198
-1035 -440 -601 -504 -683 -1315 -194 -1921 64 -79 73 -95 82 -150 24 -152
-33 -344 -140 -467 -66 -74 -75 -105 -47 -158 22 -43 62 -55 163 -47 229 17
465 114 638 262 52 44 52 44 90 30 129 -45 370 -84 569 -93 774 -33 1473 398
1708 1053 26 72 64 241 69 304 3 40 2 40 188 60 109 12 301 51 371 76 l41 14
52 -44 c173 -148 409 -245 638 -262 101 -8 141 4 163 47 28 53 19 84 -47 158
-107 123 -164 315 -140 467 9 55 18 71 82 150 483 599 409 1399 -175 1907
-392 340 -944 511 -1473 456z m443 -210 c608 -75 1131 -481 1279 -992 99 -339
8 -743 -229 -1027 -30 -36 -65 -78 -79 -95 -78 -95 -70 -431 14 -595 l20 -38
-38 10 c-55 15 -193 81 -249 119 -26 18 -78 61 -115 96 -36 34 -78 65 -92 69
-18 4 -58 -4 -119 -24 -51 -17 -137 -40 -192 -51 -103 -21 -321 -48 -329 -40
-2 2 -12 49 -21 104 -49 293 -190 559 -412 782 l-103 103 666 0 666 0 29 29
c41 41 41 101 0 142 l-29 29 -818 0 -817 0 -131 54 c-183 76 -368 123 -559
142 l-69 7 7 53 c12 102 56 239 110 349 215 436 688 737 1232 785 106 9 251 5
378 -11z m-1660 -1389 c286 -32 563 -134 777 -286 168 -119 338 -314 423 -484
226 -451 135 -985 -233 -1358 -228 -231 -509 -374 -862 -439 -129 -23 -433
-23 -584 0 -117 19 -267 54 -358 86 -31 11 -67 17 -80 14 -13 -4 -57 -37 -98
-74 -116 -104 -262 -187 -373 -213 l-27 -7 16 38 c72 165 89 347 50 516 -10
43 -26 70 -76 128 -336 390 -402 891 -174 1308 95 174 278 372 449 486 336
223 761 328 1150 285z"/>
<path d="M2489 3831 c-64 -65 -20 -171 71 -171 58 0 100 42 100 100 0 33 -6
48 -29 71 -23 23 -38 29 -71 29 -33 0 -48 -6 -71 -29z"/>
<path d="M2889 3831 c-23 -23 -29 -38 -29 -71 0 -33 6 -48 29 -71 l29 -29 672
0 672 0 29 29 c41 41 41 101 0 142 l-29 29 -672 0 -672 0 -29 -29z"/>
<path d="M851 2246 c-87 -48 -50 -186 49 -186 51 0 100 49 100 99 0 75 -83
124 -149 87z"/>
<path d="M1251 2246 c-67 -37 -65 -143 4 -174 37 -17 1313 -17 1350 0 29 13
55 55 55 88 0 33 -26 75 -55 88 -40 18 -1321 16 -1354 -2z"/>
<path d="M851 1646 c-67 -37 -65 -143 4 -174 37 -17 1713 -17 1750 0 29 13 55
55 55 88 0 33 -26 75 -55 88 -40 18 -1721 16 -1754 -2z"/>
</g>
</svg>
